<svg width="23" height="23" viewBox="0 0 23 23" fill="none" xmlns="http://www.w3.org/2000/svg">
<path d="M11.5 1.91667C16.7843 1.91667 21.0833 6.21575 21.0833 11.5C21.0833 16.7843 16.7843 21.0833 11.5 21.0833C6.21575 21.0833 1.91667 16.7843 1.91667 11.5C1.91667 6.21575 6.21575 1.91667 11.5 1.91667ZM11.5 0C5.14913 0 0 5.14913 0 11.5C0 17.8509 5.14913 23 11.5 23C17.8509 23 23 17.8509 23 11.5C23 5.14913 17.8509 0 11.5 0ZM12.6979 16.2917C12.6979 16.9529 12.1622 17.4896 11.5 17.4896C10.8397 17.4896 10.3021 16.9529 10.3021 16.2917C10.3021 15.6304 10.8397 15.0938 11.5 15.0938C12.1622 15.0938 12.6979 15.6304 12.6979 16.2917ZM14.0329 6.71025C13.4502 6.11992 12.581 5.79504 11.5882 5.79504C9.499 5.79504 8.14775 7.28046 8.14775 9.58046H10.075C10.075 8.15637 10.8694 7.65133 11.5489 7.65133C12.1565 7.65133 12.8014 8.05479 12.856 8.82625C12.9155 9.63796 12.4823 10.05 11.9341 10.5714C10.581 11.8584 10.556 12.4813 10.5618 13.8949H12.4832C12.4708 13.2585 12.512 12.742 13.3793 11.8076C14.0281 11.108 14.835 10.2379 14.8513 8.91154C14.8618 8.02604 14.5791 7.26417 14.0329 6.71025Z" fill="#333333"/>
</svg>
