<svg width="673" height="449" viewBox="0 0 673 449" fill="none" xmlns="http://www.w3.org/2000/svg">
<path d="M135.09 364C132.81 364 130.872 363.202 129.276 361.606C127.68 360.01 126.882 358.072 126.882 355.792V312.016H18.468C16.188 312.016 14.25 311.218 12.654 309.622C11.058 308.026 10.26 306.088 10.26 303.808V280.21C10.26 276.562 11.514 273.142 14.022 269.95L114.912 130.414C116.052 128.59 117.762 127.222 120.042 126.31C122.322 125.17 124.83 124.6 127.566 124.6H165.186C167.694 124.6 169.632 125.398 171 126.994C172.596 128.362 173.394 130.3 173.394 132.808V271.318H204.174C206.682 271.318 208.62 272.116 209.988 273.712C211.584 275.08 212.382 277.018 212.382 279.526V303.808C212.382 306.088 211.584 308.026 209.988 309.622C208.62 311.218 206.682 312.016 204.174 312.016H173.394V355.792C173.394 358.072 172.596 360.01 171 361.606C169.632 363.202 167.694 364 165.186 364H135.09ZM58.482 272.686H127.908V174.532L58.482 272.686ZM335.954 367.42C305.402 367.42 282.602 358.984 267.554 342.112C252.734 325.24 244.64 303.124 243.272 275.764C243.044 269.608 242.93 259.12 242.93 244.3C242.93 229.252 243.044 218.536 243.272 212.152C244.412 185.248 252.62 163.36 267.896 146.488C283.172 129.616 305.858 121.18 335.954 121.18C366.05 121.18 388.736 129.616 404.012 146.488C419.288 163.36 427.496 185.248 428.636 212.152C429.092 224.92 429.32 235.636 429.32 244.3C429.32 252.964 429.092 263.452 428.636 275.764C427.268 303.124 419.06 325.24 404.012 342.112C389.192 358.984 366.506 367.42 335.954 367.42ZM335.954 327.406C350.09 327.406 360.692 322.846 367.76 313.726C374.828 304.378 378.59 291.154 379.046 274.054C379.274 267.442 379.388 257.296 379.388 243.616C379.388 229.936 379.274 220.018 379.046 213.862C378.59 197.218 374.828 184.222 367.76 174.874C360.692 165.526 350.09 160.738 335.954 160.51C321.818 160.738 311.216 165.526 304.148 174.874C297.08 184.222 293.318 197.218 292.862 213.862C292.634 220.018 292.52 229.936 292.52 243.616C292.52 257.296 292.634 267.442 292.862 274.054C293.318 291.154 297.08 304.378 304.148 313.726C311.216 322.846 321.818 327.406 335.954 327.406ZM583.965 364C581.685 364 579.747 363.202 578.151 361.606C576.555 360.01 575.757 358.072 575.757 355.792V312.016H467.343C465.063 312.016 463.125 311.218 461.529 309.622C459.933 308.026 459.135 306.088 459.135 303.808V280.21C459.135 276.562 460.389 273.142 462.897 269.95L563.787 130.414C564.927 128.59 566.637 127.222 568.917 126.31C571.197 125.17 573.705 124.6 576.441 124.6H614.061C616.569 124.6 618.507 125.398 619.875 126.994C621.471 128.362 622.269 130.3 622.269 132.808V271.318H653.049C655.557 271.318 657.495 272.116 658.863 273.712C660.459 275.08 661.257 277.018 661.257 279.526V303.808C661.257 306.088 660.459 308.026 658.863 309.622C657.495 311.218 655.557 312.016 653.049 312.016H622.269V355.792C622.269 358.072 621.471 360.01 619.875 361.606C618.507 363.202 616.569 364 614.061 364H583.965ZM507.357 272.686H576.783V174.532L507.357 272.686Z" fill="#5941A9"/>
<path d="M203.579 1.74866C232.086 -3.36803 243.05 43.4132 267.172 48.5299C291.294 53.6466 322.725 38.2965 334.42 66.8038C346.115 95.3111 357.08 89.4634 373.161 104.814C382.159 113.41 381.932 146.478 343.192 148.671C304.451 150.864 305.913 188.874 281.791 191.066C257.67 193.259 221.122 219.574 194.807 221.036C168.493 222.497 152.763 194.041 132.676 185.219C102.707 172.061 125.367 139.899 106.362 128.204C87.3568 116.509 98.9644 83.9082 126.097 84.3467C148.392 84.7122 151.549 74.5812 146.93 58.3978C141.082 37.931 142.135 21.2871 157.163 10.8856C185.67 -8.8502 185.882 4.92832 203.579 1.74866Z" fill="#2B1807"/>
<path d="M208.695 76.3063C209.339 87.2706 209.426 101.159 224.045 106.275C233.424 109.565 230.624 139.169 208.695 134.783C186.767 130.397 185.305 115.047 189.69 107.737C194.076 100.428 188.959 73.3824 183.843 69.7277C178.726 66.0729 207.964 63.88 208.695 76.3063Z" fill="#EFE3CE"/>
<path d="M209.061 84.7124C209.061 87.0295 211.21 91.6711 209.792 92.022C206.868 92.7529 195.173 92.7529 191.518 86.9053C187.863 81.0576 181.285 70.8242 189.325 74.479C197.366 78.1338 209.061 80.3267 209.061 84.7124Z" fill="#E2D3BF"/>
<path d="M164.109 24.409C171.418 6.866 199.926 4.67313 210.159 23.678C215.583 33.7579 221.854 39.0281 226.971 49.2615C229.763 54.8533 229.164 75.5759 222.585 84.3474C218.536 89.7418 198.208 86.4306 191.885 82.1545C164.84 63.8806 156.997 41.4841 164.109 24.409Z" fill="#EFE3CE"/>
<path d="M203.578 39.0276C204.638 40.4895 205.661 41.8929 206.736 43.2671C207.81 44.6413 208.929 45.9717 210.098 47.2289C211.262 48.4978 212.513 49.6848 213.841 50.7814C215.19 51.8994 216.661 52.8607 218.226 53.6467C216.429 53.3822 214.714 52.7205 213.205 51.7097C211.672 50.7372 210.269 49.5729 209.031 48.2449C207.808 46.923 206.725 45.4777 205.8 43.9323C204.858 42.3963 204.112 40.7487 203.578 39.0276V39.0276Z" fill="#E2D3BF"/>
<path d="M224.046 106.275C237.138 104.814 242.32 103.352 251.822 106.275C261.325 109.199 297.142 93.8492 315.416 87.2706C333.69 80.692 351.232 64.6109 363.659 55.1085C376.085 45.6061 376.816 58.7633 366.583 69.7276C356.349 80.692 322.725 106.275 316.147 107.737C309.568 109.199 254.015 130.397 243.051 130.397C232.087 130.397 189.991 142.509 183.113 147.209C169.224 156.711 157.529 184.488 153.143 196.183C144.913 218.112 139.986 250.274 134.869 260.507C129.753 270.741 123.064 267.364 127.56 241.502C130.484 224.69 128.495 196.68 137.062 181.564C149.489 159.635 155.336 139.168 164.839 128.204C174.341 117.24 186.036 115.047 194.077 106.275C202.117 97.504 217.467 107.006 224.046 106.275Z" fill="#EFE3CE"/>
<path d="M232.816 104.813C234.278 114.974 239.395 126.011 243.05 130.397C246.705 134.783 259.862 147.209 252.552 158.904C245.243 170.6 248.897 174.985 249.628 181.564C250.359 188.143 259.131 194.721 254.745 202.031C250.359 209.34 230.623 224.69 223.314 210.071C216.004 195.452 187.497 150.864 183.111 147.209C183.111 135.514 178.726 120.895 176.533 117.24C180.187 115.047 182.38 114.316 187.497 109.93C187.497 116.509 208.695 133.321 216.004 125.28C223.314 117.24 221.852 109.93 221.852 104.813C226.238 105.544 228.431 104.813 232.816 104.813Z" fill="#6D0C2C"/>
<path d="M260.975 221.737C285.096 216.789 349.069 196.965 358.923 198.544C368.776 200.123 404.081 247.577 429.014 279.322C453.947 311.068 420.652 291.12 407.524 278.511C395.237 266.713 365.129 257.869 350.509 232.716C345.393 223.879 289.431 283.591 268.949 269.593C248.468 255.595 243.285 225.363 260.975 221.737Z" fill="#EFE3CE"/>
<path d="M432.04 282.882C436.47 288.437 442.756 294.475 449.539 292.501C456.322 290.528 447.207 312.237 439.342 306.645C431.477 301.054 428.064 294.855 421.068 289.388C414.46 284.264 426.156 275.492 432.04 282.882Z" fill="#EFE3CE"/>
<path d="M264.293 227.95C285.783 240.026 347.096 266.925 353.47 274.556C359.844 282.187 355.487 341.19 353.536 381.509C351.584 421.829 339.158 388.088 337.827 366.817C336.767 349.815 319.334 323.479 324.736 294.869C326.629 284.826 245.259 293.32 238.943 269.322C232.628 245.325 248.556 219.106 264.293 227.95Z" fill="#EFE3CE"/>
<path d="M353.061 386.598C352.55 393.695 353.142 404.316 359.369 407.649C365.597 410.982 343.902 420.075 342.185 410.617C340.467 401.158 344.041 397.46 341.366 385.867C339.173 376.364 353.792 376.364 353.061 386.598Z" fill="#EFE3CE"/>
<path d="M448.23 291.829C462.286 289.139 475.567 284.673 484.522 279.959C493.476 275.244 499.301 279.922 483.893 291.223C468.484 302.523 471.759 306.185 462.184 306.514C452.608 306.843 452.038 318.041 446.102 315.965C440.167 313.89 438.384 313.005 435.357 305.001C445.912 302.128 448.23 291.829 448.23 291.829Z" fill="#332A23"/>
<path d="M453.769 306.901C455.897 309.686 457.424 310.724 459.661 312.698C458.513 315.044 456.657 316.462 453.755 319.408C450.699 317.332 448.243 317.003 447.534 316.067C444.362 311.915 453.769 306.901 453.769 306.901Z" fill="#332A23"/>
<path d="M358.447 404.374C370.713 411.742 383.599 417.268 393.416 419.724C403.233 422.18 404.454 429.541 385.434 427.699C366.415 425.857 366.429 430.762 359.054 424.621C351.678 418.481 343.813 426.456 340.78 420.967C337.746 415.477 337.001 413.613 340.049 405.617C349.858 410.507 358.447 404.374 358.447 404.374Z" fill="#332A23"/>
<path d="M352.532 419.3C352.254 422.801 352.7 424.592 353.058 427.553C350.639 428.532 348.307 428.357 344.185 428.62C343.293 425.031 341.677 423.145 341.765 421.983C342.174 416.771 352.532 419.3 352.532 419.3Z" fill="#332A23"/>
<path d="M253.286 189.605C259.565 194.18 271.56 202.762 284.717 201.3C297.874 199.838 337.346 179.371 349.772 182.295C361.467 188.874 370.239 197.645 373.163 202.031C376.087 206.417 352.696 220.305 357.082 240.041C361.467 259.776 354.889 298.517 307.377 321.908C259.865 345.298 243.053 342.374 232.088 363.572C221.124 384.77 199.195 364.303 218.2 322.639C237.205 280.974 213.083 248.081 218.2 229.076C223.317 210.071 220.758 209.706 219.662 202.762C234.281 206.417 249.631 198.376 253.286 189.605Z" fill="#6D0C2C"/>
<path d="M176.532 6.13458C166.92 10.0964 201.384 28.7942 218.196 34.6419C235.008 40.4895 240.856 83.6159 249.627 84.3469C258.399 85.0779 242.318 40.4895 224.775 22.9466C207.232 5.40362 188.958 1.01789 176.532 6.13458Z" fill="#2B1807"/>
<path d="M187.497 10.5203C197.679 20.0739 165.334 43.1282 187.497 75.5754C223.679 128.57 158.741 114.945 147.66 149.767C137.426 181.93 119.152 132.765 131.213 116.509C140.438 104.083 172.878 79.9611 164.106 66.8039C155.335 53.6467 152.776 21.1191 163.01 16.7334C173.243 12.3477 175.802 -0.444062 187.497 10.5203Z" fill="#2B1807"/>
<path d="M362.927 55.8391C374.257 47.4331 370.968 44.1438 374.623 36.8343C378.884 28.3113 382.217 25.2925 384.856 20.0223C389.973 9.78887 394.907 6.67499 391.435 17.0984C388.511 25.8699 382.663 29.5247 386.318 30.9866C389.973 32.4485 403.13 13.2171 408.978 8.32696C413.363 4.67218 414.825 6.13409 410.44 13.4437C406.054 20.7532 395.089 30.9866 400.937 28.7937C406.785 26.6009 420.673 14.1746 425.059 11.9817C429.444 9.78887 430.175 11.9817 424.328 17.8294C418.48 23.677 401.668 30.9866 405.323 32.4485C408.978 33.9104 425.059 23.677 432.368 23.677C434.678 23.677 422.135 32.4485 410.44 36.8343C398.744 41.22 419.942 38.2962 424.328 39.0271C428.713 39.7581 416.945 43.4129 406.785 44.8748C400.287 45.7885 395.287 54.019 381.932 55.1082C375.924 55.6052 364.024 76.6714 365.851 66.8035C366.816 61.5771 354.521 62.0815 362.927 55.8391Z" fill="#EFE3CE"/>
<path d="M136.697 256.487C134.892 263.709 134.183 269.645 137.735 277.334C139.197 280.412 140.491 292.896 130.674 294.936C124.826 296.156 131.734 291.719 132.867 287.685C133.766 284.432 132.246 279.491 130.886 280.952C127.312 284.805 125.148 287.787 123.672 289.483C118.701 295.191 124.783 309.525 121.654 307.998C117.678 306.053 116.757 293.912 117.064 289.819C117.371 285.726 121.698 282.743 122.816 278.708C123.935 274.674 126.361 261.641 126.142 255.895C125.733 245.523 141.814 236.021 136.697 256.487Z" fill="#EFE3CE"/>
<path d="M126.574 261.948C123.987 268.607 123.475 271.45 118.833 276.772C116.136 279.871 111.889 283.635 113.169 288.672C113.644 290.558 114.937 296.252 118.029 298.949C119.608 300.323 120.303 290.755 121.45 286.026C122.627 281.172 126.969 278.19 128.906 274.221C133.738 264.316 130.119 252.833 126.574 261.948Z" fill="#EFE3CE"/>
<path d="M267.773 342.112C282.821 358.984 305.621 367.42 336.173 367.42C366.725 367.42 389.411 358.984 404.231 342.112C417 325 412.5 333 421.5 312.5L379.265 282C375.5 299 375.047 304.378 367.979 313.726C360.911 322.846 350.309 327.406 336.173 327.406C322.037 327.406 311.435 322.846 304.367 313.726C297.299 304.378 293.537 291.154 293.081 274.054C292.853 267.442 292.739 257.296 292.739 243.616C292.739 229.936 292.853 220.018 293.081 213.862C293.537 197.218 297.299 184.222 304.367 174.874C311.435 165.526 322.037 160.738 336.173 160.51C350.309 160.738 360.911 165.526 367.979 174.874C375.047 184.222 378.809 197.218 379.265 213.862L428.855 212.152C427.715 185.248 419.507 163.36 404.231 146.488C388.955 129.616 366.269 121.18 336.173 121.18C306.077 121.18 283.391 129.616 268.115 146.488C252.839 163.36 244.631 185.248 243.491 212.152C243.263 218.536 243.149 229.252 243.149 244.3C243.149 259.12 243.263 269.608 243.491 275.764C244.859 303.124 252.953 325.24 267.773 342.112Z" fill="#5941A9"/>
</svg>
