<svg width="719" height="719" viewBox="0 0 719 719" fill="none" xmlns="http://www.w3.org/2000/svg">
<path d="M360.7 0L369.459 26.9558H397.802L374.872 43.6155L383.63 70.5713L360.7 53.9117L337.77 70.5713L346.529 43.6155L323.599 26.9558H351.942L360.7 0Z" fill="#EBDA9D"/>
<path d="M519.145 598.967L527.903 625.922H556.246L533.316 642.582L542.075 669.538L519.145 652.878L496.215 669.538L504.973 642.582L482.043 625.922H510.386L519.145 598.967Z" fill="#EBDA9D"/>
<path d="M520.345 44.4124L529.103 71.3682H557.446L534.516 88.0278L543.275 114.984L520.345 98.324L497.415 114.984L506.173 88.0278L483.243 71.3682H511.586L520.345 44.4124Z" fill="#EBDA9D"/>
<path d="M636.777 162.045L645.536 189.001H673.879L650.949 205.661L659.707 232.616L636.777 215.957L613.847 232.616L622.606 205.661L599.676 189.001H628.019L636.777 162.045Z" fill="#EBDA9D"/>
<path d="M679.989 321.689L688.748 348.645H717.091L694.161 365.305L702.919 392.261L679.989 375.601L657.059 392.261L665.818 365.305L642.888 348.645H671.231L679.989 321.689Z" fill="#EBDA9D"/>
<path d="M636.777 481.334L645.536 508.29H673.879L650.949 524.949L659.707 551.905L636.777 535.246L613.847 551.905L622.606 524.949L599.676 508.29H628.019L636.777 481.334Z" fill="#EBDA9D"/>
<path d="M359.5 640.978L368.259 667.934H396.602L373.672 684.594L382.43 711.55L359.5 694.89L336.57 711.55L345.329 684.594L322.399 667.934H350.742L359.5 640.978Z" fill="#EBDA9D"/>
<path d="M199.856 598.967L208.614 625.922H236.957L214.027 642.582L222.786 669.538L199.856 652.878L176.926 669.538L185.684 642.582L162.754 625.922H191.097L199.856 598.967Z" fill="#EBDA9D"/>
<path d="M199.856 43.2119L208.614 70.1678H236.957L214.027 86.8274L222.786 113.783L199.856 97.1236L176.926 113.783L185.684 86.8274L162.754 70.1678H191.097L199.856 43.2119Z" fill="#EBDA9D"/>
<path d="M82.2228 160.845L90.9813 187.801H119.324L96.3943 204.46L105.153 231.416L82.2228 214.756L59.2928 231.416L68.0512 204.46L45.1212 187.801H73.4643L82.2228 160.845Z" fill="#EBDA9D"/>
<path d="M39.0109 322.89L47.7693 349.846H76.1124L53.1824 366.505L61.9409 393.461L39.0109 376.802L16.0808 393.461L24.8393 366.505L1.90933 349.846H30.2524L39.0109 322.89Z" fill="#EBDA9D"/>
<path d="M82.2228 480.134L90.9813 507.089H119.324L96.3943 523.749L105.153 550.705L82.2228 534.045L59.2928 550.705L68.0512 523.749L45.1212 507.089H73.4643L82.2228 480.134Z" fill="#EBDA9D"/>
</svg>
