<svg width="405" height="439" viewBox="0 0 405 439" fill="none" xmlns="http://www.w3.org/2000/svg">
<path d="M167.07 79.1646C172.936 83.6766 177.187 88.167 177.063 95.6034C176.958 102.296 192.898 111.716 198.752 97.8395C204.606 83.9628 196.608 77.3448 190.877 77.0222C185.146 76.6997 172.022 63.6158 171.919 59.3809C171.815 55.1459 160.434 74.0519 167.07 79.1646Z" fill="#D6C3AB"/>
<path d="M169.278 81.5956C170.657 81.7823 171.876 83.9994 174.07 85.1176C175.65 85.9252 179.517 69.658 177.216 67.562C174.914 65.4661 173.609 61.1199 171.462 62.3221C169.314 63.5243 166.839 81.2689 169.278 81.5956Z" fill="#CEB8A1"/>
<path d="M154.144 31.2389C141.604 28.6697 129.596 43.7244 136.311 56.6166C139.87 63.4467 140.435 68.9403 144.203 75.6592C146.256 79.3269 158.031 86.8371 165.403 86.4945C169.937 86.2803 175.783 73.6998 175.801 68.5623C175.865 46.6004 166.341 33.7404 154.144 31.2389Z" fill="#D6C3AB"/>
<path d="M170.183 51.4739C167.984 51.5767 163.261 48.0162 162.419 45.6669C161.406 42.8495 158.864 40.3241 156.15 43.5361C153.859 46.2457 149.896 46.4728 146.787 45.9571C143.954 45.4903 143.884 49.8391 140.877 51.5222C137.871 53.2053 135.38 51.7792 135.483 53.978C135.679 58.1557 132.078 57.2664 130.605 53.3247C129.716 50.9621 130.829 48.6867 127.857 46.4017C124.71 43.9838 125.676 37.4688 130.692 36.3528C135.709 35.2368 135.224 28.1749 139.454 25.8065C146.756 21.7189 146.772 26.7864 155.224 23.7469C159.949 22.0495 164.174 26.6338 166.2 32.2684C168.226 37.903 173.723 37.646 175.028 41.9922C176.333 46.3384 178.841 52.8319 176.985 55.563C175.13 58.2941 178.531 60.3387 176.624 61.9704C174.717 63.6021 172.382 51.3711 170.183 51.4739Z" fill="#211204"/>
<path d="M168.05 51.3819C167.128 48.8182 168.716 44.7642 172.211 46.5531C174.383 47.6614 178.064 57.0066 172.837 59.9328C169.53 61.7843 169.189 54.4842 168.05 51.3819Z" fill="#CEB8A1"/>
<path d="M147.356 58.7532C148.106 59.7002 148.736 60.7356 149.234 61.8363C149.743 62.9381 150.139 64.0882 150.417 65.2693C150.692 66.4581 150.817 67.6767 150.79 68.8967C150.777 70.1251 150.491 71.3352 149.953 72.4395C150.1 71.2734 150.117 70.0945 150.004 68.9246C149.894 67.77 149.705 66.6244 149.438 65.4958C149.187 64.3616 148.859 63.2421 148.505 62.126C148.151 61.0099 147.749 59.8983 147.356 58.7532Z" fill="#CEB8A1"/>
<path d="M177.064 95.6032C171.302 102.349 164.042 105.714 161.776 112.025C158.46 121.215 137.917 137.562 127.349 145.244C116.781 152.926 101.175 156.62 91.1898 159.943C81.2042 163.266 88.2477 168.652 98.2281 167.104C108.209 165.555 139.557 157.881 142.863 154.767C146.168 151.653 180.005 129.342 183.716 118.921C186.189 111.964 212.275 90.8495 217.852 90.2207C227.936 89.0881 249.424 94.7536 257.601 96.7356C272.934 100.455 297.998 105.043 305.638 106.063C313.277 107.083 313.918 102.081 297.815 94.8C287.308 90.0886 270.083 78.0427 258.424 77.0961C241.504 75.7211 222.999 62.3556 214.312 66.8187C202.046 73.1217 196.335 77.7519 188.403 78.9095C180.471 80.0671 179.962 92.2152 177.064 95.6032Z" fill="#D6C3AB"/>
<path d="M91.8557 159.824C83.4495 162.945 82.2968 159.878 76.8439 159.146C70.4799 158.298 67.5406 159.013 63.6067 158.485C55.9676 157.465 52.3676 159.035 59.4889 161.044C65.478 162.734 69.7248 160.859 69.1605 163.448C68.5963 166.037 52.887 166.088 47.966 167.495C44.2673 168.556 44.5318 169.926 50.2631 170.248C55.9943 170.571 65.8434 168.334 62.4079 170.782C58.9724 173.23 46.7952 176.245 43.9177 177.856C41.0402 179.467 41.9775 180.708 47.4508 179.663C52.9242 178.619 63.3537 172.018 62.7852 174.61C62.2167 177.201 50.4282 182.261 47.6658 186.335C46.7895 187.621 56.424 183.953 63.2904 179.099C70.1569 174.245 60.5095 184.943 59.2573 187.664C58.005 190.384 64.5109 185.219 69.1334 180.115C72.1006 176.84 78.5748 177.17 84.2356 170.143C86.7872 166.982 93.7699 168.432 98.1161 167.127C101.562 166.089 98.3405 157.412 91.8557 159.824Z" fill="#D6C3AB"/>
<path d="M305.071 106.605C310.827 109.108 313.057 109.253 317.279 114.759C318.971 116.965 327.551 123.11 332.827 117.804C335.968 114.629 330.07 117.091 326.7 116.09C323.987 115.273 320.963 112.211 322.555 111.98C326.726 111.371 329.749 111.269 331.551 111.061C337.63 110.354 344.134 119.36 344.227 116.736C344.346 113.402 337.446 108.584 334.346 107.037C331.246 105.489 327.415 106.969 324.035 105.939C320.655 104.909 310.464 100.489 306.132 98.3341C301.8 96.1788 294.875 102.177 305.071 106.605Z" fill="#D6C3AB"/>
<path d="M310.363 101.166C316.257 101.77 318.48 103.261 324.144 102.606C327.438 102.223 331.004 101.298 334.183 104.246C335.37 105.358 339.842 108.439 340.619 111.541C341.012 113.12 333.769 109.481 329.879 108.195C325.883 106.873 322.058 108.332 318.404 107.851C309.331 106.697 301.73 100.285 310.363 101.166Z" fill="#D6C3AB"/>
<path d="M323.973 317.234C326.183 320.532 337.509 327.719 333.283 331.14C331.362 332.698 320.334 342.771 317.196 342.5C314.058 342.229 321.26 329.122 314.968 321.483C308.677 313.844 320.961 312.734 323.973 317.234Z" fill="#D6C3AB"/>
<path d="M259.814 150.422C266.923 156.066 276.285 162.603 283.883 173.049C291.48 183.496 298.911 235.81 300.92 241.888C302.93 247.966 318.203 264.347 321.584 280.854C324.965 297.362 329.616 307.138 329.863 316.053C330.008 321.19 318.817 327.389 314.616 327.22C310.414 327.051 287.992 266.868 278.761 254.098C263.009 232.31 251.689 190.278 252.243 188.687C253.584 184.856 230.677 162.64 237.076 155.34C243.476 148.04 245.07 138.725 259.814 150.422Z" fill="#192359"/>
<path d="M258.625 189.175C255.269 199.16 247.024 221.523 240.309 231.019C252.283 235.873 278.563 244.818 290.987 255.745C303.41 266.671 297.695 272.353 294.839 272.096C275.074 270.334 208.123 256.552 211.351 234.37C213.886 216.942 222.05 189.881 229.884 169.667C234.922 156.692 246.263 154.923 254.649 163.039C263.034 171.155 260.194 184.512 258.625 189.175Z" fill="#192359"/>
<path d="M218.484 85.3543C220.916 93.9316 249.34 120.822 257.557 148.093C261.827 162.27 230.037 180.874 227.097 175.299C217.668 157.45 182.267 135.527 177.458 126.938C174.296 121.29 187.775 109.598 199.354 98.0381C209.807 87.6 215.582 75.133 218.484 85.3543Z" fill="#6699CC"/>
<path d="M151.725 123.293C157.72 128.963 159.935 133.927 166.497 137.587C172.647 132.451 177.509 128.037 180.086 126.594C182.663 125.152 219.359 89.9409 221.128 90.0785C222.898 90.2162 234.664 92.0899 236.674 92.657C238.684 93.2241 240.077 80.5984 239.425 71.3737C233.774 68.3326 219.903 62.5599 213.83 65.9598L194.504 76.7798C199.888 85.8933 198.684 97.8491 191.426 100.502C184.937 102.877 180.338 101.351 175.348 95.9655C169.301 103.3 162.935 107.044 161.484 110.497C159.302 115.667 156.828 119.308 151.725 123.293Z" fill="#6699CC"/>
<path d="M333.133 324.725C338.297 328.983 339.296 333.038 340.648 335.101C342 337.164 333.157 344.261 322.248 350.973C311.34 357.685 298.664 369.718 296.614 365.762C294.564 361.807 297.692 360.299 303.691 353.326C309.69 346.352 316.898 335.006 316.757 332.137C321.681 332.392 329.589 328.281 333.133 324.725Z" fill="#140B01"/>
</svg>
