<svg width="267" height="289" viewBox="0 0 267 289" fill="none" xmlns="http://www.w3.org/2000/svg">
<path d="M71.767 1.1775C90.963 -2.26793 98.346 29.2331 114.589 32.6786C130.831 36.124 151.996 25.7877 159.872 44.9837C167.747 64.1796 175.13 60.242 185.958 70.5783C192.017 76.3666 191.865 98.6339 165.778 100.111C139.691 101.587 140.676 127.182 124.433 128.658C108.19 130.135 83.5799 147.854 65.8606 148.839C48.1412 149.823 37.549 130.662 24.0232 124.721C3.84285 115.861 19.1012 94.2041 6.30387 86.3288C-6.49343 78.4535 1.32277 56.5012 19.5934 56.7966C34.6056 57.0427 36.7319 50.2207 33.6212 39.3233C29.6836 25.5416 30.3923 14.3341 40.5121 7.33005C59.708 -5.95946 59.8507 3.31858 71.767 1.1775Z" fill="#2B1807"/>
<path d="M75.2126 51.3825C75.6457 58.7656 75.7048 68.1174 85.5489 71.5629C91.8639 73.7778 89.9787 93.7121 75.2126 90.7588C60.4465 87.8056 59.4621 77.4693 62.4153 72.5473C65.3685 67.6252 61.9231 49.4137 58.4777 46.9527C55.0322 44.4916 74.7204 43.015 75.2126 51.3825Z" fill="#EFE3CE"/>
<path d="M75.4586 57.0428C75.4586 58.6031 76.9057 61.7286 75.9508 61.9649C73.982 62.4571 66.1067 62.4571 63.6457 58.5195C61.1847 54.5818 56.7548 47.691 62.1691 50.152C67.5833 52.613 75.4586 54.0896 75.4586 57.0428Z" fill="#E2D3BF"/>
<path d="M45.1881 16.4362C50.1102 4.6233 69.3061 3.14669 76.197 15.944C79.8491 22.7315 84.0723 26.2803 87.5177 33.1711C89.3979 36.9365 88.9943 50.8905 84.5645 56.7969C81.8377 60.4294 68.1495 58.1997 63.8919 55.3203C45.6803 43.0152 40.399 27.9341 45.1881 16.4362Z" fill="#EFE3CE"/>
<path d="M71.7666 26.28C72.4803 27.2644 73.1694 28.2095 73.8929 29.1348C74.6165 30.0602 75.3695 30.956 76.1571 31.8026C76.941 32.657 77.783 33.4563 78.6772 34.1947C79.5854 34.9475 80.5761 35.5948 81.6304 36.1241C80.4203 35.946 79.2651 35.5004 78.2489 34.8198C77.2166 34.165 76.2721 33.3809 75.4384 32.4867C74.6148 31.5966 73.8857 30.6234 73.2629 29.5827C72.6285 28.5484 72.1259 27.439 71.7666 26.28Z" fill="#E2D3BF"/>
<path d="M85.5486 71.5629C94.364 70.5784 97.8537 69.594 104.252 71.5629C110.651 73.5317 134.769 63.1954 147.074 58.7656C159.379 54.3357 171.192 43.5072 179.56 37.1086C187.927 30.7099 188.419 39.5696 181.528 46.9527C174.638 54.3357 151.996 71.5629 147.566 72.5473C143.136 73.5317 105.729 87.8056 98.3459 87.8056C90.9629 87.8056 62.6168 95.9614 57.9852 99.1263C48.6333 105.525 40.758 124.229 37.8048 132.104C32.2626 146.87 28.9451 168.527 25.4997 175.418C22.0543 182.309 17.5506 180.035 20.5777 162.621C22.5465 151.3 21.2077 132.439 26.9763 122.26C35.3438 107.494 39.2814 93.712 45.6801 86.329C52.0787 78.9459 59.954 77.4693 65.3682 71.5629C70.7825 65.6564 81.1188 72.0551 85.5486 71.5629Z" fill="#EFE3CE"/>
<path d="M91.4549 70.5784C92.4393 77.42 95.8847 84.8523 98.3457 87.8055C100.807 90.7587 109.666 99.1262 104.744 107.001C99.8224 114.877 102.283 117.83 102.776 122.26C103.268 126.69 109.174 131.119 106.221 136.042C103.268 140.964 89.9783 151.3 85.0562 141.456C80.1342 131.612 60.9382 101.587 57.985 99.1262C57.985 91.2509 55.0318 81.4069 53.5552 78.9458C56.0162 77.4692 57.4928 76.977 60.9382 74.0238C60.9382 78.4536 75.2122 89.7743 80.1342 84.3601C85.0562 78.9458 84.0718 74.0238 84.0718 70.5784C87.0251 71.0706 88.5017 70.5784 91.4549 70.5784Z" fill="#6D0C2C"/>
<path d="M110.415 149.311C126.658 145.979 169.735 132.63 176.37 133.694C183.005 134.757 206.779 166.711 223.568 188.087C240.357 209.464 217.937 196.031 209.097 187.541C200.823 179.597 180.549 173.641 170.705 156.704C167.26 150.753 129.576 190.962 115.785 181.536C101.993 172.11 98.5036 151.753 110.415 149.311Z" fill="#EFE3CE"/>
<path d="M225.605 190.484C228.588 194.225 232.821 198.291 237.388 196.962C241.956 195.633 235.818 210.251 230.522 206.486C225.226 202.721 222.927 198.547 218.217 194.865C213.768 191.415 221.643 185.508 225.605 190.484Z" fill="#EFE3CE"/>
<path d="M112.649 153.495C127.12 161.626 168.406 179.739 172.698 184.878C176.99 190.016 174.057 229.747 172.743 256.897C171.428 284.047 163.061 261.327 162.165 247.004C161.451 235.555 149.712 217.821 153.35 198.556C154.625 191.793 99.8324 197.513 95.5797 181.354C91.3271 165.195 102.052 147.539 112.649 153.495Z" fill="#EFE3CE"/>
<path d="M172.423 260.323C172.078 265.102 172.477 272.254 176.671 274.499C180.864 276.743 166.256 282.866 165.099 276.497C163.942 270.128 166.349 267.637 164.548 259.831C163.071 253.432 172.915 253.432 172.423 260.323Z" fill="#EFE3CE"/>
<path d="M236.508 196.509C245.973 194.698 254.916 191.69 260.945 188.515C266.975 185.341 270.898 188.491 260.522 196.1C250.147 203.71 252.352 206.176 245.904 206.397C239.456 206.619 239.072 214.159 235.075 212.761C231.079 211.364 229.878 210.768 227.84 205.378C234.947 203.444 236.508 196.509 236.508 196.509Z" fill="#332A23"/>
<path d="M240.238 206.658C241.671 208.534 242.699 209.232 244.205 210.561C243.433 212.141 242.182 213.096 240.228 215.08C238.171 213.682 236.517 213.46 236.04 212.83C233.904 210.035 240.238 206.658 240.238 206.658Z" fill="#332A23"/>
<path d="M176.05 272.293C184.31 277.255 192.987 280.976 199.597 282.63C206.208 284.284 207.03 289.24 194.223 288C181.415 286.759 181.425 290.062 176.459 285.927C171.493 281.793 166.196 287.163 164.154 283.466C162.111 279.77 161.609 278.515 163.662 273.13C170.267 276.423 176.05 272.293 176.05 272.293Z" fill="#332A23"/>
<path d="M172.068 282.344C171.881 284.702 172.182 285.908 172.423 287.901C170.794 288.561 169.223 288.442 166.447 288.62C165.847 286.203 164.759 284.933 164.818 284.15C165.094 280.641 172.068 282.344 172.068 282.344Z" fill="#332A23"/>
<path d="M105.237 127.674C109.465 130.755 117.542 136.534 126.402 135.549C135.262 134.565 161.841 120.783 170.208 122.752C178.084 127.182 183.99 133.088 185.959 136.042C187.928 138.995 172.177 148.347 175.13 161.636C178.084 174.926 173.654 201.012 141.66 216.763C109.667 232.514 98.3465 230.545 90.9634 244.819C83.5804 259.093 68.8142 245.311 81.6115 217.255C94.4089 189.2 78.1661 167.05 81.6115 154.253C85.057 141.456 83.3343 141.21 82.596 136.534C92.44 138.995 102.776 133.581 105.237 127.674Z" fill="#6D0C2C"/>
<path d="M53.5554 4.13072C47.0829 6.79846 70.2903 19.389 81.611 23.3267C92.9317 27.2643 96.8693 56.3043 102.776 56.7966C108.682 57.2888 97.8537 27.2643 86.0408 15.4514C74.2279 3.63851 61.9228 0.685288 53.5554 4.13072Z" fill="#2B1807"/>
<path d="M60.9384 7.08389C67.7948 13.517 46.0148 29.0411 60.9384 50.8901C85.3025 86.5748 41.5751 77.4002 34.1133 100.849C27.2225 122.506 14.9174 89.4001 23.0387 78.4535C29.2503 70.086 51.0944 53.8433 45.1879 44.9836C39.2815 36.1239 37.5587 14.2208 44.4496 11.2676C51.3405 8.3144 53.0632 -0.29917 60.9384 7.08389Z" fill="#2B1807"/>
<path d="M179.067 37.6006C186.697 31.9403 184.482 29.7253 186.943 24.8033C189.812 19.0642 192.057 17.0314 193.834 13.4826C197.279 6.59175 200.601 4.49496 198.263 11.5138C196.295 17.4202 192.357 19.8813 194.818 20.8657C197.279 21.8501 206.139 8.90019 210.076 5.60735C213.03 3.14633 214.014 4.13073 211.061 9.05277C208.107 13.9748 200.724 20.8657 204.662 19.3891C208.6 17.9124 217.952 9.54498 220.905 8.06837C223.858 6.59175 224.35 8.06837 220.413 12.006C216.475 15.9436 205.154 20.8657 207.615 21.8501C210.076 22.8345 220.905 15.9436 225.827 15.9436C227.382 15.9436 218.936 21.8501 211.061 24.8033C203.185 27.7565 217.459 25.7877 220.413 26.2799C223.366 26.7721 215.441 29.2331 208.6 30.2175C204.224 30.8328 200.857 36.375 191.865 37.1084C187.819 37.4431 179.806 51.6284 181.036 44.9837C181.686 41.4644 173.407 41.804 179.067 37.6006Z" fill="#EFE3CE"/>
<path d="M26.7304 172.711C25.5146 177.574 25.0372 181.57 27.4293 186.748C28.4137 188.821 29.2849 197.227 22.6746 198.601C18.737 199.423 23.3883 196.435 24.1512 193.718C24.7566 191.528 23.7329 188.2 22.8174 189.185C20.4105 191.779 18.9536 193.787 17.9593 194.929C14.6123 198.773 18.7075 208.425 16.6008 207.396C13.9232 206.087 13.3031 197.912 13.5098 195.155C13.7165 192.399 16.6304 190.391 17.3834 187.674C18.1365 184.957 19.7706 176.181 19.623 172.312C19.3473 165.328 30.1758 158.929 26.7304 172.711Z" fill="#EFE3CE"/>
<path d="M19.9134 176.388C18.171 180.872 17.8265 182.786 14.701 186.37C12.8848 188.457 10.0251 190.991 10.8864 194.383C11.2063 195.653 12.0775 199.487 14.1596 201.303C15.2227 202.228 15.6903 195.786 16.4631 192.601C17.2555 189.333 20.1792 187.325 21.4836 184.652C24.737 177.982 22.3006 170.25 19.9134 176.388Z" fill="#EFE3CE"/>
</svg>
