<svg width="1333" height="743" viewBox="0 0 1333 743" fill="none" xmlns="http://www.w3.org/2000/svg">
<path d="M71.767 455.177C90.963 451.732 98.346 483.233 114.589 486.679C130.831 490.124 151.996 479.788 159.872 498.984C167.747 518.18 175.13 514.242 185.958 524.578C192.017 530.367 191.865 552.634 165.778 554.111C139.691 555.587 140.676 581.182 124.433 582.658C108.19 584.135 83.5799 601.854 65.8606 602.839C48.1412 603.823 37.549 584.662 24.0232 578.721C3.84285 569.861 19.1012 548.204 6.30387 540.329C-6.49343 532.454 1.32277 510.501 19.5934 510.797C34.6056 511.043 36.7319 504.221 33.6212 493.323C29.6836 479.542 30.3923 468.334 40.5121 461.33C59.708 448.041 59.8507 457.319 71.767 455.177Z" fill="#2B1807"/>
<path d="M75.2126 505.383C75.6457 512.766 75.7048 522.117 85.5489 525.563C91.8639 527.778 89.9787 547.712 75.2126 544.759C60.4465 541.806 59.4621 531.469 62.4153 526.547C65.3685 521.625 61.9231 503.414 58.4777 500.953C55.0322 498.492 74.7204 497.015 75.2126 505.383Z" fill="#EFE3CE"/>
<path d="M75.4586 511.043C75.4586 512.603 76.9057 515.729 75.9508 515.965C73.982 516.457 66.1067 516.457 63.6457 512.519C61.1847 508.582 56.7548 501.691 62.1691 504.152C67.5833 506.613 75.4586 508.09 75.4586 511.043Z" fill="#E2D3BF"/>
<path d="M45.1881 470.436C50.1102 458.623 69.3061 457.147 76.197 469.944C79.8491 476.731 84.0723 480.28 87.5177 487.171C89.3979 490.936 88.9943 504.89 84.5645 510.797C81.8377 514.429 68.1495 512.2 63.8919 509.32C45.6803 497.015 40.399 481.934 45.1881 470.436Z" fill="#EFE3CE"/>
<path d="M71.7666 480.28C72.4803 481.264 73.1694 482.209 73.8929 483.135C74.6165 484.06 75.3695 484.956 76.1571 485.803C76.941 486.657 77.783 487.456 78.6772 488.195C79.5854 488.948 80.5761 489.595 81.6304 490.124C80.4203 489.946 79.2651 489.5 78.2489 488.82C77.2166 488.165 76.2721 487.381 75.4384 486.487C74.6148 485.597 73.8857 484.623 73.2629 483.583C72.6285 482.548 72.1259 481.439 71.7666 480.28Z" fill="#E2D3BF"/>
<path d="M85.5486 525.563C94.364 524.578 97.8537 523.594 104.252 525.563C110.651 527.532 134.769 517.195 147.074 512.766C159.379 508.336 171.192 497.507 179.56 491.109C187.927 484.71 188.419 493.57 181.528 500.953C174.638 508.336 151.996 525.563 147.566 526.547C143.136 527.532 105.729 541.806 98.3459 541.806C90.9629 541.806 62.6168 549.961 57.9852 553.126C48.6333 559.525 40.758 578.229 37.8048 586.104C32.2626 600.87 28.9451 622.527 25.4997 629.418C22.0543 636.309 17.5506 634.035 20.5777 616.621C22.5465 605.3 21.2077 586.439 26.9763 576.26C35.3438 561.494 39.2814 547.712 45.6801 540.329C52.0787 532.946 59.954 531.469 65.3682 525.563C70.7825 519.656 81.1188 526.055 85.5486 525.563Z" fill="#EFE3CE"/>
<path d="M91.4549 524.578C92.4393 531.42 95.8847 538.852 98.3457 541.806C100.807 544.759 109.666 553.126 104.744 561.001C99.8224 568.877 102.283 571.83 102.776 576.26C103.268 580.69 109.174 585.119 106.221 590.042C103.268 594.964 89.9783 605.3 85.0562 595.456C80.1342 585.612 60.9382 555.587 57.985 553.126C57.985 545.251 55.0318 535.407 53.5552 532.946C56.0162 531.469 57.4928 530.977 60.9382 528.024C60.9382 532.454 75.2122 543.774 80.1342 538.36C85.0562 532.946 84.0718 528.024 84.0718 524.578C87.0251 525.071 88.5017 524.578 91.4549 524.578Z" fill="#6D0C2C"/>
<path d="M110.415 603.311C126.658 599.979 169.735 586.63 176.37 587.694C183.005 588.757 206.779 620.711 223.568 642.087C240.357 663.464 217.937 650.031 209.097 641.541C200.823 633.597 180.549 627.641 170.705 610.704C167.26 604.753 129.576 644.962 115.785 635.536C101.993 626.11 98.5036 605.753 110.415 603.311Z" fill="#EFE3CE"/>
<path d="M225.605 644.484C228.588 648.225 232.821 652.291 237.388 650.962C241.956 649.633 235.818 664.251 230.522 660.486C225.226 656.721 222.927 652.547 218.217 648.865C213.768 645.415 221.643 639.508 225.605 644.484Z" fill="#EFE3CE"/>
<path d="M112.649 607.495C127.12 615.626 168.406 633.739 172.698 638.878C176.99 644.016 174.057 683.747 172.743 710.897C171.428 738.047 163.061 715.327 162.165 701.004C161.451 689.555 149.712 671.821 153.35 652.556C154.625 645.793 99.8324 651.513 95.5797 635.354C91.3271 619.195 102.052 601.539 112.649 607.495Z" fill="#EFE3CE"/>
<path d="M172.423 714.323C172.078 719.102 172.477 726.254 176.671 728.499C180.864 730.743 166.256 736.866 165.099 730.497C163.942 724.128 166.349 721.637 164.548 713.831C163.071 707.432 172.915 707.432 172.423 714.323Z" fill="#EFE3CE"/>
<path d="M236.508 650.509C245.973 648.698 254.916 645.69 260.945 642.515C266.975 639.341 270.898 642.491 260.522 650.1C250.147 657.71 252.352 660.176 245.904 660.397C239.456 660.619 239.072 668.159 235.075 666.761C231.079 665.364 229.878 664.768 227.84 659.378C234.947 657.444 236.508 650.509 236.508 650.509Z" fill="#332A23"/>
<path d="M240.238 660.658C241.671 662.534 242.699 663.232 244.205 664.561C243.433 666.141 242.182 667.096 240.228 669.08C238.171 667.682 236.517 667.46 236.04 666.83C233.904 664.035 240.238 660.658 240.238 660.658Z" fill="#332A23"/>
<path d="M176.05 726.293C184.31 731.255 192.987 734.976 199.597 736.63C206.208 738.284 207.03 743.24 194.223 742C181.415 740.759 181.425 744.062 176.459 739.927C171.493 735.793 166.196 741.163 164.154 737.466C162.111 733.77 161.609 732.515 163.662 727.13C170.267 730.423 176.05 726.293 176.05 726.293Z" fill="#332A23"/>
<path d="M172.068 736.344C171.881 738.702 172.182 739.908 172.423 741.901C170.794 742.561 169.223 742.442 166.447 742.62C165.847 740.203 164.759 738.933 164.818 738.15C165.094 734.641 172.068 736.344 172.068 736.344Z" fill="#332A23"/>
<path d="M105.237 581.674C109.465 584.755 117.542 590.534 126.402 589.549C135.262 588.565 161.841 574.783 170.208 576.752C178.084 581.182 183.99 587.088 185.959 590.042C187.928 592.995 172.177 602.347 175.13 615.636C178.084 628.926 173.654 655.012 141.66 670.763C109.667 686.514 98.3465 684.545 90.9634 698.819C83.5804 713.093 68.8142 699.311 81.6115 671.255C94.4089 643.2 78.1661 621.05 81.6115 608.253C85.057 595.456 83.3343 595.21 82.596 590.534C92.44 592.995 102.776 587.581 105.237 581.674Z" fill="#6D0C2C"/>
<path d="M53.5554 458.131C47.0829 460.798 70.2903 473.389 81.611 477.327C92.9317 481.264 96.8693 510.304 102.776 510.797C108.682 511.289 97.8537 481.264 86.0408 469.451C74.2279 457.639 61.9228 454.685 53.5554 458.131Z" fill="#2B1807"/>
<path d="M60.9384 461.084C67.7948 467.517 46.0148 483.041 60.9384 504.89C85.3025 540.575 41.5751 531.4 34.1133 554.849C27.2225 576.506 14.9174 543.4 23.0387 532.453C29.2503 524.086 51.0944 507.843 45.1879 498.984C39.2815 490.124 37.5587 468.221 44.4496 465.268C51.3405 462.314 53.0632 453.701 60.9384 461.084Z" fill="#2B1807"/>
<path d="M179.067 491.601C186.697 485.94 184.482 483.725 186.943 478.803C189.812 473.064 192.057 471.031 193.834 467.483C197.279 460.592 200.601 458.495 198.263 465.514C196.295 471.42 192.357 473.881 194.818 474.866C197.279 475.85 206.139 462.9 210.076 459.607C213.03 457.146 214.014 458.131 211.061 463.053C208.107 467.975 200.724 474.866 204.662 473.389C208.6 471.912 217.952 463.545 220.905 462.068C223.858 460.592 224.35 462.068 220.413 466.006C216.475 469.944 205.154 474.866 207.615 475.85C210.076 476.834 220.905 469.944 225.827 469.944C227.382 469.944 218.936 475.85 211.061 478.803C203.185 481.757 217.459 479.788 220.413 480.28C223.366 480.772 215.441 483.233 208.6 484.218C204.224 484.833 200.857 490.375 191.865 491.108C187.819 491.443 179.806 505.628 181.036 498.984C181.686 495.464 173.407 495.804 179.067 491.601Z" fill="#EFE3CE"/>
<path d="M26.7304 626.711C25.5146 631.574 25.0372 635.57 27.4293 640.748C28.4137 642.821 29.2849 651.227 22.6746 652.601C18.737 653.423 23.3883 650.435 24.1512 647.718C24.7566 645.528 23.7329 642.2 22.8174 643.185C20.4105 645.779 18.9536 647.787 17.9593 648.929C14.6123 652.773 18.7075 662.425 16.6008 661.396C13.9232 660.087 13.3031 651.912 13.5098 649.155C13.7165 646.399 16.6304 644.391 17.3834 641.674C18.1365 638.957 19.7706 630.181 19.623 626.312C19.3473 619.328 30.1758 612.929 26.7304 626.711Z" fill="#EFE3CE"/>
<path d="M19.9134 630.388C18.171 634.872 17.8265 636.786 14.701 640.37C12.8848 642.457 10.0251 644.991 10.8864 648.383C11.2063 649.653 12.0775 653.487 14.1596 655.303C15.2227 656.228 15.6903 649.786 16.4631 646.601C17.2555 643.333 20.1792 641.325 21.4836 638.652C24.737 631.982 22.3006 624.25 19.9134 630.388Z" fill="#EFE3CE"/>
<path d="M1095.07 79.1646C1100.94 83.6766 1105.19 88.167 1105.06 95.6034C1104.96 102.296 1120.9 111.716 1126.75 97.8395C1132.61 83.9628 1124.61 77.3448 1118.88 77.0222C1113.15 76.6997 1100.02 63.6158 1099.92 59.3809C1099.82 55.1459 1088.43 74.0519 1095.07 79.1646Z" fill="#D6C3AB"/>
<path d="M1097.28 81.5956C1098.66 81.7823 1099.88 83.9994 1102.07 85.1176C1103.65 85.9252 1107.52 69.658 1105.22 67.562C1102.91 65.4661 1101.61 61.1199 1099.46 62.3221C1097.31 63.5243 1094.84 81.2689 1097.28 81.5956Z" fill="#CEB8A1"/>
<path d="M1082.14 31.2389C1069.6 28.6697 1057.6 43.7244 1064.31 56.6166C1067.87 63.4467 1068.44 68.9403 1072.2 75.6592C1074.26 79.3269 1086.03 86.8371 1093.4 86.4945C1097.94 86.2803 1103.78 73.6998 1103.8 68.5623C1103.86 46.6004 1094.34 33.7404 1082.14 31.2389Z" fill="#D6C3AB"/>
<path d="M1098.18 51.4739C1095.98 51.5767 1091.26 48.0162 1090.42 45.6669C1089.41 42.8495 1086.86 40.3241 1084.15 43.5361C1081.86 46.2457 1077.9 46.4728 1074.79 45.9571C1071.95 45.4903 1071.88 49.8391 1068.88 51.5222C1065.87 53.2053 1063.38 51.7792 1063.48 53.978C1063.68 58.1557 1060.08 57.2664 1058.6 53.3247C1057.72 50.9621 1058.83 48.6867 1055.86 46.4017C1052.71 43.9838 1053.68 37.4688 1058.69 36.3528C1063.71 35.2368 1063.22 28.1749 1067.45 25.8065C1074.76 21.7189 1074.77 26.7864 1083.22 23.7469C1087.95 22.0495 1092.17 26.6338 1094.2 32.2684C1096.23 37.903 1101.72 37.646 1103.03 41.9922C1104.33 46.3384 1106.84 52.8319 1104.99 55.563C1103.13 58.2941 1106.53 60.3387 1104.62 61.9704C1102.72 63.6021 1100.38 51.3711 1098.18 51.4739Z" fill="#211204"/>
<path d="M1096.05 51.3819C1095.13 48.8182 1096.72 44.7642 1100.21 46.5531C1102.38 47.6614 1106.06 57.0066 1100.84 59.9328C1097.53 61.7843 1097.19 54.4842 1096.05 51.3819Z" fill="#CEB8A1"/>
<path d="M1075.36 58.7532C1076.11 59.7002 1076.74 60.7356 1077.23 61.8363C1077.74 62.9381 1078.14 64.0882 1078.42 65.2693C1078.69 66.4581 1078.82 67.6767 1078.79 68.8967C1078.78 70.1251 1078.49 71.3352 1077.95 72.4395C1078.1 71.2734 1078.12 70.0945 1078 68.9246C1077.89 67.77 1077.71 66.6244 1077.44 65.4958C1077.19 64.3616 1076.86 63.2421 1076.51 62.126C1076.15 61.0099 1075.75 59.8983 1075.36 58.7532Z" fill="#CEB8A1"/>
<path d="M1105.06 95.6032C1099.3 102.349 1092.04 105.714 1089.78 112.025C1086.46 121.215 1065.92 137.562 1055.35 145.244C1044.78 152.926 1029.18 156.62 1019.19 159.943C1009.2 163.266 1016.25 168.652 1026.23 167.104C1036.21 165.555 1067.56 157.881 1070.86 154.767C1074.17 151.653 1108.01 129.342 1111.72 118.921C1114.19 111.964 1140.28 90.8495 1145.85 90.2207C1155.94 89.0881 1177.42 94.7536 1185.6 96.7356C1200.93 100.455 1226 105.043 1233.64 106.063C1241.28 107.083 1241.92 102.081 1225.81 94.8C1215.31 90.0886 1198.08 78.0427 1186.42 77.0961C1169.5 75.7211 1151 62.3556 1142.31 66.8187C1130.05 73.1217 1124.33 77.7519 1116.4 78.9095C1108.47 80.0671 1107.96 92.2152 1105.06 95.6032Z" fill="#D6C3AB"/>
<path d="M1019.86 159.824C1011.45 162.945 1010.3 159.878 1004.84 159.146C998.48 158.298 995.541 159.013 991.607 158.485C983.968 157.465 980.368 159.035 987.489 161.044C993.478 162.734 997.725 160.859 997.161 163.448C996.596 166.037 980.887 166.088 975.966 167.495C972.267 168.556 972.532 169.926 978.263 170.248C983.994 170.571 993.843 168.334 990.408 170.782C986.972 173.23 974.795 176.245 971.918 177.856C969.04 179.467 969.977 180.708 975.451 179.663C980.924 178.619 991.354 172.018 990.785 174.61C990.217 177.201 978.428 182.261 975.666 186.335C974.789 187.621 984.424 183.953 991.29 179.099C998.157 174.245 988.51 184.943 987.257 187.664C986.005 190.384 992.511 185.219 997.133 180.115C1000.1 176.84 1006.57 177.17 1012.24 170.143C1014.79 166.982 1021.77 168.432 1026.12 167.127C1029.56 166.089 1026.34 157.412 1019.86 159.824Z" fill="#D6C3AB"/>
<path d="M1233.07 106.605C1238.83 109.108 1241.06 109.253 1245.28 114.759C1246.97 116.965 1255.55 123.11 1260.83 117.804C1263.97 114.629 1258.07 117.091 1254.7 116.09C1251.99 115.273 1248.96 112.211 1250.55 111.98C1254.73 111.371 1257.75 111.269 1259.55 111.061C1265.63 110.354 1272.13 119.36 1272.23 116.736C1272.35 113.402 1265.45 108.584 1262.35 107.037C1259.25 105.489 1255.41 106.969 1252.03 105.939C1248.65 104.909 1238.46 100.489 1234.13 98.3341C1229.8 96.1788 1222.87 102.177 1233.07 106.605Z" fill="#D6C3AB"/>
<path d="M1238.36 101.166C1244.26 101.77 1246.48 103.261 1252.14 102.606C1255.44 102.223 1259 101.298 1262.18 104.246C1263.37 105.358 1267.84 108.439 1268.62 111.541C1269.01 113.12 1261.77 109.481 1257.88 108.195C1253.88 106.873 1250.06 108.332 1246.4 107.851C1237.33 106.697 1229.73 100.285 1238.36 101.166Z" fill="#D6C3AB"/>
<path d="M1251.97 317.234C1254.18 320.532 1265.51 327.719 1261.28 331.14C1259.36 332.698 1248.33 342.771 1245.2 342.5C1242.06 342.229 1249.26 329.122 1242.97 321.483C1236.68 313.844 1248.96 312.734 1251.97 317.234Z" fill="#D6C3AB"/>
<path d="M1187.81 150.422C1194.92 156.066 1204.29 162.603 1211.88 173.049C1219.48 183.496 1226.91 235.81 1228.92 241.888C1230.93 247.966 1246.2 264.347 1249.58 280.854C1252.96 297.362 1257.62 307.138 1257.86 316.053C1258.01 321.19 1246.82 327.389 1242.62 327.22C1238.41 327.051 1215.99 266.868 1206.76 254.098C1191.01 232.31 1179.69 190.278 1180.24 188.687C1181.58 184.856 1158.68 162.64 1165.08 155.34C1171.48 148.04 1173.07 138.725 1187.81 150.422Z" fill="#192359"/>
<path d="M1186.63 189.175C1183.27 199.16 1175.02 221.523 1168.31 231.019C1180.28 235.873 1206.56 244.818 1218.99 255.745C1231.41 266.671 1225.7 272.353 1222.84 272.096C1203.07 270.334 1136.12 256.552 1139.35 234.37C1141.89 216.942 1150.05 189.881 1157.88 169.667C1162.92 156.692 1174.26 154.923 1182.65 163.039C1191.03 171.155 1188.19 184.512 1186.63 189.175Z" fill="#192359"/>
<path d="M1146.48 85.3543C1148.92 93.9316 1177.34 120.822 1185.56 148.093C1189.83 162.27 1158.04 180.874 1155.1 175.299C1145.67 157.45 1110.27 135.527 1105.46 126.938C1102.3 121.29 1115.78 109.598 1127.35 98.0381C1137.81 87.6 1143.58 75.133 1146.48 85.3543Z" fill="#6699CC"/>
<path d="M1079.73 123.293C1085.72 128.963 1087.94 133.927 1094.5 137.587C1100.65 132.451 1105.51 128.037 1108.09 126.594C1110.66 125.152 1147.36 89.9409 1149.13 90.0785C1150.9 90.2162 1162.66 92.0899 1164.67 92.657C1166.68 93.2241 1168.08 80.5984 1167.42 71.3737C1161.77 68.3326 1147.9 62.5599 1141.83 65.9598L1122.5 76.7798C1127.89 85.8933 1126.68 97.8491 1119.43 100.502C1112.94 102.877 1108.34 101.351 1103.35 95.9655C1097.3 103.3 1090.94 107.044 1089.48 110.497C1087.3 115.667 1084.83 119.308 1079.73 123.293Z" fill="#6699CC"/>
<path d="M1261.13 324.725C1266.3 328.983 1267.3 333.038 1268.65 335.101C1270 337.164 1261.16 344.261 1250.25 350.973C1239.34 357.685 1226.66 369.718 1224.61 365.762C1222.56 361.807 1225.69 360.299 1231.69 353.326C1237.69 346.352 1244.9 335.006 1244.76 332.137C1249.68 332.392 1257.59 328.281 1261.13 324.725Z" fill="#140B01"/>
</svg>
