<?xml version="1.0" encoding="UTF-8"?>
<svg viewBox="0 0 93 112" xmlns="http://www.w3.org/2000/svg">
<path d="m84.393 9.5486h-76.48v92.301h76.48v-92.301z" fill="#C7DADD"/>
<path d="m52.8 67.157c-1.0185 6.528-1.4259 9.9973 4.0804 14.892 3.2241 2.8646-1.4737 6.4102-7.5465 6.754-4.3 0.2419-11.312-0.2133-13.368-2.228-5.2835-5.1753 2.1484-6.3656 3.9817-11.054 1.9097-4.8443 0.4106-6.3243-0.8148-10.201-1.2254-3.8766 14.584-4.0262 13.667 1.8365z" fill="#BCAF9B"/>
<path d="m48.312 32.064c17.136 0 12.037 20.809 11.63 24.686-0.1432 1.3623 0.2037 7.5465-2.8645 10.405-2.333 2.177-5.3026 6.5279-10.185 6.5279-4.8824 0-9.1824-6.3242-11.223-8.3644s-2.4476-9.5898-1.6296-13.26-3.4852-19.994 14.272-19.994z" fill="#BCAF9B"/>
<path d="m34.394 52.975c-0.9548-5.1529-3.2178-1.7346-3.0141 1.3273 0.2037 3.0618 1.9447 6.1937 3.0141 4.0135s0.3597-3.4024 0-5.3408z" fill="#B7A58F"/>
<path d="m59.678 53.996c0.9549-5.1561 3.2147-1.7346 3.011 1.3241s-1.9416 6.1937-3.011 4.0167c-1.0694-2.1771-0.3596-3.4024 0-5.3408z" fill="#B7A58F"/>
<path d="m36.481 49.814c1.1426 3.1159-4.6915 2.2438-5.0925-2.228-0.4011-4.4719-3.0587-9.7935 0-13.67 3.0586-3.8767 3.6729-6.7317 10.405-6.9354 6.7316-0.2037 9.7935-2.0402 13.874-0.4074 4.0803 1.6328 8.9755 6.528 8.9755 10.405 0 3.8766-2.0402 7.7501-1.8365 10.608s-6.1205 8.1575-4.8951 5.3026c1.2253-2.855 2.2438-10.822-2.0402-13.26-4.2841-2.438-4.4878-0.2037-7.5497 0-3.0618 0.2037-4.0358-2.6003-8.3644-1.8364-3.4756 0.5951-5.7195 5.9009-3.4756 12.022z" fill="#939393"/>
<path d="m46.068 51.243c0.399 0.7434 0.663 1.5516 0.7797 2.3871 0.1277 0.8296 0.1778 1.6692 0.1496 2.5081-0.0294 0.8351-0.1198 1.667-0.2705 2.4889-0.1432 0.8221-0.3638 1.6289-0.6588 2.4094 0.0413-0.8339 0.1082-1.655 0.1655-2.473s0.1082-1.6328 0.1273-2.4444 0.0286-1.6264 0-2.4381c-0.0352-0.8189-0.1331-1.634-0.2928-2.438z" fill="#A08F73"/>
<path d="m35.256 80.007c5.9168 8.1607 17.136 8.5681 21.828 1.2222 4.8984 3.2656 9.3861 3.4693 14.281 6.7348 2.3649 1.5755 10.643 12.779 8.5236 16.433-2.2662 3.908-10.185 3.819-17.187 3.819-5.0225 0-29.396-0.226-35.329-1.273-5.4108-0.955-13.89 0.124-14.959-2.546-1.6742-4.183 7.5815-18.216 10.185-19.097 4.3336-1.4777 8.5625-3.2461 12.658-5.293z" fill="#37934A"/>
<path d="M0 0V111.399H92.3017V0H0ZM84.3892 101.85H7.91248V9.54845H84.3892V101.85Z" fill="#1C3D1F"/>
</svg>
