<?xml version="1.0" encoding="UTF-8"?>
<svg viewBox="0 0 172 285" xmlns="http://www.w3.org/2000/svg">
<path d="m97.687 279.64c14.039 2.496 35.567-14.664 41.183-18.72s6.24-92.974 2.496-98.278-80.183-6.106-87.824 9.117c-7.6407 15.222-5.151 94.465 7.6408 98.833 12.792 4.368 36.503 9.048 36.503 9.048z" fill="#1A351B"/>
<path d="m52.145 104.32c7.1759 0 30.888 5.928 44.615 13.104 13.728 7.176 46.799 25.583 49.919 29.951s5.616 27.768 2.184 30.576-33.383-3.432-47.111-11.232c-13.728-7.8-48.983-16.848-54.599-25.272-5.8561-8.782-5.9279-37.127 4.9919-37.127z" fill="#1C3D1F"/>
<path d="m18.596 26.142c9.8497-3.9404 47.423-13.416 67.703-10.92 20.28 2.496 19.344 50.855 19.968 56.783s9.983 63.023 7.799 70.198c-2.184 7.176-36.815 20.592-62.71 19.344s-30.887-3.744-29.016-13.104c1.872-9.36 5.6159-44.303 3.12-61.775-2.496-17.472-13.104-58.031-6.8639-60.527z" fill="#24512B"/>
<path d="m12.668 153.75c1.2667-14.567-7.1758-98.59-6.8638-106.08 0.31199-7.4879 7.1758-19.656 12.792-21.528 5.6159-1.872 9.9838 42.431 10.296 51.791 0.312 9.3599 3.432 38.999-2.4959 73.63-0.8923 5.229-14.352 9.36-13.728 2.184z" fill="#1C3D1F"/>
<path d="m80.995 53.286c-0.3307 5.3039-1.248 12.168 2.1839 16.224 1.8034 2.1309 3.744 4.9919 5.304 6.2399 1.5599 1.2479-1.872 15.288-3.12 17.472-1.248 2.184-25.896-16.224-25.896-18.72 0-2.496 5.3039-8.4239 5.6159-14.976 0.312-6.5518-1.248-12.48-2.496-16.536-0.6614-2.1496 18.72 5.3039 18.408 10.296z" fill="#AFA085"/>
<path d="m51.98 29.575c-5.3039 0-9.0479 1.248-8.7359 6.8639s1.872 8.1118 4.368 10.608c2.4959 2.4959 8.7358 6.5519 10.92 4.9919 2.1839-1.56 5.6159-5.9279 5.3039-9.0479-0.312-3.1199-5.6159-12.48-7.4879-13.416s-4.3679 0-4.3679 0z" fill="#D8D8D8"/>
<path d="m88.795 11.479c3.4975 2.0561 8.7359 11.232 8.1119 18.408s-1.56 9.6718-0.624 12.48c0.936 2.8079 0.624 8.1118-1.56 10.608-1.6036 1.8345-3.7439 8.4238-8.4238 9.6718-2.4305 0.649-8.1119-2.496-9.9839-2.496-1.8719 0-3.4319 0.312-5.9279-1.5599-2.4959-1.872-6.8638-6.5519-7.7998-9.6719-0.936-3.1199-4.9919-13.104-3.7439-17.472 1.2479-4.368-0.624-17.16 9.9838-20.592 10.608-3.4319 14.664-2.4959 19.968 0.624z" fill="#AFA085"/>
<path d="m61.651 6.175c2.7892 0.46488 10.608 3.7439 10.296 7.7999-0.312 4.0559-1.248 11.544-3.1199 13.104-1.872 1.5599-8.7359 5.5691-9.3599 7.154s-1.56 3.7658-5.6159 0.0218c-4.0559-3.7439-4.6799-4.6799-5.3039-9.0478s0.312-14.04 4.9919-16.536c4.6799-2.496 6.2399-2.808 8.1119-2.496z" fill="#D8D8D8"/>
<path d="m62.899 9.6068c-2.2994-1.379-3.744-4.9919 0.936-7.1759 4.6799-2.184 11.232-3.1199 14.664-1.872 3.4319 1.248 11.544 1.248 15.6 9.0478 4.0559 7.7999 3.432 9.6718 4.0559 13.104 0.624 3.4319 0 10.296-1.2479 7.1758-1.248-3.1199-1.872-4.9919-5.9279-7.7998-2.9234-2.0249-8.1119 0-13.104-0.936s-7.4879-2.8079-9.3598-4.9919c-1.872-2.184-2.496-4.6799-5.6159-6.5519z" fill="#D8D8D8"/>
<path d="m61.339 36.126c-1.248-3.12-2.496-6.2399-4.992-3.744-2.4959 2.496 1.9188 11.928 4.368 10.296 1.8719-1.248 0.624-6.5519 0.624-6.5519z" fill="#A08F73"/>
<path d="m149.01 234.24c-1.345 7.69-6.864 27.455-4.056 31.199s-5.616 5.616-8.424 4.992-0.222-9.313-0.936-13.416c-1.248-7.176-2.808-22.151-4.368-29.327s19.968-5.928 17.784 6.552z" fill="#AFA085"/>
<path d="m129.26 234.2c-1.098 7.884-5.984 28.223-3.058 31.955 2.927 3.731-5.434 5.906-8.264 5.353-2.83-0.552-0.518-9.494-1.364-13.656-1.475-7.282-3.513-22.51-5.304-29.779-1.79-7.27 19.771-6.671 17.99 6.127z" fill="#AFA085"/>
<path d="m76.003 44.238c0.317 0.6178 0.5881 1.2581 0.8112 1.9156 0.2148 0.6607 0.3847 1.3351 0.5086 2.0186 0.1242 0.685 0.1941 1.3788 0.209 2.0748 0.0209 0.6967-0.0272 1.3938-0.1435 2.081-0.0637 0.3446-0.1544 0.6837-0.2715 1.014-0.0655 0.1653-0.1279 0.3307-0.1778 0.4867-0.0572 0.1583-0.096 0.3227-0.1154 0.4898-0.1061 0.6739 0.0655 1.3572 0.1903 2.0342 0.1796 0.6777 0.2167 1.3852 0.1092 2.0779-0.1702 0.6823-0.5647 1.2877-1.1201 1.7191 0.5327-0.445 0.9008-1.0558 1.0452-1.7347 0.0905-0.6822 0.0395-1.3757-0.1497-2.0373-0.0749-0.337-0.1529-0.677-0.1997-1.0233-0.0281-0.1716-0.0312-0.3495-0.0468-0.5242-0.0032-0.1772 0.0062-0.3545 0.0281-0.5304 0.0219-0.1765 0.0627-0.3501 0.1216-0.5179 0.0562-0.1716 0.1155-0.3307 0.1748-0.4898 0.1118-0.3233 0.1974-0.6551 0.2558-0.9922 0.22-1.3616 0.2105-2.7504-0.0281-4.1089-0.2158-1.3669-0.6201-2.6972-1.2012-3.953z" fill="#A08F73"/>
<path d="m85.051 30.822c-0.1441 1.2007-0.2046 2.41-0.181 3.6192 0.0156 1.2043 0.0749 2.4086 0.1904 3.6066 0.1154 1.1981 0.262 2.3961 0.4555 3.5848 0.1952 1.194 0.4566 2.3762 0.7831 3.5412-0.5579-1.0873-0.9772-2.2403-1.248-3.432-0.291-1.1917-0.4923-2.4035-0.6021-3.6253-0.1082-1.2222-0.1259-2.4506-0.0531-3.6753 0.0521-1.2307 0.2726-2.4484 0.6552-3.6192z" fill="#A08F73"/>
<path d="m77.875 24.894c0.4043 0.0418 0.8124 0.0302 1.2137-0.0343 0.4024-0.053 0.8018-0.1341 1.2043-0.2028 0.8235-0.1622 1.6701-0.1686 2.4959-0.0187 0.4181 0.0936 0.7894 0.2122 1.1825 0.2621 0.3939 0.0452 0.7917 0.0452 1.1855 0 0.3994-0.0406 0.7956-0.1311 1.2043-0.1966 0.2063-0.0328 0.4156-0.0422 0.624-0.0281 0.2075 0.0201 0.4058 0.0955 0.5741 0.2184-0.1786-0.0914-0.3765-0.1385-0.5772-0.1372-0.2003 0.0121-0.3989 0.0445-0.5928 0.0967-0.3931 0.0936-0.7862 0.2153-1.198 0.2839-0.4116 0.0744-0.8314 0.0933-1.248 0.0562-0.4075-0.0627-0.8115-0.146-1.2105-0.2496-0.789-0.1432-1.5957-0.16-2.3899-0.05-0.4025 0.0406-0.8081 0.0936-1.223 0.1155-0.4185 0.0277-0.8387-0.0113-1.2449-0.1155z" fill="#A08F73"/>
<path d="m86.299 72.851c0.936 5.3944-0.936 11.01-3.7439 13.194-2.808 2.1839-18.72-9.9839-19.968-14.04-1.248-4.0559-2.808-1.872-4.056 0-1.2479 1.872 10.608 53.975 30.264 53.663 19.655-0.312 7.1759-24.96 8.1118-28.08 0.936-3.1199-3.1199-16.848-3.7439-18.408-0.624-1.56-4.9825-4.5551-6.8639-6.3304z" fill="#8DCB9E"/>
<path d="m129.35 100.08c0.936-5.3039 0.312-9.3598-0.936-11.856-0.893-1.7877-1.248-7.4878 0.936-8.1118s3.12-2.184 7.176 0 8.846 4.6986 9.47 6.8826c0 2.5-0.146 3.972-1.5 6s-2.44 2.44-4 4-1.474 3.709-1.786 7.453c-0.238 2.873-9.36-4.368-9.36-4.368z" fill="#AFA085"/>
<path d="m132.79 83.549c0-4.68-0.213-18.171 1.248-18.72 2.496-0.936 1.465 4.6703 1.965 11.67-0.312 6.5519 1.936 8.6878 1 8.9998s-4.213-1.9504-4.213-1.9504z" fill="#AFA085"/>
<path d="m135.5 83c3-4.5 3.213-18.17 4.773-18.794 1.56-0.6239 1.248 3.12 0.936 6.8639-0.312 3.744-1.709 11.43-0.936 14.976 1.56 2.4959-4.773-3.0454-4.773-3.0454z" fill="#AFA085"/>
<path d="m129.42 88.229c2.474-0.1965 1.673-0.4586 2.496-1.248 0.824-0.7893 9.36 0.936 3.744-2.4959-4.733-2.8922-6.58-4.7455-7.8-3.432-1.647 1.7784-0.911 7.3725 1.56 7.1759z" fill="#AFA085"/>
<path d="m140 84c0.705-2.0498 0.274-3.4856 3-2.0002 1.597 0.8705-0.748 4.0002 0.5 4.0002 0 0 0.5-3 2-1.5s0.372 4.5-1.5 4.5-4.624-3.1842-4-5z" fill="#AFA085"/>
<path d="m58.532 72.006c2.184 5.9279 9.6719 12.48 13.728 25.584 4.0559 13.104 18.096 17.16 19.968 17.472 1.872 0.312 0.624-11.544 1.248-19.344 0.624-7.7998-4.0559-19.344-7.1759-22.776-3.1199-3.4319 9.7748 5.7875 13.728 8.4239 4.68 3.1199 8.792 18.096 10.92 22.775 1.56 3.432 6.864 11.544 8.112 13.416s6.552-15.912 9.048-20.904c2.808 0.936 8.111 3.4316 12.167 4.0556-0.624 5.304-2.808 19.032-4.368 26.832s-6.973 14.86-9.983 14.04c-10.296-2.808-12.411-3.364-17.004-7.956-1.872-1.872-3.276-2.34-5.148 8.58-0.661 3.862 4.368 7.175-8.1118 9.359-23.122 4.056-38.375-4.367-37.127-20.903 1.248-16.536-2.056-48.291-3.1199-51.479-0.936-2.8079 1.248-6.5519 3.1199-7.1758z" fill="#41A95E"/>
<path d="m101.27 104.76c0.527 1.531 1.164 3.023 1.906 4.462 0.721 1.45 1.498 2.873 2.225 4.321 0.744 1.449 1.377 2.951 1.894 4.496l0.181 0.583c0.066 0.193 0.121 0.39 0.165 0.59 0.091 0.396 0.19 0.792 0.278 1.192l0.187 1.21c0.062 0.403 0.062 0.814 0.097 1.223 0.076 1.636-0.086 3.275-0.481 4.864-0.411 1.605-1.294 3.05-2.536 4.146-0.31 0.272-0.638 0.521-0.983 0.746-0.175 0.106-0.356 0.203-0.534 0.312l-0.268 0.153-0.281 0.125-0.561 0.249c-0.191 0.072-0.384 0.135-0.578 0.2-0.384 0.134-0.776 0.247-1.173 0.337-1.5893 0.347-3.2156 0.495-4.8418 0.443 1.6194-7e-3 3.2321-0.206 4.8048-0.593 0.391-0.097 0.776-0.215 1.154-0.352 0.188-0.069 0.378-0.134 0.565-0.209l0.546-0.253 0.271-0.128 0.259-0.153c0.172-0.103 0.35-0.199 0.518-0.312 0.329-0.223 0.642-0.47 0.936-0.736 0.596-0.531 1.104-1.152 1.507-1.841l0.29-0.524c0.088-0.178 0.156-0.365 0.237-0.549 0.153-0.368 0.282-0.745 0.387-1.13 0.378-1.562 0.528-3.171 0.443-4.776-0.031-0.4-0.028-0.802-0.087-1.198l-0.178-1.192c-0.081-0.393-0.178-0.786-0.265-1.176-0.042-0.198-0.096-0.392-0.159-0.584l-0.178-0.577c-0.509-1.531-1.122-3.026-1.834-4.474-0.702-1.457-1.457-2.892-2.15-4.368-0.703-1.461-1.292-2.975-1.763-4.527z" fill="#37934A"/>
<path d="m103.77 142.2c6.552 7.488 30.704 21.936 38.376 27.767 7.799 5.928 12.167 21.528 14.039 33.384s5.304 35.879 0 40.247-15.599-4.056-38.999-1.248c-23.4 2.808-11.856 4.056-18.096-21.528-6.2399-25.583-18.408-30.263-30.888-40.559-12.48-10.296-5.3039-38.375-1.5599-39.623 3.7439-1.248 28.08 5.928 37.127 1.56z" fill="#2E6837"/>
<path d="m116.88 136.28c1.871-3.744 4.367-4.368 6.239-5.928 1.56 2.184 1.872 5.928 1.56 9.359-2.496 0.624-7.799-3.431-7.799-3.431z" fill="#C19756"/>
<path d="m112.32 135.96c-1.872-3.744-4.368-4.368-6.24-5.928-1.56 2.184-1.872 5.928-1.56 9.359 2.496 0.624 7.8-3.431 7.8-3.431z" fill="#C19756"/>
<path d="m105.64 136.9c2.945-1.872 9.984-1.872 13.416-0.624s5.927 2.496 5.615 5.616-0.312 4.992-2.183 6.24c-1.872 1.248-6.864 3.431-8.736 3.431s-8.424-3.743-9.36-5.615-2.184-6.864 1.248-9.048z" fill="#C19756"/>
<path d="m118.12 147.51c-0.624 4.368 2.496 9.048 3.744 11.544s0.312 5.928 0 6.552-6.864 4.68-10.608 4.992-0.624-3.744 3.12-4.68 0.312-1.248-0.936-1.56-3.447 0.402-4.992 0.624c-2.184 0.312-4.056-0.624-0.936 2.496 1.81 1.809 3.12 6.24-2.184 1.248-3.591-3.379-8.7354-6.552-7.1755-10.296 0.5835-1.395 9.6375-5.195 10.296-8.736 0.256-1.363 0.122-3.744 1.248-3.744 4.056 0 8.424 1.56 8.424 1.56z" fill="#C19756"/>
<path d="m110.01 148.44c-1.248 2.496-8.736 2.808-14.664 1.56-5.9279-1.248-12.48-0.624-14.664 4.68-2.184 5.304-1.56 10.92 1.56 11.544 3.1199 0.624 12.48 5.304 15.288 3.12 2.8082-2.184-3.12-4.056-5.6159-4.992-2.496-0.936 15.6 4.68 18.096 0s0-15.912 0-15.912z" fill="#C19756"/>
<path d="m86.549 157.68c5.1541 2.577 9.2038 4.418 10.296 2.209s5.1795-2.209 7.3635-2.209 3.313-1.841 4.417-1.105c1.105 0.737-2.945 2.946-5.522 3.314s-2.945 1.472-0.736 1.472 6.258-0.368 7.731 0.737c1.473 1.104 2.1 0.592 4.546 2.496 2.446 1.903-4.546 2.28-10.436 3.744-5.8909 1.463-7.7317-0.74-10.677-1.108s-8.1119 0.368-9.572-1.104c-1.4601-1.473 2.5896-8.446 2.5896-8.446z" fill="#AFA085"/>
<path d="m58.532 72.006c-4.3679 2.8079-8.6423 6.3241-11.856 11.544-2.496 4.0559-6.8639 16.535-7.4879 33.383-0.4961 13.466-4.6799 18.72 0 26.832 4.6799 8.111 37.439 18.407 43.055 22.463s7.7998 5.928 8.4238 3.744 3.4319-10.608 2.808-11.856c-0.624-1.248-23.088-19.655-28.08-21.839-4.992-2.184 0.9359-29.016 0-34.944-0.936-5.9276-3.12-16.223-3.744-19.967s-3.1199-9.3598-3.1199-9.3598z" fill="#41A95E"/>
<path d="m134.35 265.76c2.63 0.44 8.736 1.56 10.608 0s2.184 3.12 8.424 6.552c6.24 3.431 12.792 4.679 15.288 6.239s4.056 3.12 0.312 4.992-12.168-0.624-20.28-0.624-10.92-0.312-14.352-0.936c-1.872-3.12-1.872-11.543 0-16.223z" fill="#1E1606"/>
<path d="m115.63 265.76c2.63 0.44 8.735 1.56 10.607 0s2.184 3.12 8.424 6.552c6.24 3.431 12.792 4.679 15.288 6.239s4.056 3.12 0.312 4.992-12.168-0.624-20.28-0.624c-8.111 0-10.919-0.312-14.351-0.936-1.872-3.12-1.872-11.543 0-16.223z" fill="#1E1606"/>
<path d="m4.8687 163.42c-2.5365 10.786-5.9279 86.735 3.1199 95.783 9.0478 9.047 81.119 19.967 89.854 20.279s10.608-35.879 10.296-50.855-1.56-29.951-4.68-35.879-96.094-39.936-98.59-29.328z" fill="#1C3D1F"/>
<path d="m8.9243 130.35c7.1759 0 30.887 5.928 44.615 13.103 13.728 7.176 46.8 25.584 49.92 29.952s5.616 27.767 2.184 30.575-33.384-3.432-47.112-11.231c-13.728-7.8-48.983-16.848-54.599-25.272-5.8561-8.783-5.9279-37.127 4.9919-37.127z" fill="#24512B"/>
</svg>
