<svg width="1231" height="666" viewBox="0 0 1231 666" fill="none" xmlns="http://www.w3.org/2000/svg">
<path d="M110.861 419.722C109.994 416.581 106.246 411.736 102.652 410.112C96.4458 407.309 89.2382 410.312 86.4352 413.516C83.7203 416.619 80.8292 419.522 80.8292 432.536C80.8292 445.55 73.4214 455.56 66.4139 460.966C59.4065 466.372 56.7817 477.838 57.7047 484.291C57.7827 484.835 58.6517 486.653 58.8939 486.821C58.7057 482.489 59.5666 481.268 60.1953 479.83C59.919 480.997 58.9059 484.091 59.4065 486.978C59.8151 486.968 60.22 486.897 60.6077 486.767C60.9121 481.288 62.5858 476.735 63.1885 475.511C62.6699 477.978 61.7129 481.488 61.4767 486.523C61.8276 486.43 62.185 486.363 62.5458 486.323C62.6359 483.134 63.1825 477.6 65.9174 473.667C68.6523 469.735 72.5244 466.46 76.7289 460.053C75.1272 463.857 72.9549 465.971 69.1208 471.265C65.4929 476.27 64.4018 480.687 64.5539 486.637C65.3317 486.945 66.1754 487.049 67.0045 486.938C67.1127 483.534 68.0937 477.928 69.8215 475.169C68.7789 478.906 68.3455 482.786 68.5382 486.661C68.7504 486.619 68.9586 486.581 69.1708 486.551C69.0647 484.847 69.2429 483.514 69.4211 482.977C69.2887 484.155 69.334 485.345 69.5553 486.509C70.1908 486.445 70.8323 486.539 71.4232 486.781C72.0889 487.105 72.7224 487.491 73.3152 487.935C73.3653 485.933 73.7377 482.809 75.1172 479.874C76.9191 476.07 79.2395 473.037 80.7231 470.664C79.636 473.379 77.9201 475.469 76.3184 478.673C74.7408 481.828 74.1722 485.816 74.1161 488.507C77.0692 490.63 81.2297 493.713 84.4351 492.988C86.4472 492.532 88.2912 492.952 89.9109 493.525C89.5405 490.285 91.5566 483.894 92.4115 482.589C91.915 485.228 90.7418 490.686 91.4685 494.125C92.6077 494.586 93.5988 494.99 94.4157 494.998C94.1554 492.742 94.1774 489.829 94.722 488.391C94.6079 489.472 94.3456 495.098 95.1404 494.896C97.7432 491.292 96.2816 491.761 96.648 486.99C97.0485 481.784 105.021 475.95 106.941 468.356C108.861 460.762 112.665 458.359 109.261 445.946C107.834 440.753 112.463 425.528 110.861 419.722Z" fill="#231403"/>
<path d="M69.1173 458.864C64.5124 462.668 61.3931 462.628 57.7052 464.47C53.3005 466.672 50.898 470.877 50.6978 473.079C53.3005 467.873 57.553 465.543 60.9086 464.87C63.9118 464.27 66.5146 463.469 68.1163 461.667C69.718 459.865 69.1173 458.864 69.1173 458.864Z" fill="#231403"/>
<path d="M62.5104 463.669C59.1068 465.271 55.7032 467.673 55.1025 469.875C56.1036 468.674 56.7042 467.873 58.5062 466.872C60.256 465.901 62.7106 465.471 65.1132 464.47C67.5157 463.469 62.5104 463.669 62.5104 463.669Z" fill="#231403"/>
<path d="M80.898 429.266C80.7298 434.037 78.7277 437.641 76.9258 439.443C79.3283 438.242 81.5046 433.911 81.3305 431.635C81.1302 429.032 80.898 429.266 80.898 429.266Z" fill="#231403"/>
<path d="M59.7069 470.677C57.905 472.879 56.1031 478.285 56.7038 481.288C56.904 478.685 57.5046 476.282 58.7059 474.28C60.5799 471.159 59.7069 470.677 59.7069 470.677Z" fill="#231403"/>
<path d="M106.857 445.75C107.057 451.356 108.659 456.761 114.465 455.961C118.649 455.384 113.063 465.771 110.46 467.973C107.858 470.176 94.3573 464.45 95.4445 462.768C96.5316 461.086 98.3476 457.863 98.8481 455.36C99.5809 451.694 97.2464 443.547 96.6458 442.346C96.0451 441.145 106.698 441.345 106.857 445.75Z" fill="#E2D0A8"/>
<path d="M97.1467 443.848C96.7463 442.646 107.924 446.364 107.358 448.252C106.757 450.254 108.559 452.056 107.758 453.258C107.109 454.231 101.351 452.257 98.1478 447.452C97.893 446.23 97.5586 445.026 97.1467 443.848Z" fill="#DBC9A5"/>
<path d="M98.8481 414.717C103.853 413.916 108.258 413.516 112.062 420.523C113.984 424.065 113.263 430.334 115.065 433.937C115.764 435.339 116.831 439.213 115.466 441.946C114.064 444.749 113.664 447.752 110.861 449.554C108.296 451.204 100.063 446.531 98.6479 445.55C96.0452 443.748 95.4445 439.343 94.2432 436.74C93.042 434.138 89.0377 429.533 90.6394 422.725C91.6245 418.541 95.0921 415.32 98.8481 414.717Z" fill="#E2D0A8"/>
<path d="M108.959 421.824C109.537 423.178 110.116 425.274 109.976 427.03H110.444C110.554 426.397 110.526 425.787 110.36 424.627C110.579 425.412 110.713 426.217 110.761 427.03C111.822 427.035 112.88 427.141 113.92 427.348C113.934 426.837 113.917 426.326 113.87 425.817C113.971 426.335 114.045 426.858 114.09 427.384C114.399 427.454 114.691 427.534 114.971 427.627C114.17 419.818 111.333 415.133 106.716 413.942C100.109 412.236 92.7216 415.343 90.299 421.404C88.5952 425.666 90.4151 430.746 92.5474 435.435C93.148 435.062 93.7286 434.666 94.2852 434.262C93.9048 432.34 93.6405 427.855 94.0269 426.972C93.8047 428.668 94.109 430.848 94.5014 433.439C94.5014 433.455 94.5655 433.727 94.6276 434.011C95.8629 433.092 97.0061 432.133 98.1313 431.244C98.1173 431.202 98.1033 431.16 98.0893 431.114C97.5787 429.466 97.6228 428.173 97.7529 427.426C97.7852 428.654 98.0046 429.869 98.4036 431.03C99.3341 430.282 100.319 429.605 101.351 429.004C100.95 426.541 101.151 423.546 101.449 421.596C101.399 422.635 101.537 426.706 101.969 428.678C102.482 428.421 103.013 428.205 103.559 428.031C105.397 427.483 107.295 427.16 109.211 427.068C109.525 425.749 109.151 422.593 108.959 421.824Z" fill="#231403"/>
<path d="M91.8411 435.339C90.2394 437.741 93.2426 440.544 95.0445 440.745C95.9455 440.845 96.2458 440.388 95.7453 439.643C94.9444 438.442 95.0085 437.371 94.3438 436.04C93.5429 434.438 92.1955 434.806 91.8411 435.339Z" fill="#DBC9A5"/>
<path d="M179.134 445.149C183.539 443.547 186.542 441.946 187.142 440.344C187.743 438.742 189.345 434.738 190.146 434.338C190.946 433.937 194.35 432.936 194.951 432.135C195.551 431.334 199.355 432.536 200.356 432.135C201.358 431.735 207.764 430.333 208.966 429.933C210.167 429.532 209.366 431.134 206.763 432.135C204.16 433.136 200.156 433.737 199.155 434.738C198.154 435.739 196.152 436.74 194.951 436.74C193.749 436.74 198.555 436.14 199.956 436.14C201.358 436.14 204.16 436.54 205.562 436.14C206.963 435.739 204.961 437.741 201.758 437.541C198.555 437.341 196.152 439.343 194.951 439.143C193.749 438.942 195.952 443.948 194.951 445.349C193.95 446.751 192.148 446.15 190.746 445.95C189.345 445.75 184.139 449.153 182.738 450.355C181.336 451.556 177.354 445.796 179.134 445.149Z" fill="#E2D0A8"/>
<path d="M193.549 441.746C194.911 442.136 196.152 443.147 197.354 442.947C198.555 442.747 201.48 442.304 202.559 441.345C204.361 439.744 205.538 440.745 202.359 443.347C200.156 445.149 197.133 445.55 196.152 445.75C194.15 446.15 192.949 446.351 190.746 445.95C189.051 445.64 192.148 441.345 193.549 441.746Z" fill="#E2D0A8"/>
<path d="M193.95 433.937C195.716 432.702 199.355 429.533 199.756 428.932C200.156 428.331 203.826 426.754 205.362 425.729C207.164 424.527 208.765 423.726 207.564 425.729C206.363 427.731 203.76 428.496 202.959 429.132C201.958 429.933 200.156 432.536 199.355 433.136C198.555 433.737 191.948 435.339 193.95 433.937Z" fill="#E2D0A8"/>
<path d="M53.4005 534.043C54.0011 537.047 49.8367 540.45 46.393 542.252C42.1886 544.454 45.392 541.652 47.5943 539.649C49.7966 537.647 45.1737 540.823 42.7892 542.252C38.7849 544.655 34.8167 543.812 35.982 543.453C38.5847 542.653 41.2696 541.011 42.7892 540.25C45.9926 538.648 39.9862 541.261 37.3835 541.652C34.162 542.136 30.5762 541.451 32.5783 540.851C35.4614 539.986 37.1832 540.45 39.9862 539.449C42.7892 538.448 46.1928 535.845 47.5943 534.844C48.9958 533.843 52.962 531.849 53.4005 534.043Z" fill="#DBC9A5"/>
<path d="M62.2098 526.636C60.54 528.193 57.0043 531.241 56.2034 533.843C55.4026 536.446 53.2002 542.453 50.9979 543.253C48.7955 544.054 50.7977 542.052 51.5985 540.05C52.3994 538.048 53.2002 537.447 53 536.246C52.7998 535.045 50.5975 535.045 49.196 535.645C45.9182 537.033 42.4922 538.041 38.9851 538.649C34.0479 539.471 30.1758 537.848 33.7796 537.447C37.3834 537.047 38.9851 536.246 41.3877 535.645C43.7902 535.045 47.5943 533.443 49.3962 532.042C51.1981 530.64 55.0021 529.839 57.0043 525.835C59.0064 521.831 65.213 523.833 62.2098 526.636Z" fill="#E2D0A8"/>
<path d="M118.67 611.526C116.952 615.818 112.864 623.338 114.465 627.743C116.067 632.148 118.069 635.551 119.671 637.353C121.273 639.155 117.669 639.756 115.266 638.354C112.864 636.953 105.456 633.75 104.855 630.746C104.254 627.743 106.745 627.449 107.658 623.338C108.459 619.735 111.062 608.322 111.062 607.722C111.062 607.121 119.871 608.523 118.67 611.526Z" fill="#E2D0A8"/>
<path d="M186.141 583.096C186.776 586.059 187.943 593.106 192.548 595.509C197.153 597.911 199.756 599.113 201.558 599.113C203.36 599.113 200.757 601.515 198.555 601.715C196.352 601.916 186.942 601.515 184.94 601.715C182.938 601.916 184.54 598.512 182.938 593.306C181.336 588.101 179.134 584.297 180.936 583.096C182.738 581.894 185.541 580.293 186.141 583.096Z" fill="#E2D0A8"/>
<path d="M105.656 464.169C105.856 464.97 107.758 467.873 108.559 468.674C109.069 469.185 104.455 467.773 104.455 466.772C104.455 465.771 105.656 464.169 105.656 464.169Z" fill="#8BC5CD"/>
<path d="M107.657 463.569C107.457 464.57 107.557 467.073 107.958 468.274C108.186 468.959 110.66 465.17 109.86 464.169C109.059 463.168 107.657 463.569 107.657 463.569Z" fill="#8BC5CD"/>
<path d="M113.264 455.76C115.466 455.56 117.068 455.16 117.869 454.359C118.67 453.558 120.071 463.969 122.874 468.574C125.395 472.714 129.681 478.785 124.075 483.39C124.276 485.592 126.278 489.196 125.677 497.405C125.323 502.236 127.679 501.809 129.481 504.813C131.283 507.816 121.587 514.022 110.261 514.022C108.058 514.022 109.66 508.817 108.659 506.815C107.658 504.813 96.9526 495.026 94.2437 484.191C93.6431 481.788 96.4461 474.781 87.6367 467.773C90.4397 464.77 94.8444 462.968 96.4461 460.966C97.8476 463.168 103.854 466.772 107.658 467.573C112.864 462.768 113.264 455.76 113.264 455.76Z" fill="#D8ECEE"/>
<path d="M88.7373 466.672C89.0141 466.918 89.2476 467.209 89.428 467.533C89.6282 467.845 89.8044 468.169 89.9806 468.494C90.325 469.148 90.6393 469.817 90.9416 470.496C91.5423 471.845 92.0648 473.229 92.5433 474.626C93.0201 476.027 93.4211 477.451 93.7446 478.895C94.0449 480.336 94.2852 481.82 94.145 483.299C94.169 482.563 94.1234 481.825 94.0089 481.097C93.9048 480.368 93.7626 479.648 93.5905 478.931C93.2501 477.499 92.8337 476.086 92.3571 474.694C91.8806 473.303 91.3701 471.919 90.8015 470.56C90.5192 469.881 90.2209 469.207 89.8965 468.546C89.7344 468.215 89.5702 467.885 89.386 467.567C89.2959 467.407 89.1978 467.25 89.0957 467.098C88.9975 466.94 88.8768 466.796 88.7373 466.672Z" fill="#B2D9DE"/>
<path d="M117.968 454.459C117.944 454.62 117.944 454.784 117.968 454.945C117.984 455.108 118.006 455.27 118.036 455.43C118.088 455.75 118.158 456.069 118.236 456.385C118.38 457.022 118.547 457.65 118.725 458.279C119.08 459.532 119.473 460.774 119.904 462.005C120.326 463.236 120.797 464.454 121.319 465.645C121.58 466.245 121.858 466.832 122.166 467.405C122.464 467.985 122.808 468.54 123.195 469.064C122.353 468.063 121.736 466.888 121.179 465.709C120.623 464.53 120.154 463.306 119.714 462.071C119.273 460.836 118.901 459.584 118.577 458.317C118.416 457.684 118.266 457.048 118.14 456.405C118.082 456.085 118.026 455.762 117.988 455.436C117.928 455.114 117.921 454.784 117.968 454.459Z" fill="#B2D9DE"/>
<path d="M107.557 467.551C108.758 471.077 112.262 476.983 114.064 480.787C115.748 484.343 116.316 490.932 116.767 493.901C117.267 497.204 118.969 505.513 120.371 507.115" stroke="#8BC5CD" stroke-width="0.200213" stroke-miterlimit="10"/>
<path d="M110.06 473.579C110.392 473.579 110.661 473.311 110.661 472.979C110.661 472.647 110.392 472.378 110.06 472.378C109.728 472.378 109.459 472.647 109.459 472.979C109.459 473.311 109.728 473.579 110.06 473.579Z" fill="#33858C"/>
<path d="M107.558 468.274C107.889 468.274 108.158 468.005 108.158 467.673C108.158 467.341 107.889 467.072 107.558 467.072C107.226 467.072 106.957 467.341 106.957 467.673C106.957 468.005 107.226 468.274 107.558 468.274Z" fill="#33858C"/>
<path d="M113.564 480.086C113.896 480.086 114.165 479.817 114.165 479.486C114.165 479.154 113.896 478.885 113.564 478.885C113.232 478.885 112.963 479.154 112.963 479.486C112.963 479.817 113.232 480.086 113.564 480.086Z" fill="#33858C"/>
<path d="M115.826 487.694C116.158 487.694 116.427 487.425 116.427 487.094C116.427 486.762 116.158 486.493 115.826 486.493C115.495 486.493 115.226 486.762 115.226 487.094C115.226 487.425 115.495 487.694 115.826 487.694Z" fill="#33858C"/>
<path d="M116.888 495.102C117.219 495.102 117.488 494.833 117.488 494.502C117.488 494.17 117.219 493.901 116.888 493.901C116.556 493.901 116.287 494.17 116.287 494.502C116.287 494.833 116.556 495.102 116.888 495.102Z" fill="#33858C"/>
<path d="M118.569 502.71C118.901 502.71 119.17 502.441 119.17 502.11C119.17 501.778 118.901 501.509 118.569 501.509C118.237 501.509 117.968 501.778 117.968 502.11C117.968 502.441 118.237 502.71 118.569 502.71Z" fill="#33858C"/>
<path d="M118.069 454.359C120.571 453.644 124.876 454.159 129.881 454.359C134.886 454.559 149.702 453.358 152.305 452.757C154.908 452.157 177.332 445.95 180.134 444.148C182.937 442.346 184.94 448.553 185.14 449.153C185.34 449.754 173.327 455.56 169.723 457.763C166.12 459.965 156.309 463.769 147.9 464.57C139.491 465.371 123.274 466.972 122.473 469.375C122.067 470.592 116.667 454.759 118.069 454.359Z" fill="#D8ECEE"/>
<path d="M177.532 443.547C178.555 445.085 180.935 449.954 181.736 452.557C183.738 451.356 185.34 449.754 186.341 448.753C186.341 447.952 183.538 443.147 182.937 441.745C181.736 442.546 179.534 442.947 177.532 443.547Z" fill="#B2D9DE"/>
<path d="M88.2376 467.173C86.3976 468.73 83.0321 471.377 82.2312 474.18C81.4304 476.983 74.0225 496.404 73.4219 499.007C72.8212 501.609 68.4165 506.014 66.2142 509.618C64.0119 513.222 58.2057 523.232 56.8042 524.233C55.4027 525.234 61.2089 527.837 61.2089 528.438C61.2089 529.038 70.9172 517.919 73.0214 516.025C77.0257 512.421 79.6285 506.615 80.6295 504.012C81.6306 501.409 88.2376 488.595 90.2397 486.593C92.2419 484.591 94.5003 483.562 94.8446 482.189C95.4453 479.786 94.4442 470.777 88.2376 467.173Z" fill="#D8ECEE"/>
<path d="M57.2048 521.43C58.7104 522.75 62.4103 526.035 64.012 527.036C62.4103 528.237 61.4092 529.239 60.208 530.039C59.0067 529.439 55.3488 525.835 55.0024 525.635C55.6031 524.834 56.2137 523.322 57.2048 521.43Z" fill="#B2D9DE"/>
<path d="M105.655 464.169C105.655 466.772 106.456 468.374 107.056 469.976C103.252 469.175 96.2448 465.571 93.8423 462.368C94.6431 461.767 95.6442 460.566 96.6453 458.563C98.8476 459.965 102.051 463.168 105.655 464.169Z" fill="#B2D9DE"/>
<path d="M107.658 463.368C109.684 461.004 111.862 456.561 112.062 455.56C113.264 455.56 115.466 455.16 116.467 454.759C116.367 459.264 112.363 465.27 110.361 469.475C108.959 467.673 108.058 464.57 107.658 463.368Z" fill="#B2D9DE"/>
<path d="M127.879 502.21C130.682 504.412 138.29 512.02 144.096 515.824C149.338 519.26 160.714 527.436 165.519 532.041C170.324 536.646 175.329 550.369 178.333 555.666C181.736 561.673 187.743 569.081 186.141 573.686C185.056 576.805 185.74 580.893 187.142 582.495C188.543 584.097 187.542 587.901 185.74 589.302C183.939 590.704 182.537 594.307 181.536 591.705C180.535 589.102 180.335 585.498 178.132 584.897C175.93 584.297 172.126 580.693 172.526 578.29C172.927 575.888 168.722 568.88 167.321 567.079C165.919 565.277 159.611 552.159 158.912 550.06C157.31 545.255 138.891 543.453 129.681 530.039C121.098 517.538 121.873 519.828 121.873 517.626C121.873 516.363 118.669 509.618 119.27 507.615C124.075 507.215 126.463 501.098 127.879 502.21Z" fill="#33858C"/>
<path d="M129.681 523.432C130.082 530.64 132.628 557.554 133.686 560.271C136.489 567.479 132.612 569.882 133.285 575.487C133.886 580.493 130.282 583.296 128.68 587.1C127.079 590.904 128.68 592.105 128.68 593.507C128.68 594.908 127.679 595.909 126.278 597.11C124.876 598.312 127.479 600.714 126.278 602.716C125.076 604.719 127.107 605.621 125.877 607.522C123.675 610.925 120.472 611.215 118.67 615.13C117.468 617.732 116.467 619.735 115.666 621.737C113.264 621.336 108.859 619.334 107.658 618.934C108.459 614.929 109.86 612.727 109.059 610.725C107.616 607.121 110.579 604.39 108.459 601.916C106.056 599.113 111.462 597.711 111.462 594.508C111.462 591.304 111.614 581.694 113.664 579.892C116.868 577.089 119.471 567.279 118.67 564.676C117.869 562.073 101.852 535.645 107.258 515.824C108.09 512.771 107.658 509.017 110.461 509.017C112.213 509.017 118.67 507.615 121.673 507.215C122.674 510.218 125.801 513.197 126.478 515.223C128.28 520.629 129.681 523.432 129.681 523.432Z" fill="#33858C"/>
<path d="M130.183 530.941C129.182 528.338 128.981 526.536 129.182 525.134L130.183 530.941Z" fill="#2D6D72"/>
<path d="M125.948 566.568C128.649 565.141 130.635 565.471 132.541 567.001L125.948 566.568Z" fill="#2D6D72"/>
<path d="M164.797 541.854C164.573 538.731 165.754 537.099 168.066 536.112L164.797 541.854Z" fill="#2D6D72"/>
<path d="M108.459 509.017C111.062 508.817 119.871 508.112 122.674 506.014C125.077 504.212 126.078 503.211 127.679 502.01C128.28 502.61 129.081 503.011 129.682 503.812C128.881 505.413 124.076 509.017 120.472 510.018C116.868 511.019 109.26 511.82 108.059 511.219C108.059 511.219 108.059 509.217 108.459 509.017Z" fill="#49351D"/>
<path d="M192.749 602.516C193.55 603.517 193.95 605.72 194.551 606.12C195.151 606.521 187.543 608.322 186.943 608.923C186.877 608.991 184.74 605.319 184.54 604.318C184.34 603.317 192.749 602.516 192.749 602.516Z" fill="#3F2A14"/>
<path d="M182.938 597.911C185.571 597.911 193.95 596.51 194.35 595.709C194.751 594.908 198.955 598.112 200.557 597.911C202.158 597.711 206.763 597.311 208.365 596.71C209.967 596.109 211.568 597.111 212.77 597.511C213.739 597.835 210.167 599.313 207.164 600.915C203.978 602.614 201.157 603.718 199.556 603.517C197.954 603.317 196.152 603.117 193.549 603.517C190.946 603.918 186.342 606.12 185.341 606.12C184.339 606.12 181.336 601.715 182.938 597.911Z" fill="#49351D"/>
<path d="M112.463 635.351C112.263 636.753 111.462 638.555 111.062 640.156C110.862 640.933 102.653 637.153 102.252 636.552C101.852 635.952 102.831 631.689 103.244 631.017C103.656 630.344 112.463 635.351 112.463 635.351Z" fill="#3F2A14"/>
<path d="M106.056 625.341C108.216 627.193 111.978 629.787 115.266 628.144C116.067 627.743 118.269 634.15 119.27 635.551C120.271 636.953 126.277 642.559 127.279 643.56C128.28 644.561 128.079 645.162 128.28 646.163C128.48 647.164 121.472 643.76 120.071 643.56C118.669 643.36 116.267 642.559 115.466 641.558C113.864 639.556 113.664 638.955 110.461 637.153C108.192 635.878 102.652 633.75 102.652 632.548C102.652 630.346 104.454 626.942 106.056 625.341Z" fill="#49351D"/>
<path d="M110.561 603.618C110.478 604.138 110.292 604.636 110.014 605.083C109.735 605.53 109.37 605.917 108.939 606.22C109.111 605.636 109.185 605.027 109.159 604.418C109.159 603.251 110.561 603.618 110.561 603.618Z" fill="url(#paint0_linear)"/>
<path d="M113.76 593.467C113.36 594.756 112.269 595.561 110.981 596.127C111.354 595.277 111.462 595.06 111.524 594.185C111.616 592.912 113.76 593.467 113.76 593.467Z" fill="url(#paint1_linear)"/>
<path d="M110.361 615.03C110.161 616.231 109.34 616.832 108.539 617.432C108.711 616.848 108.785 616.239 108.759 615.63C108.759 614.463 110.361 615.03 110.361 615.03Z" fill="url(#paint2_linear)"/>
<path d="M185.84 579.392C185.239 580.793 180.635 584.998 179.834 586.399C177.231 583.396 185.039 578.992 185.44 578.191C186.375 576.323 185.84 579.392 185.84 579.392Z" fill="url(#paint3_linear)"/>
<path d="M183.737 603.718C183.137 604.719 181.335 603.852 181.335 606.121C181.335 607.736 179.933 603.518 180.334 602.717C180.734 601.916 181.335 601.516 182.136 600.915C183.503 599.89 183.737 603.718 183.737 603.718Z" fill="#B276A3"/>
<path d="M186.541 573.486C185.54 574.287 178.532 582.896 175.93 583.697C176.33 585.298 177.932 586.5 178.132 586.9C178.332 587.3 185.74 579.292 186.341 578.691C186.941 578.091 186.541 573.486 186.541 573.486Z" fill="#C985B5"/>
<path d="M187.743 584.497C186.942 586.299 181.136 590.704 180.735 591.104C180.335 591.505 180.936 593.907 182.537 593.307C184.139 592.706 188.343 588.502 188.343 587.501C188.343 586.5 187.743 584.497 187.743 584.497Z" fill="#C985B5"/>
<path d="M189.344 592.105C189.883 592.89 190.561 593.569 191.347 594.107C192.147 594.708 186.742 601.716 183.338 604.519C182.137 602.917 182.137 600.915 182.137 600.915C182.137 600.915 188.944 592.906 189.344 592.105Z" fill="#C985B5"/>
<path d="M182.236 601.015C183.324 599.774 179.233 602.016 179.433 603.818C179.544 604.819 181.335 613.528 175.93 618.333C173.439 620.548 159.801 632.08 158.651 634.05C158.051 644.862 148.709 644.832 146.598 652.069C145.197 656.874 149.602 659.878 151.203 665.283C151.804 667.298 151.147 676.197 153.206 672.491C156.209 667.085 151.57 659.365 150.002 655.873C146.701 648.52 160.413 645.262 161.014 636.653C161.18 634.25 161.614 632.849 163.717 630.947C165.529 629.307 173.127 621.937 174.128 620.936C175.129 619.935 176.182 619.026 178.933 616.732C181.335 614.73 182.537 611.326 182.136 606.521C181.836 602.931 180.835 602.617 182.236 601.015Z" fill="#C985B5"/>
<path d="M181.335 613.528C177.331 617.733 174.16 620.606 170.624 622.237C168.021 623.439 163.921 626.158 162.015 628.444C160.013 630.847 159.012 632.048 158.611 634.25C160.013 631.848 161.414 633.049 163.617 631.047C168.121 626.952 173.027 625.441 176.731 621.337C178.058 619.865 181.135 615.33 181.335 613.528Z" fill="#B276A3"/>
<path d="M129.681 586.099C125.076 589.102 117.268 590.303 111.062 591.505C111.062 593.106 111.218 593.545 111.062 595.109C112.063 594.908 127.879 591.905 128.28 591.305C127.879 589.903 128.28 588.101 129.681 586.099Z" fill="#C985B5"/>
<path d="M126.277 597.111C126.107 597.86 126.077 599.313 126.678 600.314C126.477 601.315 109.66 605.52 108.859 605.319C108.859 604.118 109.259 603.518 108.859 602.917C108.304 602.084 118.669 600.114 126.277 597.111Z" fill="#C985B5"/>
<path d="M122.674 611.326C122.039 611.672 120.272 612.928 119.271 614.729C117.869 615.13 108.059 616.932 107.858 616.331C108.659 615.13 108.459 613.929 108.859 613.328C109.26 612.727 124.876 610.125 122.674 611.326Z" fill="#C985B5"/>
<path d="M108.859 613.328C106.456 614.529 107.457 618.534 104.855 620.335C102.252 622.137 92.6416 627.543 80.2284 630.747C67.8152 633.95 54.6012 639.756 50.3967 647.765C46.1923 655.773 54.2008 645.963 56.4031 644.561C58.6055 643.16 67.637 637.678 74.6225 636.352C86.2348 634.15 95.3645 630.252 99.4489 627.944C104.054 625.341 108.859 622.538 108.859 615.731V613.328Z" fill="#C985B5"/>
<path d="M60.6079 642.159C55.2021 644.561 54.0109 643.574 51.9987 645.362C46.593 650.167 43.1894 657.175 42.5887 665.383C41.9881 673.592 42.1883 676.795 37.9838 680.399C33.7794 684.003 41.9561 681.855 44.1904 674.593C45.7921 669.388 45.1475 663.706 46.9934 657.775C49.7964 648.766 53.2 649.166 60.6079 642.159Z" fill="#B276A3"/>
<path d="M107.257 513.622C103.854 517.026 101.051 524.434 100.25 529.839C99.4592 535.173 100.05 543.872 100.05 540.451C100.05 537.247 100.939 534.126 101.651 531.041C102.252 528.438 103.654 525.034 106.857 520.429C108.965 517.4 107.257 513.622 107.257 513.622Z" fill="#B276A3"/>
<path d="M105.055 516.425C103.253 520.83 99.4486 531.041 100.45 540.451C101.238 547.858 102.852 563.475 93.8426 573.486C84.8331 583.496 67.9231 596.282 64.0109 601.115C60.6073 605.319 56.8033 613.328 56.6031 619.134C56.4028 624.94 53.3997 612.527 58.6052 603.317C63.8107 594.108 75.0226 585.098 79.4273 581.494C83.832 577.89 97.5386 566.016 96.2452 552.864C95.0439 540.651 95.6606 532.842 98.4475 526.636C101.05 520.83 105.055 516.425 105.055 516.425Z" fill="#C985B5"/>
<path d="M62.8097 602.517C60.6074 610.125 58.6053 616.331 60.6074 627.743C62.6095 639.156 72.0195 652.37 67.0142 665.584C62.0089 678.798 48.7948 679.999 44.9908 688.007C41.1867 696.016 42.9887 684.404 44.1899 682.201C45.3912 679.999 61.208 672.791 62.8097 666.585C64.4114 660.378 65.2123 649.967 60.6074 639.756C56.0025 629.545 52.9993 615.53 56.4029 608.923C57.9642 606.282 60.1681 604.078 62.8097 602.517Z" fill="#B276A3"/>
<path d="M126.078 497.405C125.83 498.396 126.478 500.408 127.479 501.609C128.48 502.81 115.066 516.225 105.856 521.63C106.057 517.426 107.058 514.623 107.258 513.622C107.458 512.621 116.71 507.025 119.671 504.412C123.075 501.409 126.478 495.803 126.078 497.405Z" fill="#C985B5"/>
<path d="M107.448 430.724C107.604 431.451 107.77 432.159 107.958 432.86C108.146 433.561 108.359 434.262 108.587 434.942C108.815 435.623 109.059 436.308 109.33 436.978C109.602 437.656 109.916 438.316 110.271 438.955C109.718 438.446 109.257 437.847 108.907 437.183C108.545 436.529 108.247 435.841 108.016 435.13C107.781 434.422 107.609 433.693 107.502 432.954C107.385 432.216 107.367 431.466 107.448 430.724Z" fill="#CCB793"/>
<path d="M375.097 139.613C354.403 145.476 337.524 130.011 340.864 120.409C344.204 110.807 361.529 106.215 378.437 107.05C395.345 107.885 393.049 92.6467 405.156 90.3506C417.262 88.0544 428.326 86.3845 438.971 105.797C449.617 125.21 464.437 113.312 474.248 121.035C484.059 128.759 495.957 144.831 456.297 145.458C416.636 146.084 387.621 136.064 375.097 139.613Z" fill="white"/>
<path d="M788.862 105.237C840.598 102.774 883.898 110.355 895.229 99.3889C906.56 88.4233 921.368 69.6792 951.154 74.8989C986.61 81.1128 996.845 104.506 1019.51 105.237C1051.1 106.257 1062.21 93.2628 1090.78 97.1958C1130.63 102.679 1129.16 119.858 1154.39 119.493C1179.61 119.127 1270.62 137.769 1209.21 152.024C1147.81 166.28 1117.83 148.004 1090.78 152.024C1063.74 156.045 1046.92 168.107 973.817 162.259C900.712 156.411 914.968 140.693 864.891 142.155C814.814 143.617 799.097 143.617 778.262 135.21C757.427 126.803 758.158 106.699 788.862 105.237Z" fill="white"/>
<path d="M331.634 296.792C293.241 291.54 277.549 289.73 265.211 282.381C248.755 272.578 235.451 257.688 212.844 261.658C185.956 266.381 176.615 285.277 159.666 284.877C136.037 284.317 128.702 270.04 107.107 272.711C76.997 276.436 76.836 294.635 58.0559 292.944C39.2759 291.253 -29.9449 306.217 14.796 324.43C59.5369 342.643 83.2255 324.909 103.098 330.536C122.97 336.162 134.629 349.767 189.576 347.376C244.523 344.985 235.031 327.668 272.262 331.796C309.493 335.924 321.211 336.74 337.362 328.946C353.513 321.153 354.419 299.922 331.634 296.792Z" fill="white"/>
<path d="M753.814 428.468C733.232 440.046 750.276 470.919 788.546 459.02C826.816 447.121 826.057 468.266 843.861 461.271C861.87 454.196 851.901 425.895 824.886 428.468C797.872 431.041 803.661 404.027 780.506 409.816C757.351 415.604 771.473 418.534 753.814 428.468Z" fill="white"/>
<path d="M974.391 23.3986C974.651 26.9095 974.265 28.4249 976.527 31.4406C978.187 33.6547 976.713 34.8233 975.828 36.771C975.396 37.7235 974.166 41.0722 972.632 40.6136C969.627 39.7164 964.841 33.4901 965.469 32.9485C967.228 31.4406 967.857 29.8071 968.108 27.5453C968.367 25.2118 966.956 21.7651 966.551 21.03C966.147 20.2949 974.186 20.6392 974.391 23.3986Z" fill="#E2D0A8"/>
<path d="M966.899 21.9598C966.619 21.2159 974.952 23.7089 974.641 24.9064C974.312 26.1768 974.641 26.54 974.66 27.7324C974.671 28.465 969.864 27.2587 967.739 24.3221C967.445 23.2013 967.18 22.7037 966.899 21.9598Z" fill="#DBC9A5"/>
<path d="M966.361 5.07283C969.37 4.04119 972.05 3.32244 975.156 7.24795C976.723 9.23207 976.95 13.1865 978.45 15.2221C979.032 16.0125 979.714 18.2203 979.554 20.1315C979.419 21.765 979.544 24.2782 978.288 25.1578C976.72 26.256 969.641 24.3649 968.661 23.91C966.858 23.0744 966.015 20.4155 964.993 18.934C963.972 17.4525 961.882 15.29 962.144 10.9046C962.302 8.21173 964.101 5.84688 966.361 5.07283Z" fill="#E2D0A8"/>
<path d="M963.036 17.7377C962.174 19.6867 964.586 21.4723 965.926 21.3918C966.594 21.3504 966.501 20.8553 966.046 20.3765C965.312 19.6037 965.475 18.8159 964.823 17.9313C964.035 16.8682 963.228 17.3042 963.036 17.7377Z" fill="#DBC9A5"/>
<path d="M964.338 15.6079C964.563 16.0577 964.715 16.7388 963.961 17.1158C963.207 17.4927 962.202 17.8697 962.076 16.8644C961.95 15.8592 961.699 17.1158 960.945 15.6079C960.191 14.1 958.935 14.477 959.437 13.3461C959.94 12.2152 959.563 11.8382 959.06 11.3356C958.558 10.8329 958.432 8.94808 959.06 8.94808C959.688 8.94808 958.181 7.81718 958.935 7.06324C959.688 6.3093 960.945 6.05799 960.694 5.17839C960.442 4.29879 961.322 3.29354 961.699 3.54485C962.076 3.79617 961.322 1.40869 962.327 1.15738C963.332 0.906067 964.338 0.906067 964.463 1.40869C964.589 1.91132 965.092 0.403441 965.594 0.529098C966.097 0.654754 967.102 0.403441 967.479 0.906067C967.856 1.40869 967.73 -0.224842 968.861 0.0264716C969.992 0.277785 970.872 -0.099185 970.872 1.15738C970.872 2.41395 972.254 1.03172 973.008 1.40869C973.762 1.78566 973.636 2.66526 974.265 2.41395C974.893 2.16263 976.149 2.66526 976.024 3.29354C975.898 3.92182 975.019 4.55011 975.521 4.80142C976.024 5.05273 977.28 6.05799 977.155 6.68627C977.029 7.31455 977.28 7.94283 977.783 8.06849C978.286 8.19415 976.778 8.19415 976.401 7.31455C976.024 6.43495 976.526 6.93758 976.024 7.31455C975.521 7.69152 976.778 8.94808 976.024 8.69677C975.309 8.45802 975.521 7.56586 974.516 7.18889C973.511 6.81192 973.636 7.45152 972.757 7.69152C971.374 8.06849 971.751 7.31455 970.495 7.94283C969.741 8.3198 970.495 9.07374 969.364 9.1994C968.806 9.26097 966.725 9.23584 966.725 10.079C966.725 10.8329 966.097 11.5869 965.217 11.8382C964.482 12.048 964.966 13.0948 964.715 13.5974C964.463 14.1 963.961 14.8539 964.338 15.6079Z" fill="#3F2A14"/>
<path d="M973.393 14.0497C973.567 14.4832 973.746 14.9029 973.937 15.3176C974.128 15.7322 974.334 16.1368 974.547 16.5364C974.761 16.936 974.987 17.3306 975.226 17.7176C975.467 18.1071 975.732 18.4814 976.019 18.8385C975.623 18.5827 975.275 18.2614 974.987 17.8885C974.693 17.5225 974.435 17.129 974.216 16.7136C973.994 16.3011 973.809 15.8697 973.664 15.4244C973.512 14.9804 973.421 14.518 973.393 14.0497Z" fill="#CCB793"/>
<path d="M973.7 36.5298C973.047 38.2108 972.501 39.9316 972.066 41.6817C971.564 43.6922 965.281 67.0643 963.898 69.4518C962.516 71.8392 960.254 73.3471 962.893 74.3524C965.532 75.3576 968.799 76.9912 970.935 75.4833C973.071 73.9754 978.852 60.4045 978.977 56.2578C979.103 52.1112 980.611 37.535 980.234 35.7758C979.857 34.0166 975.082 32.8857 973.7 36.5298Z" fill="#8BC5CD"/>
<path d="M970.935 35.7758C972.191 36.781 972.945 37.6606 972.945 42.4356C972.945 45.9627 966.034 72.9701 964.778 74.2267C963.521 75.4832 957.992 71.8392 957.615 71.3366C957.238 70.8339 965.406 47.9645 965.657 43.5665C965.909 39.1685 969.963 34.9992 970.935 35.7758Z" fill="#8BC5CD"/>
<path d="M972.756 39.1057C972.631 42.3728 971.5 56.0693 970.997 57.7029C970.495 59.3364 967.479 75.0435 966.851 76.0487" stroke="#65B2BD" stroke-width="0.125657" stroke-miterlimit="10"/>
<path d="M972.567 41.9329C972.776 41.9329 972.944 41.7642 972.944 41.556C972.944 41.3478 972.776 41.179 972.567 41.179C972.359 41.179 972.19 41.3478 972.19 41.556C972.19 41.7642 972.359 41.9329 972.567 41.9329Z" fill="#2D6D72"/>
<path d="M972.128 47.9016C972.336 47.9016 972.505 47.7329 972.505 47.5247C972.505 47.3165 972.336 47.1477 972.128 47.1477C971.92 47.1477 971.751 47.3165 971.751 47.5247C971.751 47.7329 971.92 47.9016 972.128 47.9016Z" fill="#2D6D72"/>
<path d="M971.5 53.9331C971.708 53.9331 971.877 53.7643 971.877 53.5561C971.877 53.3479 971.708 53.1791 971.5 53.1791C971.292 53.1791 971.123 53.3479 971.123 53.5561C971.123 53.7643 971.292 53.9331 971.5 53.9331Z" fill="#2D6D72"/>
<path d="M970.62 59.839C970.828 59.839 970.997 59.6703 970.997 59.4621C970.997 59.2539 970.828 59.0851 970.62 59.0851C970.412 59.0851 970.243 59.2539 970.243 59.4621C970.243 59.6703 970.412 59.839 970.62 59.839Z" fill="#2D6D72"/>
<path d="M969.489 65.1166C969.697 65.1166 969.866 64.9478 969.866 64.7396C969.866 64.5314 969.697 64.3627 969.489 64.3627C969.281 64.3627 969.112 64.5314 969.112 64.7396C969.112 64.9478 969.281 65.1166 969.489 65.1166Z" fill="#2D6D72"/>
<path d="M968.232 70.7711C968.441 70.7711 968.609 70.6023 968.609 70.3942C968.609 70.186 968.441 70.0172 968.232 70.0172C968.024 70.0172 967.855 70.186 967.855 70.3942C967.855 70.6023 968.024 70.7711 968.232 70.7711Z" fill="#2D6D72"/>
<path d="M929.468 147.61C928.337 149.495 927.835 152.134 928.212 153.642C928.589 155.149 923.814 151.38 922.809 150.626C923.814 148.615 925.07 145.851 925.447 144.469C925.824 143.086 929.468 147.61 929.468 147.61Z" fill="#E2D0A8"/>
<path d="M923.061 148.615C924.78 150.491 926.994 151.963 928.42 152.488C929.846 153.013 930.223 156.029 931.982 157.914C933.742 159.799 935.249 162.186 935.124 163.694C934.998 165.202 929.72 160.678 928.213 160.05C926.705 159.422 925.071 156.406 924.317 156.155C923.563 155.903 920.548 153.767 920.171 153.013C919.794 152.259 921.302 150.374 923.061 148.615Z" fill="#3F2A14"/>
<path d="M925.197 155.903C924.82 156.362 924.399 156.783 923.94 157.16L919.542 153.641L920.375 151.901L925.197 155.903Z" fill="#3F2A14"/>
<path d="M972.211 76.2221C972.694 81.1378 974.076 87.7976 974.579 91.4416C975.081 95.0856 975.898 109.473 974.893 112.866C974.122 115.467 969.113 119.4 962.83 121.788C957.507 123.811 940.023 131.149 937.761 131.275C935.499 131.4 938.264 121.599 939.897 120.845C941.531 120.091 959.5 111.672 962.264 110.039C961.133 104.259 961.008 93.2008 960.756 87.9232C960.505 82.6456 960.739 75.7559 960.748 74.4893C960.756 73.2226 972.211 76.2221 972.211 76.2221Z" fill="#1E4E51"/>
<path d="M964.652 76.1116C964.4 81.1378 962.139 94.9601 958.243 101.997C954.348 109.034 931.604 148.867 930.599 149.998C929.594 151.129 923.939 146.102 923.059 146.102C922.18 146.102 935.122 115.693 936.882 113.432C938.641 111.17 946.683 84.7819 948.065 81.3891C949.447 77.9964 953.343 73.3471 954.599 71.211C955.856 69.0748 964.652 76.1116 964.652 76.1116Z" fill="#1E4E51"/>
<path d="M965.72 76.3C965.469 77.8079 965.092 80.321 964.715 81.9545C964.338 81.9545 963.961 81.8289 963.584 81.7032C964.087 79.944 964.841 75.923 964.715 76.0487C964.589 76.1743 965.72 76.3 965.72 76.3Z" stroke="#1B4849" stroke-width="0.125657" stroke-miterlimit="10"/>
<path d="M955.856 69.0747C959.143 71.814 964.15 76.1115 971.455 74.4892C972.963 74.155 972.643 76.702 972.38 76.8026C970.746 77.4309 964.903 77.1167 962.642 76.2371C960.38 75.3575 954.6 71.8391 954.6 71.2109C954.6 70.5826 955.102 68.4464 955.856 69.0747Z" fill="#49351D"/>
<path d="M995.795 75.2896C996.484 76.7711 997.363 79.8786 998.915 80.9442C1000.67 82.1568 1001.88 82.8378 1001.68 84.1032C1001.48 85.3685 1001.81 87.1189 1001.45 87.8854C1001.1 88.6519 1000.34 88.4911 999.337 88.4396C998.329 88.3881 998.493 85.5608 997.986 85.8008C997.48 86.0408 998.837 88.4974 998.21 88.5225C997.583 88.5477 996.553 87.9596 995.331 85.7455C994.11 83.5314 994.502 83.8921 994.246 80.6326C993.989 77.373 991.431 76.2195 992.674 75.7923C993.916 75.365 995.795 75.2896 995.795 75.2896Z" fill="#E2D0A8"/>
<path d="M998.061 84.7554C998.971 85.8034 1000 89.2049 1000.04 90.2089C1000.08 91.2129 999.193 90.998 998.314 91.0332C997.434 91.0684 997.007 83.5403 998.061 84.7554Z" fill="#231403"/>
<path d="M997.039 90.5821C998.493 89.8382 1000.04 90.2051 1001.69 90.3949C1002.57 93.378 1001.04 111.799 999.724 113.488C997.991 114.185 996.206 113.503 995.436 113.158C996.223 107.844 996.829 94.7451 997.039 90.5821Z" fill="#231403"/>
<path d="M941.28 73.3471C940.275 75.2319 939.646 77.4937 938.767 79.0016C937.887 80.5095 935.751 82.3943 934.243 82.143C932.735 81.8917 935.5 80.8865 936.002 79.8812C936.505 78.876 937.51 77.6194 936.631 77.745C935.751 77.8707 934.997 78.7503 933.238 79.3786C931.479 80.0069 930.599 82.6456 929.468 82.897C928.337 83.1483 930.096 79.6299 930.976 78.7503C931.856 77.8707 932.61 77.2424 933.615 75.9859C934.62 74.7293 938.138 73.4727 939.395 71.7135C940.652 69.9543 941.28 73.3471 941.28 73.3471Z" fill="#E2D0A8"/>
<path d="M978.474 32.1317C979.856 32.383 984.757 33.2626 985.511 33.3883C986.265 33.5139 984.882 50.1006 984.129 52.7394C983.375 55.3782 979.354 72.0905 978.977 76.1115C978.6 80.1325 977.846 87.4206 978.097 89.0541C975.71 88.5515 971.437 86.2897 970.181 85.5357C970.181 80.1325 970.701 77.1984 971.689 70.5826C972.945 62.1636 974.956 54.6242 975.71 49.9749C976.494 45.1359 977.971 33.3883 977.469 32.76C976.966 32.1317 978.474 32.1317 978.474 32.1317Z" fill="#143233"/>
<path d="M984.757 33.2626C985.714 33.4478 986.566 33.9861 987.144 34.7705C987.999 35.968 989.532 47.4618 992.045 56.6348C994.558 65.8077 998.328 76.2372 998.83 77.2424C999.333 78.2477 993.93 80.0069 993.176 80.7608C992.422 81.5148 983.375 58.3939 983.249 52.9907C983.123 47.5875 984.757 33.2626 984.757 33.2626Z" fill="#143233"/>
<path d="M964.778 32.8857C962.894 33.514 958.37 34.7705 957.616 35.0218C959.627 38.1632 960.443 43.2523 958.935 47.776C957.923 50.8156 954.852 59.3992 953.846 62.7919C952.937 65.8642 947.187 75.7346 946.433 76.7398C948.82 78.876 952.841 82.3944 954.223 83.7766C958.873 78.499 960.38 74.3523 961.637 71.0853C962.894 67.8182 966.915 56.1321 967.04 53.1164C967.166 50.1006 969.553 38.9172 968.423 36.6554C967.292 34.3936 964.778 32.8857 964.778 32.8857Z" fill="#143233"/>
<path d="M958.119 34.9854C956.359 35.2731 955.857 36.2784 955.228 37.5349C954.247 39.4977 944.548 58.3939 943.668 59.7761C942.788 61.1584 937.134 70.7083 936.631 71.3365C936.129 71.9648 942.16 76.8654 942.663 77.1167C943.165 77.3681 951.459 61.9123 952.715 60.0275C953.972 58.1426 959.187 52.1739 960.632 45.7026C961.442 42.0711 958.119 34.9854 958.119 34.9854Z" fill="#143233"/>
<path d="M976.588 30.8751C976.211 31.5034 973.573 36.1527 972.944 36.404C973.824 37.2836 975.08 39.4198 975.457 40.6763C976.337 38.2889 979.227 32.76 979.73 31.6291C978.85 31.5034 977.217 31.1264 976.588 30.8751Z" fill="#65B2BD"/>
<path d="M972.065 36.2784C971.689 37.4093 971.06 38.5402 970.809 40.2994C969.175 38.6659 964.4 34.1423 963.646 32.76C964.652 32.3831 966.16 31.6291 966.411 31.3778C967.416 32.8857 970.683 35.5245 972.065 36.2784Z" fill="#65B2BD"/>
<path d="M961.134 94.5817L961.424 92.9658C961.517 92.428 961.611 91.8901 961.698 91.3511C961.785 90.812 961.874 90.2742 961.959 89.7351L962.211 88.1117C962.227 88.6614 962.209 89.2115 962.157 89.759C962.11 90.3056 962.031 90.851 961.948 91.3925C961.865 91.9341 961.75 92.4732 961.618 93.006C961.489 93.5407 961.328 94.067 961.134 94.5817Z" fill="#143233"/>
<path d="M941.343 118.395C943.102 118.772 944.484 119.526 944.987 120.531L941.343 118.395Z" fill="#143233"/>
<defs>
<linearGradient id="paint0_linear" x1="109.161" y1="603.902" x2="110.11" y2="605.546" gradientUnits="userSpaceOnUse">
<stop stop-color="#2D6D72"/>
<stop offset="0.39" stop-color="#1D4649" stop-opacity="0.64"/>
<stop offset="1" stop-opacity="0"/>
</linearGradient>
<linearGradient id="paint1_linear" x1="1217.37" y1="3158.24" x2="1230.08" y2="3180.25" gradientUnits="userSpaceOnUse">
<stop stop-color="#2D6D72"/>
<stop offset="0.39" stop-color="#1D4649" stop-opacity="0.64"/>
<stop offset="1" stop-opacity="0"/>
</linearGradient>
<linearGradient id="paint2_linear" x1="807.635" y1="3230.22" x2="820.781" y2="3246.53" gradientUnits="userSpaceOnUse">
<stop stop-color="#2D6D72"/>
<stop offset="0.39" stop-color="#1D4649" stop-opacity="0.64"/>
<stop offset="1" stop-opacity="0"/>
</linearGradient>
<linearGradient id="paint3_linear" x1="181.922" y1="581.048" x2="183.554" y2="582.679" gradientUnits="userSpaceOnUse">
<stop stop-color="#2D6D72"/>
<stop offset="0.16" stop-color="#296367" stop-opacity="0.91"/>
<stop offset="0.44" stop-color="#1D474A" stop-opacity="0.65"/>
<stop offset="0.81" stop-color="#0B1B1C" stop-opacity="0.24"/>
<stop offset="1" stop-opacity="0"/>
</linearGradient>
</defs>
</svg>
