<svg width="1231" height="389" viewBox="0 0 1231 389" fill="none" xmlns="http://www.w3.org/2000/svg">
<path d="M375.098 65.613C354.403 71.4764 337.525 56.011 340.864 46.409C344.204 36.807 361.53 32.2147 378.437 33.0497C395.345 33.8846 393.049 18.6467 405.156 16.3506C417.263 14.0544 428.326 12.3845 438.972 31.7972C449.617 51.21 464.438 39.3118 474.249 47.0352C484.059 54.7585 495.957 70.8314 456.297 71.4576C416.637 72.0839 387.622 62.0644 375.098 65.613Z" fill="white"/>
<path d="M788.862 31.2373C840.598 28.7737 883.898 36.3546 895.229 25.3889C906.56 14.4233 921.368 -4.32076 951.154 0.898906C986.61 7.1128 996.845 30.5063 1019.51 31.2373C1051.1 32.2571 1062.21 19.2628 1090.78 23.1958C1130.63 28.6787 1129.16 45.8582 1154.39 45.4927C1179.61 45.1272 1270.62 63.7689 1209.21 78.0243C1147.81 92.2797 1117.83 74.0035 1090.78 78.0243C1063.74 82.045 1046.92 94.1073 973.817 88.2589C900.712 82.4105 914.968 66.6931 864.891 68.1552C814.814 69.6172 799.097 69.6172 778.262 61.2102C757.427 52.8032 758.158 32.6994 788.862 31.2373Z" fill="white"/>
<path d="M331.634 222.792C293.241 217.54 277.549 215.73 265.211 208.381C248.755 198.578 235.451 183.688 212.844 187.658C185.956 192.381 176.615 211.277 159.666 210.877C136.037 210.317 128.702 196.04 107.107 198.711C76.997 202.436 76.836 220.635 58.0559 218.944C39.2759 217.253 -29.9449 232.217 14.796 250.43C59.5369 268.643 83.2255 250.909 103.098 256.536C122.97 262.162 134.629 275.767 189.576 273.376C244.523 270.985 235.031 253.668 272.262 257.796C309.493 261.924 321.211 262.74 337.362 254.946C353.513 247.153 354.419 225.922 331.634 222.792Z" fill="white"/>
<path d="M753.814 354.468C733.232 366.046 750.276 396.919 788.546 385.02C826.816 373.121 826.057 394.266 843.861 387.271C861.87 380.196 851.901 351.895 824.886 354.468C797.872 357.041 803.661 330.027 780.506 335.816C757.351 341.604 771.473 344.534 753.814 354.468Z" fill="white"/>
</svg>
