<?xml version="1.0" encoding="UTF-8"?>
<svg fill="none" viewBox="0 0 137 273" xmlns="http://www.w3.org/2000/svg">
<path d="m91.114 38.869c0.4321 5.8322-0.2088 8.3495 3.5485 13.359 2.7575 3.678 0.309 5.6192-1.1606 8.8547-0.718 1.5822-2.7616 7.1451-5.3103 6.3832-4.9909-1.4904-12.942-11.833-11.898-12.733 2.9224-2.5048 3.966-5.2184 4.3835-8.9757 0.43-3.8763-1.9141-9.602-2.5863-10.823-0.6721-1.2212 12.683-0.6492 13.023 3.9347z" fill="#E2D0A8"/>
<path d="m78.671 36.479c-0.4655-1.2357 13.376 2.9057 12.86 4.895-0.5469 2.1103 0 2.7136 0.0313 4.6945 0.0188 1.217-7.9676-0.7869-11.497-5.6652-0.4884-1.8619-0.9288-2.6885-1.3943-3.9243z" fill="#DBC9A5"/>
<path d="m77.775 8.4269c4.9993-1.7138 9.4517-2.9077 14.612 3.6133 2.603 3.2959 2.9788 9.865 5.4711 13.246 0.9665 1.313 2.0999 4.9805 1.8348 8.1555-0.2254 2.7136-0.0167 6.8883-2.1041 8.3495-2.605 1.8244-14.363-1.3171-15.992-2.0728-2.9954-1.3881-4.396-5.805-6.0931-8.266-1.697-2.4611-5.1683-6.0535-4.7341-13.338 0.263-4.4733 3.2521-8.4018 7.0052-9.6876z" fill="#E2D0A8"/>
<path d="m72.252 29.466c-1.4319 3.2376 2.5738 6.2037 4.801 6.0702 1.1084-0.0689 0.954-0.8914 0.1983-1.6867-1.219-1.2837-0.9477-2.5925-2.031-4.062-1.3088-1.7659-2.6489-1.0416-2.9683-0.3215z" fill="#DBC9A5"/>
<path d="m74.414 25.928c0.3737 0.7473 0.6262 1.8786-0.6262 2.5049-1.2524 0.6262-2.9223 1.2524-3.1311-0.4175-0.2087-1.6699-0.6262 0.4175-1.8786-2.0874-1.2525-2.5049-3.3399-1.8787-2.5049-3.7573 0.835-1.8787 0.2087-2.5049-0.6262-3.3398-0.835-0.835-1.0437-3.9661 0-3.9661s-1.4612-1.8786-0.2088-3.131c1.2525-1.2525 3.3399-1.67 2.9224-3.1311-0.4175-1.4612 1.0437-3.1311 1.6699-2.7136 0.6262 0.41748-0.6262-3.5486 1.0437-3.966 1.6699-0.41747 3.3398-0.41747 3.5486 0.41748 0.2087 0.83496 1.0436-1.6699 1.8786-1.4612 0.835 0.20874 2.5049-0.20874 3.1311 0.62622 0.6262 0.83495 0.4175-1.8787 2.2961-1.4612 1.8787 0.41748 3.3398-0.20874 3.3398 1.8786 0 2.0874 2.2962-0.20873 3.5486 0.41748 1.2524 0.62622 1.0437 2.0874 2.0874 1.6699 1.0437-0.41747 3.1311 0.41748 2.9223 1.4612-0.2087 1.0437-1.6699 2.0874-0.8349 2.5049 0.8349 0.41748 2.9223 2.0874 2.7136 3.131-0.2088 1.0437 0.2087 2.0874 1.0437 2.2962 0.8349 0.2087-1.6699 0.2087-2.2962-1.2525-0.6262-1.4611 0.2088-0.6262-0.6262 0-0.8349 0.6262 1.2525 2.7136 0 2.2962-1.1877-0.3966-0.8349-1.8787-2.5048-2.5049s-1.4612 0.4363-2.9224 0.8349c-2.2961 0.6263-1.6699-0.6262-3.7573 0.4175-1.2524 0.6262 0 1.8787-1.8786 2.0874-0.9268 0.1023-4.3835 0.0605-4.3835 1.4612 0 1.2524-1.0437 2.5049-2.5049 2.9223-1.2211 0.3486-0.4175 2.0874-0.835 2.9224-0.4174 0.8349-1.2524 2.0874-0.6262 3.3398z" fill="#3F2A14"/>
<path d="m89.456 23.339c0.2901 0.7202 0.5865 1.4173 0.9038 2.1062 0.3173 0.6888 0.6596 1.361 1.0145 2.0248 0.3548 0.6637 0.7306 1.3192 1.1272 1.9621 0.4005 0.647 0.8404 1.2688 1.3171 1.8619-0.6567-0.4249-1.2362-0.9585-1.7137-1.578-0.4887-0.6081-0.9179-1.2617-1.2817-1.9517-0.3685-0.6853-0.6751-1.402-0.9164-2.1417-0.2518-0.7376-0.4034-1.5056-0.4508-2.2836z" fill="#CCB793"/>
<path d="m89.966 60.683c-1.0846 2.7925-1.9909 5.651-2.7136 8.5583-0.8349 3.3398-11.272 42.165-13.568 46.131s-6.0534 6.471-1.6699 8.141 9.8107 4.384 13.359 1.879c3.5485-2.505 13.15-25.049 13.359-31.937 0.2087-6.8884 2.7135-31.102 2.0875-34.024-0.626-2.9224-8.5585-4.801-10.855 1.2524z" fill="#8BC5CD"/>
<path d="m85.374 59.43c2.0874 1.6699 3.3398 3.1311 3.3398 11.063 0 5.8593-11.481 50.724-13.568 52.811-2.0874 2.088-11.272-3.966-11.898-4.801s12.942-38.825 13.359-46.131c0.4175-7.3058 7.1535-14.232 8.767-12.942z" fill="#8BC5CD"/>
<path d="m88.4 64.962c-0.2087 5.4272-2.0874 28.18-2.9224 30.893-0.8349 2.7137-5.8446 28.806-6.8883 30.476" stroke="#65B2BD" stroke-miterlimit="10" stroke-width=".20874"/>
<path d="m88.087 69.658c0.3458 0 0.6262-0.2803 0.6262-0.6262 0-0.3458-0.2804-0.6262-0.6262-0.6262-0.3459 0-0.6263 0.2804-0.6263 0.6262 0 0.3459 0.2804 0.6262 0.6263 0.6262z" fill="#2D6D72"/>
<path d="m87.357 79.574c0.3458 0 0.6262-0.2804 0.6262-0.6262 0-0.3459-0.2804-0.6263-0.6262-0.6263-0.3459 0-0.6262 0.2804-0.6262 0.6263 0 0.3458 0.2803 0.6262 0.6262 0.6262z" fill="#2D6D72"/>
<path d="m86.313 89.593c0.3459 0 0.6263-0.2804 0.6263-0.6263 0-0.3458-0.2804-0.6262-0.6263-0.6262-0.3458 0-0.6262 0.2804-0.6262 0.6262 0 0.3459 0.2804 0.6263 0.6262 0.6263z" fill="#2D6D72"/>
<path d="m84.851 99.404c0.3459 0 0.6262-0.2804 0.6262-0.6262 0-0.3459-0.2803-0.6263-0.6262-0.6263-0.3458 0-0.6262 0.2804-0.6262 0.6263 0 0.3458 0.2804 0.6262 0.6262 0.6262z" fill="#2D6D72"/>
<path d="m82.973 108.17c0.3458 0 0.6262-0.281 0.6262-0.627 0-0.345-0.2804-0.626-0.6262-0.626-0.3459 0-0.6262 0.281-0.6262 0.626 0 0.346 0.2803 0.627 0.6262 0.627z" fill="#2D6D72"/>
<path d="m80.886 117.56c0.3458 0 0.6262-0.28 0.6262-0.626s-0.2804-0.626-0.6262-0.626c-0.3459 0-0.6262 0.28-0.6262 0.626s0.2803 0.626 0.6262 0.626z" fill="#2D6D72"/>
<path d="m16.489 245.21c-1.8786 3.131-2.7136 7.514-2.0874 10.019 0.6263 2.505-7.3058-3.757-8.9757-5.01 1.6699-3.339 3.7573-7.932 4.3835-10.228 0.62621-2.296 6.6796 5.219 6.6796 5.219z" fill="#E2D0A8"/>
<path d="m5.8446 246.88c2.8556 3.116 6.5335 5.56 8.9027 6.433 2.3692 0.872 2.9954 5.882 5.9178 9.013 2.9223 3.131 5.4272 7.097 5.2184 9.602-0.2087 2.505-8.9757-5.01-11.481-6.053-2.5049-1.044-5.2185-6.054-6.4709-6.471-1.2524-0.418-6.2622-3.966-6.8884-5.219-0.62622-1.252 1.8786-4.383 4.801-7.305z" fill="#3F2A14"/>
<path d="m9.3932 258.98c-0.6257 0.763-1.3249 1.462-2.0874 2.088l-7.3059-5.845 1.3839-2.891 8.0093 6.648z" fill="#3F2A14"/>
<path d="m87.494 126.62c0.8016 8.166 3.0977 19.229 3.9327 25.283 0.8349 6.053 2.1917 29.954 0.5218 35.589-1.2796 4.321-9.602 10.855-20.039 14.821-8.8422 3.361-37.886 15.551-41.643 15.76-3.7573 0.208 0.8349-16.073 3.5485-17.326 2.7136-1.252 32.563-15.238 37.156-17.951-1.8786-9.602-2.0873-27.971-2.5048-36.738s-0.0292-20.212-0.0146-22.316c0.0146-2.105 19.043 2.878 19.043 2.878z" fill="#1E4E51"/>
<path d="m74.936 126.44c-0.4175 8.35-4.1748 31.311-10.646 43.001-6.4709 11.689-44.253 77.859-45.923 79.738s-11.063-6.471-12.524-6.471 20.039-50.515 22.961-54.272c2.9223-3.757 16.282-47.593 18.578-53.228 2.2962-5.636 8.7671-13.36 10.854-16.908 2.0873-3.549 16.699 8.14 16.699 8.14z" fill="#1E4E51"/>
<path d="m76.711 126.75c-0.4175 2.505-1.0437 6.68-1.67 9.394-0.6262 0-1.2524-0.209-1.8786-0.418 0.835-2.922 2.0874-9.602 1.8786-9.393-0.2087 0.209 1.67 0.417 1.67 0.417z" stroke="#1B4849" stroke-miterlimit="10" stroke-width=".20874"/>
<path d="m60.324 114.75c5.4606 4.55 13.777 11.689 25.913 8.994 2.5048-0.555 1.9725 3.676 1.5363 3.843-2.7136 1.044-12.42 0.522-16.177-0.939s-13.359-7.306-13.359-8.35c0-1.043 0.835-4.592 2.0874-3.548z" fill="#49351D"/>
<path d="m126.67 125.07c1.143 2.461 2.605 7.623 5.182 9.393 2.923 2.015 4.931 3.146 4.593 5.248s0.208 5.01-0.374 6.283-1.843 1.006-3.517 0.921c-1.674-0.086-1.403-4.783-2.244-4.384s1.413 4.48 0.371 4.521c-1.041 0.042-2.753-0.935-4.782-4.613s-1.377-3.079-1.803-8.493c-0.426-5.415-4.676-7.331-2.612-8.041 2.065-0.71 5.186-0.835 5.186-0.835z" fill="#E2D0A8"/>
<path d="m130.44 140.79c1.512 1.741 3.223 7.392 3.29 9.06s-1.409 1.311-2.87 1.369c-1.461 0.059-2.171-12.447-0.42-10.429z" fill="#231403"/>
<path d="m128.74 150.47c2.415-1.236 4.989-0.626 7.723-0.311 1.461 4.955-1.077 35.556-3.262 38.362-2.879 1.158-5.845 0.025-7.125-0.549 1.309-8.828 2.315-30.587 2.664-37.502z" fill="#231403"/>
<path d="m36.111 121.84c-1.6699 3.131-2.7136 6.888-4.1748 9.393s-5.0097 5.636-7.5146 5.219c-2.5049-0.418 2.0874-2.088 2.9224-3.757 0.8349-1.67 2.5048-3.758 1.0437-3.549-1.4612 0.209-2.7137 1.67-5.636 2.714-2.9223 1.043-4.3835 5.427-6.2622 5.844-1.8786 0.418 1.0437-5.427 2.5049-6.888s2.7136-2.505 4.3835-4.592c1.6699-2.088 7.5146-4.175 9.602-7.098 2.0874-2.922 3.1311 2.714 3.1311 2.714z" fill="#E2D0A8"/>
<path d="m97.897 53.377c2.2956 0.4175 10.437 1.8787 11.69 2.0874 1.252 0.2087-1.044 27.762-2.296 32.146-1.253 4.3835-7.9325 32.146-8.5587 38.825-0.6262 6.68-1.8786 18.787-1.4611 21.5-3.9661-0.835-11.063-4.592-13.151-5.844 0-8.976 0.8642-13.85 2.5049-24.84 2.0874-13.986 5.4272-26.51 6.6796-34.233 1.3025-8.0385 3.7573-27.554 2.9224-28.597-0.835-1.0437 1.6699-1.0437 1.6699-1.0437z" fill="#143233"/>
<path d="m108.33 55.255c1.59 0.3076 3.005 1.2017 3.966 2.5048 1.42 1.9893 3.966 21.083 8.141 36.321 4.175 15.238 10.437 32.563 11.272 34.233s-8.141 4.592-9.393 5.845c-1.253 1.252-16.282-37.156-16.491-46.132-0.208-8.9758 2.505-32.772 2.505-32.772z" fill="#143233"/>
<path d="m75.144 54.629c-3.1311 1.0436-10.646 3.131-11.898 3.5485 3.3398 5.2185 4.6966 13.672 2.1918 21.187-1.6825 5.0494-6.784 19.308-8.454 24.944-1.5112 5.104-11.063 21.5-12.316 23.17 3.966 3.549 10.646 9.393 12.942 11.689 7.7233-8.767 10.228-15.655 12.316-21.082 2.0873-5.427 8.767-24.84 8.9757-29.85 0.2088-5.0097 4.1748-23.588 2.2962-27.345-1.8787-3.7573-6.0535-6.2621-6.0535-6.2621z" fill="#143233"/>
<path d="m64.082 58.117c-2.9223 0.478-3.7573 2.1479-4.801 4.2353-1.6302 3.2605-17.743 34.651-19.204 36.947-1.4611 2.2957-10.854 18.161-11.689 19.204-0.835 1.044 9.1845 9.185 10.019 9.602 0.835 0.418 14.612-25.257 16.699-28.388 2.0874-3.1311 10.75-13.046 13.151-23.796 1.3464-6.0325-4.1748-17.803-4.1748-17.803z" fill="#143233"/>
<path d="m94.766 51.289c-0.6262 1.0437-5.0097 8.767-6.0534 9.1845 1.4612 1.4612 3.5486 5.0097 4.1748 7.0971 1.4612-3.966 6.2621-13.15 7.0971-15.029-1.4612-0.2087-4.1748-0.8349-5.2185-1.2524z" fill="#65B2BD"/>
<path d="m87.252 60.265c-0.6262 1.8787-1.6699 3.7573-2.0874 6.6796-2.7136-2.7136-10.646-10.228-11.898-12.524 1.6699-0.6262 4.1748-1.8786 4.5923-2.2961 1.6699 2.5049 7.0971 6.8884 9.3932 8.1408z" fill="#65B2BD"/>
<path d="m69.092 157.12 0.4822-2.685c0.1544-0.893 0.311-1.786 0.455-2.682 0.1441-0.895 0.2923-1.789 0.4342-2.684l0.4175-2.697c0.0265 0.913-0.0035 1.827-0.0898 2.736-0.0772 0.908-0.2087 1.814-0.3465 2.714-0.1377 0.9-0.3298 1.795-0.549 2.68-0.2132 0.889-0.4816 1.763-0.8036 2.618z" fill="#143233"/>
<path d="m36.215 196.68c2.9224 0.626 5.2185 1.879 6.0535 3.549l-6.0535-3.549z" fill="#143233"/>
</svg>
