<?xml version="1.0" encoding="UTF-8"?>
<svg fill="none" viewBox="0 0 1231 657" xmlns="http://www.w3.org/2000/svg">
<path d="m114.22 399.18c-0.903-3.275-4.811-8.327-8.558-10.02-6.4709-2.922-13.986 0.209-16.908 3.549-2.8305 3.235-5.8447 6.262-5.8447 19.83s-7.7233 24.005-15.029 29.641-10.042 17.59-9.0801 24.318c0.0814 0.568 0.9873 2.463 1.2399 2.638-0.1962-4.517 0.7013-5.79 1.3568-7.289-0.2881 1.217-1.3443 4.442-0.8225 7.452 0.4261-0.01 0.8482-0.084 1.2525-0.219 0.3173-5.713 2.0623-10.46 2.6906-11.735-0.5406 2.571-1.5384 6.231-1.7847 11.48 0.3659-0.097 0.7385-0.167 1.1147-0.208 0.0939-3.326 0.6638-9.095 3.5151-13.195 2.8514-4.099 6.8884-7.514 11.272-14.194-1.6699 3.966-3.9347 6.17-7.932 11.689-3.7824 5.219-4.92 9.824-4.7614 16.027 0.8109 0.322 1.6906 0.429 2.555 0.313 0.1127-3.548 1.1355-9.393 2.9369-12.269-1.087 3.896-1.5388 7.942-1.338 11.981 0.2213-0.043 0.4384-0.083 0.6596-0.114-0.1106-1.777 0.0752-3.167 0.261-3.726-0.138 1.227-0.0909 2.468 0.1398 3.682 0.6627-0.067 1.3314 0.031 1.9476 0.284 0.694 0.337 1.3544 0.74 1.9725 1.202 0.0522-2.087 0.4405-5.344 1.8787-8.404 1.8786-3.966 4.2979-7.128 5.8447-9.602-1.1335 2.831-2.9224 5.01-4.5923 8.35-1.6448 3.289-2.2377 7.448-2.2961 10.253 3.0789 2.213 7.4165 5.427 10.758 4.672 2.0978-0.476 4.0203-0.038 5.709 0.559-0.3862-3.377 1.7158-10.04 2.6072-11.401-0.5177 2.751-1.7409 8.441-0.9832 12.027 1.1877 0.48 2.221 0.902 3.0726 0.91-0.2713-2.352-0.2484-5.389 0.3194-6.888-0.119 1.127-0.3924 6.993 0.4363 6.782 2.7138-3.757 1.1898-3.269 1.5718-8.243 0.4174-5.427 8.729-11.51 10.731-19.428 2.002-7.917 5.968-10.422 2.42-23.364-1.489-5.414 3.337-21.287 1.667-27.34z" fill="#231403"/>
<path d="m70.698 439.99c-4.801 3.966-8.0531 3.925-11.898 5.845-4.5922 2.296-7.0971 6.68-7.3058 8.976 2.7136-5.427 7.1472-7.857 10.646-8.559 3.1311-0.626 5.8447-1.461 7.5146-3.339 1.6699-1.879 1.0437-2.923 1.0437-2.923z" fill="#231403"/>
<path d="m63.809 445c-3.5486 1.67-7.0971 4.175-7.7234 6.471 1.0437-1.253 1.6699-2.088 3.5486-3.131 1.8244-1.013 4.3835-1.461 6.8884-2.505 2.5048-1.044-2.7136-0.835-2.7136-0.835z" fill="#231403"/>
<path d="m82.98 409.13c-0.1754 4.975-2.2628 8.732-4.1414 10.611 2.5048-1.253 4.7738-5.768 4.5922-8.141-0.2087-2.714-0.4508-2.47-0.4508-2.47z" fill="#231403"/>
<path d="m60.887 452.3c-1.8786 2.296-3.7573 7.932-3.1311 11.063 0.2088-2.713 0.835-5.218 2.0874-7.306 1.9538-3.254 1.0437-3.757 1.0437-3.757z" fill="#231403"/>
<path d="m110.04 426.32c0.209 5.844 1.879 11.48 7.933 10.645 4.362-0.601-1.462 10.229-4.175 12.525-2.714 2.296-16.789-3.674-15.656-5.428 1.1335-1.753 3.0267-5.114 3.5487-7.723 0.764-3.822-1.67-12.315-2.2962-13.568-0.6262-1.252 10.481-1.044 10.645 3.549z" fill="#E2D0A8"/>
<path d="m99.921 424.33c-0.4175-1.253 11.237 2.623 10.646 4.592-0.626 2.087 1.252 3.966 0.417 5.218-0.676 1.015-6.679-1.043-10.019-6.053-0.266-1.274-0.615-2.529-1.0439-3.757z" fill="#DBC9A5"/>
<path d="m101.7 393.96c5.219-0.835 9.811-1.252 13.777 6.054 2.004 3.692 1.252 10.228 3.131 13.985 0.728 1.461 1.841 5.5 0.417 8.35-1.461 2.922-1.878 6.053-4.801 7.932-2.674 1.72-11.257-3.152-12.733-4.175-2.7133-1.879-3.3395-6.471-4.592-9.184-1.2524-2.714-5.4272-7.515-3.7573-14.612 1.027-4.363 4.6424-7.721 8.5583-8.35z" fill="#E2D0A8"/>
<path d="m112.24 401.37c0.603 1.411 1.207 3.597 1.061 5.428h0.488c0.115-0.66 0.086-1.297-0.088-2.505 0.228 0.817 0.368 1.657 0.418 2.505 1.106 5e-3 2.209 0.116 3.294 0.331 0.014-0.532-3e-3 -1.066-0.052-1.596 0.105 0.54 0.182 1.086 0.229 1.634 0.322 0.073 0.626 0.157 0.919 0.253-0.835-8.141-3.793-13.026-8.607-14.268-6.888-1.778-14.59 1.461-17.116 7.78-1.7763 4.444 0.1211 9.74 2.3442 14.628 0.6262-0.388 1.2315-0.801 1.8118-1.223-0.3966-2.004-0.6721-6.679-0.2692-7.6-0.2317 1.768 0.0855 4.041 0.4947 6.742 0 0.017 0.0668 0.301 0.1315 0.597 1.2879-0.958 2.4798-1.958 3.6533-2.884-0.015-0.044-0.03-0.088-0.044-0.136-0.533-1.718-0.487-3.067-0.351-3.845 0.034 1.28 0.263 2.547 0.678 3.757 0.971-0.78 1.998-1.486 3.073-2.112-0.417-2.568-0.209-5.69 0.102-7.724-0.052 1.084 0.092 5.327 0.543 7.384 0.534-0.268 1.088-0.494 1.658-0.675 1.916-0.571 3.895-0.908 5.892-1.004 0.328-1.375-0.062-4.665-0.263-5.467z" fill="#231403"/>
<path d="m94.389 415.46c-1.6699 2.505 1.4612 5.427 3.3398 5.636 0.9394 0.105 1.2525-0.371 0.7306-1.148-0.8349-1.252-0.7681-2.369-1.4612-3.757-0.8349-1.67-2.2397-1.286-2.6092-0.731z" fill="#DBC9A5"/>
<path d="m185.4 425.69c4.592-1.67 7.723-3.339 8.349-5.009s2.296-5.845 3.131-6.263c0.835-0.417 4.384-1.461 5.01-2.296s4.592 0.418 5.636 0c1.044-0.417 7.723-1.878 8.976-2.296 1.252-0.417 0.417 1.253-2.296 2.296-2.714 1.044-6.889 1.67-7.932 2.714-1.044 1.044-3.132 2.087-4.384 2.087s3.757-0.626 5.218-0.626c1.462 0 4.384 0.418 5.845 0 1.461-0.417-0.626 1.67-3.966 1.461-3.34-0.208-5.845 1.879-7.097 1.67s1.044 5.01 0 6.471-2.922 0.835-4.384 0.626c-1.461-0.208-6.888 3.34-8.349 4.593-1.461 1.252-5.613-4.753-3.757-5.428z" fill="#E2D0A8"/>
<path d="m200.43 422.14c1.42 0.407 2.714 1.461 3.966 1.252 1.253-0.208 4.302-0.67 5.427-1.669 1.879-1.67 3.106-0.627-0.208 2.087-2.296 1.879-5.448 2.296-6.471 2.505-2.088 0.417-3.34 0.626-5.636 0.209-1.768-0.324 1.461-4.801 2.922-4.384z" fill="#E2D0A8"/>
<path d="m200.85 414c1.841-1.288 5.636-4.592 6.053-5.218 0.418-0.627 4.244-2.271 5.845-3.34 1.878-1.253 3.548-2.088 2.296 0-1.253 2.087-3.966 2.885-4.801 3.548-1.044 0.835-2.922 3.549-3.757 4.175s-7.724 2.296-5.636 0.835z" fill="#E2D0A8"/>
<path d="m54.312 518.37c0.6262 3.131-3.7155 6.68-7.3058 8.559-4.3836 2.296-1.0437-0.627 1.2524-2.714s-2.5237 1.223-5.0097 2.714c-4.1748 2.505-8.312 1.626-7.0972 1.252 2.7136-0.835 5.5128-2.547 7.0972-3.34 3.3398-1.67-2.9224 1.054-5.636 1.461-3.3586 0.506-7.0971-0.208-5.0097-0.835 3.0058-0.901 4.801-0.417 7.7233-1.461 2.9224-1.043 6.4709-3.757 7.9321-4.801 1.4612-1.043 5.5963-3.122 6.0534-0.835z" fill="#DBC9A5"/>
<path d="m63.496 510.64c-1.7409 1.624-5.4272 4.801-6.2622 7.515-0.8349 2.713-3.131 8.976-5.4272 9.811-2.2961 0.835-0.2087-1.253 0.6262-3.34 0.835-2.088 1.67-2.714 1.4612-3.966-0.2087-1.253-2.5049-1.253-3.966-0.626-3.4174 1.446-6.9892 2.497-10.646 3.131-5.1475 0.858-9.1845-0.835-5.4272-1.253 3.7573-0.417 5.4272-1.252 7.9321-1.878 2.5048-0.627 6.4709-2.297 8.3495-3.758 1.8787-1.461 5.8447-2.296 7.9321-6.471 2.0874-4.174 8.5583-2.087 5.4272 0.835z" fill="#E2D0A8"/>
<path d="m122.36 599.15c-1.791 4.476-6.054 12.316-4.384 16.908s3.757 8.141 5.427 10.02c1.67 1.878-2.087 2.505-4.592 1.043-2.505-1.461-10.228-4.801-10.854-7.932-0.627-3.131 1.97-3.438 2.922-7.723 0.835-3.757 3.549-15.655 3.549-16.282 0-0.626 9.184 0.835 7.932 3.966z" fill="#E2D0A8"/>
<path d="m192.71 569.51c0.661 3.09 1.878 10.437 6.679 12.942s7.515 3.757 9.394 3.757c1.878 0-0.835 2.505-3.131 2.714-2.297 0.209-12.107-0.209-14.195 0-2.087 0.209-0.417-3.34-2.087-8.767s-3.966-9.393-2.087-10.646c1.878-1.252 4.801-2.922 5.427 0z" fill="#E2D0A8"/>
<path d="m108.79 445.52c0.209 0.835 2.192 3.861 3.027 4.696 0.532 0.533-4.279-0.939-4.279-1.983 0-1.043 1.252-2.713 1.252-2.713z" fill="#8BC5CD"/>
<path d="m110.88 444.89c-0.208 1.043-0.104 3.652 0.313 4.905 0.238 0.714 2.818-3.236 1.983-4.279-0.835-1.044-2.296-0.626-2.296-0.626z" fill="#8BC5CD"/>
<path d="m116.72 436.75c2.297-0.209 3.966-0.627 4.801-1.462s2.297 10.02 5.219 14.821c2.628 4.317 7.097 10.646 1.252 15.447 0.209 2.296 2.296 6.053 1.67 14.611-0.369 5.037 2.088 4.593 3.966 7.724 1.879 3.131-8.23 9.602-20.039 9.602-2.296 0-0.626-5.428-1.67-7.515-1.043-2.087-12.204-12.291-15.029-23.587-0.6262-2.505 2.2962-9.811-6.8883-17.117 2.9223-3.131 7.5146-5.01 9.1845-7.097 1.4616 2.296 7.7236 6.053 11.69 6.888 5.427-5.01 5.844-12.315 5.844-12.315z" fill="#D8ECEE"/>
<path d="m91.154 448.13c0.2886 0.256 0.532 0.56 0.7202 0.897 0.2087 0.326 0.3924 0.664 0.5761 1.002 0.359 0.683 0.6867 1.38 1.0019 2.088 0.6262 1.406 1.171 2.849 1.6699 4.306 0.497 1.46 0.9151 2.945 1.2525 4.45 0.3131 1.503 0.5636 3.05 0.4174 4.592 0.025-0.768-0.0226-1.536-0.1419-2.296-0.1085-0.759-0.2567-1.511-0.4363-2.258-0.3548-1.493-0.789-2.966-1.2858-4.417s-1.0291-2.893-1.6219-4.311c-0.2943-0.707-0.6053-1.411-0.9435-2.1-0.1691-0.344-0.3402-0.688-0.5323-1.02-0.0939-0.167-0.1962-0.33-0.3027-0.489-0.1023-0.165-0.2282-0.315-0.3736-0.444z" fill="#B2D9DE"/>
<path d="m121.63 435.4c-0.025 0.168-0.025 0.339 0 0.507 0.017 0.169 0.04 0.338 0.071 0.505 0.055 0.334 0.128 0.666 0.209 0.996 0.15 0.664 0.324 1.319 0.509 1.974 0.371 1.307 0.78 2.602 1.23 3.885 0.44 1.284 0.931 2.553 1.476 3.795 0.271 0.626 0.561 1.238 0.883 1.835 0.31 0.604 0.669 1.183 1.073 1.73-0.879-1.044-1.522-2.269-2.102-3.498-0.581-1.23-1.069-2.505-1.528-3.793-0.46-1.288-0.848-2.593-1.186-3.914-0.167-0.66-0.324-1.323-0.455-1.993-0.061-0.334-0.119-0.67-0.159-1.011-0.062-0.336-0.069-0.68-0.021-1.018z" fill="#B2D9DE"/>
<path d="m110.78 449.04c1.252 3.676 4.905 9.834 6.784 13.8 1.755 3.707 2.348 10.577 2.818 13.672 0.522 3.445 2.296 12.107 3.757 13.777" stroke="#8BC5CD" stroke-miterlimit="10" stroke-width=".20874"/>
<path d="m113.38 455.33c0.345 0 0.626-0.28 0.626-0.626s-0.281-0.626-0.626-0.626c-0.346 0-0.627 0.28-0.627 0.626s0.281 0.626 0.627 0.626z" fill="#33858C"/>
<path d="m110.78 449.8c0.346 0 0.626-0.281 0.626-0.626 0-0.346-0.28-0.627-0.626-0.627s-0.626 0.281-0.626 0.627c0 0.345 0.28 0.626 0.626 0.626z" fill="#33858C"/>
<path d="m117.04 462.11c0.346 0 0.627-0.28 0.627-0.626s-0.281-0.626-0.627-0.626-0.626 0.28-0.626 0.626 0.28 0.626 0.626 0.626z" fill="#33858C"/>
<path d="m119.4 470.05c0.346 0 0.626-0.281 0.626-0.627s-0.28-0.626-0.626-0.626-0.626 0.28-0.626 0.626 0.28 0.627 0.626 0.627z" fill="#33858C"/>
<path d="m120.5 477.77c0.346 0 0.626-0.28 0.626-0.626s-0.28-0.627-0.626-0.627-0.627 0.281-0.627 0.627 0.281 0.626 0.627 0.626z" fill="#33858C"/>
<path d="m122.26 485.7c0.345 0 0.626-0.281 0.626-0.626 0-0.346-0.281-0.627-0.626-0.627-0.346 0-0.627 0.281-0.627 0.627 0 0.345 0.281 0.626 0.627 0.626z" fill="#33858C"/>
<path d="m121.73 435.29c2.609-0.745 7.097-0.208 12.316 0 5.218 0.209 20.665-1.043 23.379-1.669 2.713-0.627 26.092-7.098 29.014-8.976 2.923-1.879 5.01 4.592 5.219 5.218 0.208 0.626-12.316 6.68-16.073 8.976-3.758 2.296-13.986 6.262-22.753 7.097s-25.675 2.505-26.51 5.01c-0.423 1.269-6.053-15.238-4.592-15.656z" fill="#D8ECEE"/>
<path d="m183.73 424.02c1.067 1.604 3.549 6.68 4.384 9.394 2.087-1.253 3.757-2.923 4.801-3.966 0-0.835-2.922-5.845-3.549-7.306-1.252 0.835-3.548 1.252-5.636 1.878z" fill="#B2D9DE"/>
<path d="m90.632 448.65c-1.9183 1.624-5.4272 4.383-6.2622 7.306-0.8349 2.922-8.5583 23.17-9.1845 25.883-0.6262 2.714-5.2185 7.306-7.5146 11.064-2.2961 3.757-8.3496 14.194-9.8107 15.237-1.4612 1.044 4.5922 3.758 4.5922 4.384s10.122-10.967 12.316-12.942c4.1748-3.757 6.8884-9.811 7.9321-12.524 1.0437-2.714 7.9321-16.073 10.02-18.16 2.0874-2.088 4.4419-3.161 4.801-4.593 0.6262-2.505-0.4175-11.898-6.8884-15.655z" fill="#D8ECEE"/>
<path d="m58.278 505.22c1.5697 1.376 5.4272 4.801 7.0971 5.845-1.6699 1.252-2.7136 2.296-3.9661 3.131-1.2524-0.626-5.066-4.384-5.4272-4.592 0.6263-0.835 1.2629-2.411 2.2962-4.384z" fill="#B2D9DE"/>
<path d="m108.79 445.52c0 2.713 0.835 4.383 1.461 6.053-3.966-0.835-11.272-4.592-13.777-7.932 0.8349-0.626 1.8786-1.879 2.9223-3.966 2.2966 1.461 5.6356 4.801 9.3936 5.845z" fill="#B2D9DE"/>
<path d="m110.88 444.68c2.113-2.466 4.384-7.097 4.593-8.141 1.252 0 3.548-0.418 4.592-0.835-0.104 4.697-4.279 10.959-6.367 15.342-1.461-1.878-2.4-5.114-2.818-6.366z" fill="#B2D9DE"/>
<path d="m131.96 485.18c2.922 2.296 10.854 10.228 16.908 14.194 5.464 3.582 17.325 12.107 22.335 16.908 5.009 4.801 10.228 19.108 13.359 24.631 3.548 6.262 9.811 13.986 8.141 18.787-1.132 3.252-0.418 7.514 1.043 9.184 1.462 1.67 0.418 5.636-1.461 7.097-1.878 1.461-3.34 5.219-4.383 2.505-1.044-2.713-1.253-6.471-3.549-7.097s-6.262-4.383-5.845-6.888c0.418-2.505-3.966-9.811-5.427-11.69-1.461-1.878-8.038-15.555-8.767-17.743-1.67-5.009-20.874-6.888-30.476-20.873-8.948-13.034-8.14-10.646-8.14-12.942 0-1.317-3.34-8.35-2.714-10.437 5.01-0.418 7.5-6.795 8.976-5.636z" fill="#33858C"/>
<path d="m133.84 507.3c0.417 7.515 3.072 35.576 4.175 38.408 2.922 7.515-1.119 10.02-0.418 15.864 0.626 5.219-3.131 8.141-4.801 12.107s0 5.219 0 6.68-1.044 2.505-2.505 3.757c-1.461 1.253 1.253 3.757 0 5.845-1.252 2.087 0.864 3.029-0.417 5.01-2.296 3.548-5.636 3.851-7.515 7.932-1.252 2.713-2.296 4.801-3.131 6.888-2.505-0.417-7.097-2.505-8.349-2.922 0.835-4.175 2.296-6.471 1.461-8.559-1.505-3.757 1.584-6.604-0.626-9.184-2.505-2.923 3.131-4.384 3.131-7.724 0-3.339 0.158-13.359 2.296-15.237 3.34-2.923 6.053-13.151 5.218-15.865-0.835-2.713-17.534-30.267-11.898-50.932 0.868-3.183 0.418-7.097 3.34-7.097 1.826 0 8.558-1.461 11.689-1.879 1.044 3.131 4.305 6.237 5.01 8.35 1.879 5.636 3.34 8.558 3.34 8.558z" fill="#33858C"/>
<path d="m134.36 515.13c-1.044-2.713-1.253-4.592-1.044-6.053l1.044 6.053z" fill="#2D6D72"/>
<path d="m129.95 552.28c2.816-1.488 4.887-1.143 6.874 0.451l-6.874-0.451z" fill="#2D6D72"/>
<path d="m170.45 526.51c-0.234-3.257 0.998-4.958 3.409-5.987l-3.409 5.987z" fill="#2D6D72"/>
<path d="m111.72 492.28c2.713-0.209 11.898-0.943 14.82-3.131 2.505-1.879 3.549-2.922 5.219-4.175 0.626 0.627 1.461 1.044 2.087 1.879-0.835 1.67-5.845 5.427-9.602 6.471s-11.689 1.879-12.942 1.252c0 0 0-2.087 0.418-2.296z" fill="#49351D"/>
<path d="m199.6 589.76c0.835 1.044 1.252 3.34 1.878 3.757 0.627 0.418-7.306 2.297-7.932 2.923-0.069 0.071-2.296-3.758-2.505-4.801-0.208-1.044 8.559-1.879 8.559-1.879z" fill="#3F2A14"/>
<path d="m189.37 584.96c2.745 0 11.48-1.461 11.898-2.296 0.417-0.835 4.801 2.505 6.471 2.296s6.471-0.626 8.141-1.252c1.67-0.627 3.339 0.417 4.592 0.835 1.01 0.338-2.714 1.878-5.845 3.548-3.321 1.772-6.262 2.922-7.932 2.714-1.67-0.209-3.548-0.418-6.262 0-2.714 0.417-7.515 2.713-8.558 2.713-1.044 0-4.175-4.592-2.505-8.558z" fill="#49351D"/>
<path d="m115.89 623.99c-0.209 1.461-1.044 3.34-1.461 5.01-0.209 0.81-8.767-3.131-9.185-3.757-0.417-0.627 0.604-5.071 1.034-5.772s9.612 4.519 9.612 4.519z" fill="#3F2A14"/>
<path d="m109.21 613.55c2.252 1.931 6.174 4.637 9.602 2.923 0.835-0.418 3.131 6.262 4.174 7.723 1.044 1.461 7.306 7.306 8.35 8.35 1.044 1.043 0.835 1.67 1.044 2.713 0.208 1.044-7.097-2.505-8.559-2.713-1.461-0.209-3.966-1.044-4.801-2.088-1.669-2.087-1.878-2.713-5.218-4.592-2.365-1.33-8.141-3.549-8.141-4.801 0-2.296 1.879-5.845 3.549-7.515z" fill="#49351D"/>
<path d="m113.91 590.9c-0.086 0.543-0.28 1.062-0.57 1.528-0.291 0.467-0.672 0.87-1.121 1.186 0.179-0.61 0.257-1.244 0.23-1.879 0-1.217 1.461-0.835 1.461-0.835z" fill="url(#d)"/>
<path d="m117.24 580.32c-0.417 1.344-1.555 2.184-2.897 2.774 0.388-0.887 0.501-1.112 0.565-2.025 0.096-1.327 2.332-0.749 2.332-0.749z" fill="url(#c)"/>
<path d="m113.7 602.8c-0.209 1.252-1.065 1.878-1.9 2.504 0.179-0.609 0.257-1.244 0.23-1.878 0-1.217 1.67-0.626 1.67-0.626z" fill="url(#b)"/>
<path d="m192.39 565.65c-0.626 1.461-5.427 5.845-6.262 7.306-2.713-3.131 5.427-7.723 5.845-8.558 0.975-1.948 0.417 1.252 0.417 1.252z" fill="url(#a)"/>
<path d="m190.2 591.01c-0.626 1.044-2.505 0.14-2.505 2.505 0 1.684-1.461-2.714-1.043-3.549 0.417-0.835 1.043-1.252 1.878-1.878 1.426-1.069 1.67 2.922 1.67 2.922z" fill="#B276A3"/>
<path d="m193.12 559.49c-1.043 0.835-8.349 9.811-11.063 10.646 0.418 1.67 2.087 2.922 2.296 3.34 0.209 0.417 7.932-7.932 8.559-8.559 0.626-0.626 0.208-5.427 0.208-5.427z" fill="#C985B5"/>
<path d="m194.38 570.97c-0.835 1.879-6.888 6.471-7.306 6.888-0.417 0.418 0.209 2.923 1.879 2.296 1.67-0.626 6.053-5.009 6.053-6.053s-0.626-3.131-0.626-3.131z" fill="#C985B5"/>
<path d="m196.04 578.9c0.561 0.818 1.269 1.526 2.087 2.087 0.835 0.626-4.801 7.932-8.349 10.855-1.253-1.67-1.253-3.758-1.253-3.758s7.097-8.349 7.515-9.184z" fill="#C985B5"/>
<path d="m188.63 588.19c1.134-1.294-3.131 1.044-2.922 2.922 0.115 1.044 1.983 10.124-3.653 15.134-2.597 2.309-16.816 14.332-18.014 16.386-0.626 11.272-10.366 11.241-12.566 18.786-1.461 5.01 3.131 8.141 4.801 13.777 0.626 2.1-0.059 11.379 2.087 7.515 3.131-5.636-1.705-13.685-3.34-17.326-3.442-7.667 10.855-11.063 11.481-20.038 0.173-2.505 0.626-3.967 2.818-5.95 1.889-1.709 9.811-9.393 10.854-10.436 1.044-1.044 2.142-1.992 5.01-4.384 2.505-2.087 3.757-5.636 3.34-10.646-0.313-3.742-1.357-4.07 0.104-5.74z" fill="#C985B5"/>
<path d="m187.7 601.24c-4.175 4.384-7.481 7.379-11.168 9.08-2.713 1.253-6.988 4.087-8.976 6.471-2.087 2.505-3.131 3.757-3.548 6.054 1.461-2.505 2.922-1.253 5.218-3.34 4.697-4.269 9.811-5.845 13.673-10.124 1.384-1.534 4.592-6.262 4.801-8.141z" fill="#B276A3"/>
<path d="m133.84 572.64c-4.801 3.131-12.942 4.383-19.413 5.636 0 1.669 0.163 2.127 0 3.757 1.044-0.209 17.534-3.34 17.952-3.966-0.418-1.461 0-3.34 1.461-5.427z" fill="#C985B5"/>
<path d="m130.29 584.12c-0.178 0.781-0.209 2.296 0.417 3.34-0.208 1.044-17.742 5.427-18.577 5.219 0-1.253 0.417-1.879 0-2.505-0.579-0.869 10.228-2.923 18.16-6.054z" fill="#C985B5"/>
<path d="m126.54 598.94c-0.662 0.361-2.505 1.67-3.549 3.548-1.461 0.418-11.689 2.296-11.898 1.67 0.835-1.252 0.627-2.505 1.044-3.131 0.418-0.626 16.699-3.34 14.403-2.087z" fill="#C985B5"/>
<path d="m112.13 601.03c-2.505 1.252-1.462 5.427-4.175 7.306-2.714 1.879-12.733 7.515-25.675 10.854-12.942 3.34-26.719 9.394-31.102 17.743-4.3835 8.35 3.9661-1.878 6.2622-3.34 2.2961-1.461 11.712-7.176 18.995-8.558 12.107-2.296 21.625-6.36 25.884-8.767 4.801-2.714 9.811-5.636 9.811-12.733v-2.505z" fill="#C985B5"/>
<path d="m61.826 631.09c-5.6359 2.505-6.8779 1.475-8.9757 3.339-5.636 5.01-9.1845 12.316-9.8108 20.874-0.6262 8.559-0.4174 11.898-4.801 15.656-4.3835 3.757 4.1414 1.517 6.4709-6.054 1.67-5.427 0.9978-11.351 2.9224-17.534 2.9223-9.393 6.4709-8.975 14.194-16.281z" fill="#B276A3"/>
<path d="m110.46 497.08c-3.548 3.549-6.471 11.272-7.306 16.908-0.824 5.561-0.209 14.631-0.209 11.063 0-3.34 0.927-6.594 1.67-9.81 0.627-2.714 2.088-6.263 5.428-11.064 2.198-3.158 0.417-7.097 0.417-7.097z" fill="#B276A3"/>
<path d="m108.17 500c-1.879 4.592-5.845 15.238-4.801 25.048 0.822 7.724 2.505 24.005-6.8887 34.442-9.3932 10.437-27.023 23.767-31.102 28.806-3.5486 4.384-7.5146 12.733-7.7233 18.787-0.2088 6.053-3.3399-6.889 2.0874-16.491 5.4272-9.602 17.116-18.995 21.709-22.752 4.5923-3.758 18.883-16.138 17.534-29.85-1.2525-12.733-0.6095-20.874 2.2958-27.345 2.714-6.053 6.889-10.645 6.889-10.645z" fill="#C985B5"/>
<path d="m64.122 589.76c-2.2962 7.932-4.3835 14.403-2.2962 26.301 2.0874 11.899 11.898 25.675 6.6797 39.452s-18.995 15.029-22.961 23.379c-3.966 8.349-2.0874-3.757-0.8349-6.054 1.2524-2.296 17.743-9.81 19.413-16.281s2.5048-17.326-2.2962-27.971c-4.801-10.646-7.932-25.258-4.3835-32.146 1.6278-2.754 3.9256-5.052 6.6797-6.68z" fill="#B276A3"/>
<path d="m130.08 480.17c-0.259 1.034 0.418 3.131 1.461 4.384 1.044 1.252-12.942 15.238-22.544 20.874 0.209-4.384 1.253-7.306 1.462-8.35 0.208-1.043 9.854-6.878 12.941-9.602 3.549-3.131 7.098-8.976 6.68-7.306z" fill="#C985B5"/>
<path d="m110.66 410.65c0.163 0.758 0.336 1.496 0.532 2.227s0.418 1.461 0.655 2.171c0.238 0.71 0.493 1.424 0.775 2.123 0.284 0.706 0.612 1.394 0.981 2.06-0.576-0.53-1.057-1.155-1.422-1.847-0.377-0.682-0.688-1.399-0.928-2.14-0.245-0.739-0.425-1.498-0.537-2.269-0.122-0.769-0.141-1.551-0.056-2.325z" fill="#CCB793"/>
<path d="m375.1 130.61c-20.695 5.863-37.573-9.602-34.234-19.204 3.34-9.602 20.666-14.194 37.573-13.359 16.908 0.8349 14.612-14.403 26.719-16.699 12.107-2.2962 23.17-3.9661 33.816 15.447 10.645 19.413 25.466 7.5148 35.277 15.238 9.81 7.724 21.708 23.796-17.952 24.423-39.66 0.626-68.675-9.394-81.199-5.845z" fill="#fff"/>
<path d="m788.86 96.237c51.736-2.4636 95.036 5.1177 106.37-5.8484 11.331-10.966 26.139-29.71 55.925-24.49 35.456 6.2139 45.691 29.607 68.356 30.338 31.59 1.0198 42.7-11.974 71.27-8.0415 39.85 5.4829 38.38 22.662 63.61 22.297 25.22-0.366 116.23 18.276 54.82 32.531-61.4 14.256-91.38-4.02-118.43 0-27.04 4.021-43.86 16.083-116.96 10.235-73.105-5.848-58.849-21.566-108.93-20.104s-65.794 1.462-86.629-6.945-20.104-28.511 10.6-29.973z" fill="#fff"/>
<path d="m331.63 287.79c-38.393-5.252-54.085-7.062-66.423-14.411-16.456-9.803-29.76-24.693-52.367-20.723-26.888 4.723-36.229 23.619-53.178 23.219-23.629-0.56-30.964-14.837-52.559-12.166-30.11 3.725-30.271 21.924-49.051 20.233-18.78-1.691-88.001 13.273-43.26 31.486s68.43 0.479 88.302 6.106c19.872 5.626 31.531 19.231 86.478 16.84s45.455-19.708 82.686-15.58 48.949 4.944 65.1-2.85c16.151-7.793 17.057-29.024-5.728-32.154z" fill="#fff"/>
<path d="m753.81 419.47c-20.582 11.578-3.538 42.451 34.732 30.552s37.511 9.246 55.315 2.251c18.009-7.075 8.04-35.376-18.975-32.803-27.014 2.573-21.225-24.441-44.38-18.652-23.155 5.788-9.033 8.718-26.692 18.652z" fill="#fff"/>
<path d="m876.11 38.869c0.432 5.8322-0.209 8.3495 3.549 13.359 2.757 3.678 0.308 5.6192-1.161 8.8547-0.718 1.5822-2.762 7.1451-5.31 6.3832-4.991-1.4904-12.942-11.833-11.898-12.733 2.922-2.5048 3.966-5.2184 4.383-8.9757 0.43-3.8763-1.914-9.602-2.586-10.823-0.672-1.2212 12.683-0.6492 13.023 3.9347z" fill="#E2D0A8"/>
<path d="m863.67 36.479c-0.466-1.2357 13.376 2.9057 12.86 4.895-0.547 2.1103 0 2.7136 0.031 4.6945 0.019 1.217-7.967-0.7869-11.497-5.6652-0.488-1.8619-0.929-2.6885-1.394-3.9243z" fill="#DBC9A5"/>
<path d="m862.78 8.4269c5-1.7138 9.452-2.9077 14.612 3.6133 2.603 3.2959 2.979 9.865 5.471 13.246 0.967 1.313 2.1 4.9805 1.835 8.1555-0.225 2.7136-0.017 6.8883-2.104 8.3495-2.605 1.8244-14.363-1.3171-15.992-2.0728-2.995-1.3881-4.396-5.805-6.093-8.266-1.697-2.4611-5.168-6.0535-4.734-13.338 0.263-4.4733 3.252-8.4018 7.005-9.6876z" fill="#E2D0A8"/>
<path d="m857.25 29.466c-1.432 3.2376 2.573 6.2037 4.801 6.0702 1.108-0.0689 0.954-0.8914 0.198-1.6867-1.219-1.2837-0.948-2.5925-2.031-4.062-1.309-1.7659-2.649-1.0416-2.968-0.3215z" fill="#DBC9A5"/>
<path d="m859.41 25.928c0.374 0.7473 0.626 1.8786-0.626 2.5049-1.253 0.6262-2.922 1.2524-3.131-0.4175s-0.626 0.4175-1.879-2.0874c-1.252-2.5049-3.34-1.8787-2.505-3.7573 0.835-1.8787 0.209-2.5049-0.626-3.3398-0.835-0.835-1.044-3.9661 0-3.9661s-1.461-1.8786-0.209-3.131c1.253-1.2525 3.34-1.67 2.923-3.1311-0.418-1.4612 1.043-3.1311 1.67-2.7136 0.626 0.41748-0.627-3.5486 1.043-3.966 1.67-0.41747 3.34-0.41747 3.549 0.41748 0.209 0.83496 1.044-1.6699 1.879-1.4612 0.834 0.20874 2.504-0.20874 3.131 0.62622 0.626 0.83495 0.417-1.8787 2.296-1.4612 1.878 0.41748 3.34-0.20874 3.34 1.8786 0 2.0874 2.296-0.20873 3.548 0.41748 1.253 0.62622 1.044 2.0874 2.087 1.6699 1.044-0.41747 3.132 0.41748 2.923 1.4612-0.209 1.0437-1.67 2.0874-0.835 2.5049s2.922 2.0874 2.713 3.131c-0.208 1.0437 0.209 2.0874 1.044 2.2962 0.835 0.2087-1.67 0.2087-2.296-1.2525-0.626-1.4611 0.209-0.6262-0.626 0s1.252 2.7136 0 2.2962c-1.188-0.3966-0.835-1.8787-2.505-2.5049s-1.461 0.4363-2.922 0.8349c-2.297 0.6263-1.67-0.6262-3.758 0.4175-1.252 0.6262 0 1.8787-1.878 2.0874-0.927 0.1023-4.384 0.0605-4.384 1.4612 0 1.2524-1.044 2.5049-2.505 2.9223-1.221 0.3486-0.417 2.0874-0.835 2.9224-0.417 0.8349-1.252 2.0874-0.626 3.3398z" fill="#3F2A14"/>
<path d="m874.46 23.339c0.29 0.7202 0.587 1.4173 0.904 2.1062 0.317 0.6888 0.66 1.361 1.014 2.0248 0.355 0.6637 0.731 1.3192 1.128 1.9621 0.4 0.647 0.84 1.2688 1.317 1.8619-0.657-0.4249-1.237-0.9585-1.714-1.578-0.489-0.6081-0.918-1.2617-1.282-1.9517-0.368-0.6853-0.675-1.402-0.916-2.1417-0.252-0.7376-0.404-1.5056-0.451-2.2836z" fill="#CCB793"/>
<path d="m874.97 60.683c-1.084 2.7925-1.991 5.651-2.713 8.5583-0.835 3.3398-11.272 42.165-13.568 46.131s-6.054 6.471-1.67 8.141c4.383 1.67 9.811 4.384 13.359 1.879 3.549-2.505 13.151-25.049 13.359-31.937 0.209-6.8884 2.714-31.102 2.088-34.024-0.626-2.9224-8.558-4.801-10.855 1.2524z" fill="#8BC5CD"/>
<path d="m870.37 59.43c2.087 1.6699 3.34 3.1311 3.34 11.063 0 5.8593-11.481 50.724-13.568 52.811-2.088 2.088-11.272-3.966-11.898-4.801-0.627-0.835 12.941-38.825 13.359-46.131 0.417-7.3058 7.153-14.232 8.767-12.942z" fill="#8BC5CD"/>
<path d="m873.4 64.962c-0.209 5.4272-2.088 28.18-2.923 30.893-0.835 2.7137-5.844 28.806-6.888 30.476" stroke="#65B2BD" stroke-miterlimit="10" stroke-width=".20874"/>
<path d="m873.09 69.658c0.346 0 0.626-0.2803 0.626-0.6262 0-0.3458-0.28-0.6262-0.626-0.6262s-0.626 0.2804-0.626 0.6262c0 0.3459 0.28 0.6262 0.626 0.6262z" fill="#2D6D72"/>
<path d="m872.36 79.574c0.346 0 0.626-0.2804 0.626-0.6262 0-0.3459-0.28-0.6263-0.626-0.6263s-0.627 0.2804-0.627 0.6263c0 0.3458 0.281 0.6262 0.627 0.6262z" fill="#2D6D72"/>
<path d="m871.31 89.593c0.346 0 0.626-0.2804 0.626-0.6263 0-0.3458-0.28-0.6262-0.626-0.6262s-0.626 0.2804-0.626 0.6262c0 0.3459 0.28 0.6263 0.626 0.6263z" fill="#2D6D72"/>
<path d="m869.85 99.404c0.346 0 0.627-0.2804 0.627-0.6262 0-0.3459-0.281-0.6263-0.627-0.6263s-0.626 0.2804-0.626 0.6263c0 0.3458 0.28 0.6262 0.626 0.6262z" fill="#2D6D72"/>
<path d="m867.97 108.17c0.346 0 0.626-0.281 0.626-0.627 0-0.345-0.28-0.626-0.626-0.626s-0.626 0.281-0.626 0.626c0 0.346 0.28 0.627 0.626 0.627z" fill="#2D6D72"/>
<path d="m865.88 117.56c0.346 0 0.627-0.28 0.627-0.626s-0.281-0.626-0.627-0.626c-0.345 0-0.626 0.28-0.626 0.626s0.281 0.626 0.626 0.626z" fill="#2D6D72"/>
<path d="m801.49 245.21c-1.878 3.131-2.713 7.514-2.087 10.019s-7.306-3.757-8.976-5.01c1.67-3.339 3.758-7.932 4.384-10.228s6.679 5.219 6.679 5.219z" fill="#E2D0A8"/>
<path d="m790.84 246.88c2.855 3.116 6.533 5.56 8.902 6.433 2.37 0.872 2.996 5.882 5.918 9.013s5.427 7.097 5.219 9.602c-0.209 2.505-8.976-5.01-11.481-6.053-2.505-1.044-5.219-6.054-6.471-6.471-1.252-0.418-6.262-3.966-6.888-5.219-0.627-1.252 1.878-4.383 4.801-7.305z" fill="#3F2A14"/>
<path d="m794.39 258.98c-0.625 0.763-1.325 1.462-2.087 2.088l-7.306-5.845 1.384-2.891 8.009 6.648z" fill="#3F2A14"/>
<path d="m872.49 126.62c0.801 8.166 3.097 19.229 3.932 25.283 0.835 6.053 2.192 29.954 0.522 35.589-1.279 4.321-9.602 10.855-20.039 14.821-8.842 3.361-37.886 15.551-41.643 15.76-3.757 0.208 0.835-16.073 3.548-17.326 2.714-1.252 32.564-15.238 37.156-17.951-1.879-9.602-2.087-27.971-2.505-36.738-0.417-8.767-0.029-20.212-0.015-22.316 0.015-2.105 19.044 2.878 19.044 2.878z" fill="#1E4E51"/>
<path d="m859.94 126.44c-0.417 8.35-4.175 31.311-10.646 43.001-6.47 11.689-44.252 77.859-45.922 79.738s-11.063-6.471-12.524-6.471c-1.462 0 20.039-50.515 22.961-54.272s16.282-47.593 18.578-53.228c2.296-5.636 8.767-13.36 10.854-16.908 2.087-3.549 16.699 8.14 16.699 8.14z" fill="#1E4E51"/>
<path d="m861.71 126.75c-0.417 2.505-1.044 6.68-1.67 9.394-0.626 0-1.252-0.209-1.878-0.418 0.835-2.922 2.087-9.602 1.878-9.393-0.208 0.209 1.67 0.417 1.67 0.417z" stroke="#1B4849" stroke-miterlimit="10" stroke-width=".20874"/>
<path d="m845.32 114.75c5.461 4.55 13.777 11.689 25.913 8.994 2.505-0.555 1.973 3.676 1.536 3.843-2.713 1.044-12.42 0.522-16.177-0.939s-13.359-7.306-13.359-8.35c0-1.043 0.835-4.592 2.087-3.548z" fill="#49351D"/>
<path d="m911.67 125.07c1.143 2.461 2.605 7.623 5.182 9.393 2.923 2.015 4.931 3.146 4.593 5.248s0.208 5.01-0.374 6.283-1.843 1.006-3.517 0.921c-1.674-0.086-1.403-4.783-2.244-4.384s1.413 4.48 0.371 4.521c-1.041 0.042-2.753-0.935-4.782-4.613s-1.377-3.079-1.803-8.493c-0.426-5.415-4.676-7.331-2.612-8.041 2.065-0.71 5.186-0.835 5.186-0.835z" fill="#E2D0A8"/>
<path d="m915.44 140.79c1.512 1.741 3.223 7.392 3.29 9.06s-1.409 1.311-2.87 1.369c-1.461 0.059-2.171-12.447-0.42-10.429z" fill="#231403"/>
<path d="m913.74 150.47c2.415-1.236 4.989-0.626 7.723-0.311 1.461 4.955-1.077 35.556-3.262 38.362-2.879 1.158-5.845 0.025-7.125-0.549 1.309-8.828 2.315-30.587 2.664-37.502z" fill="#231403"/>
<path d="m821.11 121.84c-1.67 3.131-2.713 6.888-4.174 9.393-1.462 2.505-5.01 5.636-7.515 5.219-2.505-0.418 2.087-2.088 2.922-3.757 0.835-1.67 2.505-3.758 1.044-3.549s-2.714 1.67-5.636 2.714c-2.922 1.043-4.383 5.427-6.262 5.844-1.879 0.418 1.044-5.427 2.505-6.888s2.713-2.505 4.383-4.592c1.67-2.088 7.515-4.175 9.602-7.098 2.088-2.922 3.131 2.714 3.131 2.714z" fill="#E2D0A8"/>
<path d="m882.9 53.377c2.296 0.4175 10.437 1.8787 11.69 2.0874 1.252 0.2087-1.044 27.762-2.296 32.146-1.253 4.3835-7.932 32.146-8.559 38.825-0.626 6.68-1.878 18.787-1.461 21.5-3.966-0.835-11.063-4.592-13.15-5.844 0-8.976 0.864-13.85 2.504-24.84 2.088-13.986 5.428-26.51 6.68-34.233 1.303-8.0385 3.757-27.554 2.922-28.597-0.834-1.0437 1.67-1.0437 1.67-1.0437z" fill="#143233"/>
<path d="m893.33 55.255c1.59 0.3076 3.005 1.2017 3.966 2.5048 1.42 1.9893 3.966 21.083 8.141 36.321 4.175 15.238 10.437 32.563 11.272 34.233s-8.141 4.592-9.393 5.845c-1.253 1.252-16.282-37.156-16.491-46.132-0.208-8.9758 2.505-32.772 2.505-32.772z" fill="#143233"/>
<path d="m860.14 54.629c-3.131 1.0436-10.645 3.131-11.898 3.5485 3.34 5.2185 4.697 13.672 2.192 21.187-1.682 5.0494-6.784 19.308-8.454 24.944-1.511 5.104-11.063 21.5-12.316 23.17 3.966 3.549 10.646 9.393 12.942 11.689 7.724-8.767 10.228-15.655 12.316-21.082 2.087-5.427 8.767-24.84 8.976-29.85 0.208-5.0097 4.174-23.588 2.296-27.345-1.879-3.7573-6.054-6.2621-6.054-6.2621z" fill="#143233"/>
<path d="m849.08 58.117c-2.923 0.478-3.758 2.1479-4.801 4.2353-1.631 3.2605-17.743 34.651-19.204 36.947-1.462 2.2957-10.855 18.161-11.69 19.204-0.835 1.044 9.185 9.185 10.02 9.602 0.835 0.418 14.611-25.257 16.699-28.388 2.087-3.1311 10.75-13.046 13.15-23.796 1.347-6.0325-4.174-17.803-4.174-17.803z" fill="#143233"/>
<path d="m879.77 51.289c-0.626 1.0437-5.01 8.767-6.054 9.1845 1.462 1.4612 3.549 5.0097 4.175 7.0971 1.461-3.966 6.262-13.15 7.097-15.029-1.461-0.2087-4.174-0.8349-5.218-1.2524z" fill="#65B2BD"/>
<path d="m872.25 60.265c-0.627 1.8787-1.67 3.7573-2.088 6.6796-2.713-2.7136-10.645-10.228-11.898-12.524 1.67-0.6262 4.175-1.8786 4.592-2.2961 1.67 2.5049 7.097 6.8884 9.394 8.1408z" fill="#65B2BD"/>
<path d="m854.09 157.12 0.482-2.685c0.154-0.893 0.311-1.786 0.455-2.682 0.144-0.895 0.292-1.789 0.434-2.684l0.418-2.697c0.026 0.913-4e-3 1.827-0.09 2.736-0.077 0.908-0.209 1.814-0.347 2.714-0.137 0.9-0.329 1.795-0.549 2.68-0.213 0.889-0.481 1.763-0.803 2.618z" fill="#143233"/>
<path d="m821.22 196.68c2.923 0.626 5.219 1.879 6.054 3.549l-6.054-3.549z" fill="#143233"/>
<defs>
<linearGradient id="d" x1="112.45" x2="113.44" y1="591.2" y2="592.92" gradientUnits="userSpaceOnUse">
<stop stop-color="#2D6D72" offset="0"/>
<stop stop-color="#1D4649" stop-opacity=".64" offset=".39"/>
<stop stop-opacity="0" offset="1"/>
</linearGradient>
<linearGradient id="c" x1="1267.8" x2="1281.1" y1="3254.3" y2="3277.3" gradientUnits="userSpaceOnUse">
<stop stop-color="#2D6D72" offset="0"/>
<stop stop-color="#1D4649" stop-opacity=".64" offset=".39"/>
<stop stop-opacity="0" offset="1"/>
</linearGradient>
<linearGradient id="b" x1="840.66" x2="854.37" y1="3329.4" y2="3346.4" gradientUnits="userSpaceOnUse">
<stop stop-color="#2D6D72" offset="0"/>
<stop stop-color="#1D4649" stop-opacity=".64" offset=".39"/>
<stop stop-opacity="0" offset="1"/>
</linearGradient>
<linearGradient id="a" x1="188.31" x2="190.01" y1="567.37" y2="569.08" gradientUnits="userSpaceOnUse">
<stop stop-color="#2D6D72" offset="0"/>
<stop stop-color="#296367" stop-opacity=".91" offset=".16"/>
<stop stop-color="#1D474A" stop-opacity=".65" offset=".44"/>
<stop stop-color="#0B1B1C" stop-opacity=".24" offset=".81"/>
<stop stop-opacity="0" offset="1"/>
</linearGradient>
</defs>
</svg>
