<?xml version="1.0" encoding="UTF-8"?>
<svg fill="none" viewBox="0 0 189 269" xmlns="http://www.w3.org/2000/svg">
<path d="m82.219 11.179c-0.9038-3.2752-4.8114-8.3266-8.5583-10.02-6.4709-2.9224-13.986 0.20874-16.908 3.5486-2.8305 3.2354-5.8447 6.2621-5.8447 19.83 0 13.568-7.7233 24.005-15.029 29.641-7.3059 5.6359-10.042 17.59-9.0801 24.318 0.0814 0.5677 0.9873 2.4631 1.2399 2.6384-0.1962-4.5171 0.7013-5.7904 1.3568-7.2891-0.2881 1.2169-1.3443 4.4419-0.8225 7.4519 0.4261-0.0103 0.8482-0.0842 1.2525-0.2191 0.3173-5.7132 2.0623-10.46 2.6906-11.735-0.5406 2.5716-1.5384 6.2308-1.7847 11.481 0.3659-0.0972 0.7385-0.1669 1.1147-0.2087 0.0939-3.3253 0.6638-9.0948 3.5151-13.194 2.8514-4.0997 6.8884-7.5146 11.272-14.194-1.6699 3.9661-3.9347 6.1703-7.932 11.689-3.7824 5.2185-4.92 9.8233-4.7614 16.027 0.8109 0.3212 1.6906 0.429 2.555 0.3131 0.1127-3.5486 1.1355-9.3933 2.9369-12.27-1.087 3.896-1.5388 7.9418-1.338 11.982 0.2213-0.0438 0.4384-0.0835 0.6596-0.1148-0.1106-1.7764 0.0752-3.1666 0.261-3.726-0.138 1.2275-0.0909 2.4687 0.1398 3.6822 0.6627-0.0664 1.3314 0.0311 1.9476 0.2839 0.694 0.3376 1.3544 0.7402 1.9725 1.2023 0.0522-2.0874 0.4405-5.3437 1.8787-8.4038 1.8786-3.9661 4.2979-7.1285 5.8447-9.602-1.1335 2.8305-2.9224 5.0097-4.5923 8.3495-1.6448 3.2898-2.2377 7.4478-2.2961 10.253 3.0789 2.2126 7.4165 5.4272 10.758 4.6716 2.0978-0.476 4.0203-0.0376 5.709 0.5594-0.3862-3.3774 1.7158-10.04 2.6072-11.401-0.5177 2.7512-1.7409 8.4414-0.9832 12.028 1.1877 0.4801 2.221 0.9018 3.0726 0.9101-0.2713-2.3525-0.2484-5.3896 0.3194-6.8884-0.119 1.1272-0.3924 6.9928 0.4363 6.7819 2.7136-3.7572 1.1898-3.2688 1.5718-8.243 0.4174-5.4273 8.7294-11.51 10.731-19.427 2.0018-7.9174 5.9679-10.422 2.4193-23.364-1.4883-5.4147 3.3378-21.287 1.6678-27.341z" fill="#231403"/>
<path d="m38.698 51.987c-4.801 3.966-8.0531 3.9243-11.898 5.8447-4.5922 2.2961-7.0971 6.6796-7.3058 8.9758 2.7136-5.4272 7.1472-7.857 10.646-8.5583 3.1311-0.6262 5.8447-1.4612 7.5146-3.3399 1.6699-1.8786 1.0437-2.9223 1.0437-2.9223z" fill="#231403"/>
<path d="m31.809 56.997c-3.5486 1.6699-7.0971 4.1748-7.7234 6.4709 1.0437-1.2524 1.6699-2.0874 3.5486-3.1311 1.8244-1.0124 4.3835-1.4612 6.8884-2.5048 2.5048-1.0437-2.7136-0.835-2.7136-0.835z" fill="#231403"/>
<path d="m50.98 21.129c-0.1754 4.9743-2.2628 8.7316-4.1414 10.61 2.5048-1.2524 4.7738-5.7674 4.5922-8.1408-0.2087-2.7136-0.4508-2.4694-0.4508-2.4694z" fill="#231403"/>
<path d="m28.887 64.303c-1.8786 2.2961-3.7573 7.9321-3.1311 11.063 0.2088-2.7136 0.835-5.2184 2.0874-7.3058 1.9538-3.2543 1.0437-3.7573 1.0437-3.7573z" fill="#231403"/>
<path d="m78.044 38.315c0.2087 5.8447 1.8786 11.481 7.932 10.646 4.3627-0.6011-1.4611 10.228-4.1747 12.524-2.7136 2.2961-16.789-3.6738-15.656-5.4273 1.1335-1.7534 3.0268-5.1141 3.5486-7.7233 0.764-3.822-1.6699-12.316-2.2961-13.568-0.6262-1.2525 10.481-1.0437 10.646 3.5485z" fill="#E2D0A8"/>
<path d="m67.921 36.332c-0.4175-1.2524 11.236 2.6239 10.646 4.5923-0.6262 2.0874 1.2524 3.966 0.4175 5.2185-0.6763 1.0144-6.6797-1.0437-10.02-6.0535-0.2657-1.2738-0.6143-2.5289-1.0437-3.7573z" fill="#DBC9A5"/>
<path d="m69.695 5.9602c5.2185-0.83496 9.8108-1.2524 13.777 6.0534 2.0039 3.6926 1.2524 10.228 3.1311 13.986 0.7285 1.4612 1.8411 5.5003 0.4175 8.3495-1.4612 2.9224-1.8787 6.0535-4.801 7.9321-2.674 1.72-11.257-3.1519-12.733-4.1748-2.7136-1.8786-3.3398-6.4709-4.5923-9.1845-1.2524-2.7136-5.4272-7.5146-3.7573-14.612 1.027-4.3626 4.6424-7.7212 8.5583-8.3496z" fill="#E2D0A8"/>
<path d="m80.236 13.37c0.6033 1.411 1.2065 3.5965 1.0604 5.4272h0.4884c0.1149-0.6596 0.0856-1.2963-0.0876-2.5049 0.2281 0.8177 0.3681 1.6574 0.4175 2.5049 1.106 0.0051 2.209 0.1162 3.2939 0.3319 0.0143-0.5329-0.0031-1.0661-0.0522-1.5969 0.1054 0.5404 0.1821 1.086 0.2296 1.6345 0.3214 0.073 0.6262 0.1565 0.9184 0.2525-0.8349-8.1408-3.7928-13.025-8.6063-14.267-6.8884-1.7784-14.591 1.4612-17.117 7.7797-1.7763 4.4441 0.1211 9.7398 2.3442 14.628 0.6262-0.3882 1.2315-0.8015 1.8118-1.2232-0.3966-2.0039-0.6721-6.6796-0.2692-7.6001-0.2317 1.768 0.0855 4.0411 0.4947 6.7422 0 0.0167 0.0668 0.3006 0.1315 0.597 1.2879-0.9581 2.4798-1.958 3.6529-2.8848-0.0146-0.0438-0.0292-0.0876-0.0438-0.1356-0.5323-1.718-0.4864-3.0664-0.3507-3.845 0.0337 1.2796 0.2625 2.5467 0.6784 3.7573 0.9701-0.7797 1.9972-1.4859 3.0726-2.1125-0.4174-2.5674-0.2087-5.6902 0.1023-7.7233-0.0522 1.0834 0.0919 5.327 0.5427 7.3831 0.534-0.2678 1.0881-0.4933 1.6574-0.6742 1.9166-0.5709 3.8952-0.908 5.8927-1.0041 0.3277-1.3755-0.0626-4.6653-0.263-5.4668z" fill="#231403"/>
<path d="m62.389 27.46c-1.6699 2.5048 1.4612 5.4272 3.3398 5.6359 0.9394 0.1044 1.2525-0.3715 0.7306-1.148-0.8349-1.2525-0.7681-2.3692-1.4612-3.7573-0.8349-1.6699-2.2397-1.2859-2.6092-0.7306z" fill="#DBC9A5"/>
<path d="m153.4 37.688c4.592-1.6699 7.723-3.3398 8.349-5.0097s2.296-5.8447 3.131-6.2622c0.835-0.4174 4.384-1.4611 5.01-2.2961 0.626-0.8349 4.592 0.4175 5.636 0s7.723-1.8786 8.976-2.2961c1.252-0.4175 0.417 1.2524-2.296 2.2961-2.714 1.0437-6.889 1.6699-7.932 2.7136-1.044 1.0437-3.132 2.0874-4.384 2.0874s3.757-0.6262 5.218-0.6262c1.462 0 4.384 0.4175 5.845 0s-0.626 1.6699-3.966 1.4612c-3.34-0.2088-5.845 1.8786-7.097 1.6699-1.252-0.2088 1.044 5.0097 0 6.4709s-2.922 0.8349-4.384 0.6262c-1.461-0.2087-6.888 3.3398-8.349 4.5923-1.461 1.2524-5.613-4.753-3.757-5.4273z" fill="#E2D0A8"/>
<path d="m168.43 34.14c1.42 0.4071 2.714 1.4612 3.966 1.2524 1.253-0.2087 4.302-0.67 5.427-1.6699 1.879-1.6699 3.106-0.6262-0.208 2.0874-2.296 1.8787-5.448 2.2962-6.471 2.5049-2.088 0.4175-3.34 0.6262-5.636 0.2087-1.768-0.3235 1.461-4.801 2.922-4.3835z" fill="#E2D0A8"/>
<path d="m168.85 25.999c1.841-1.288 5.636-4.5923 6.053-5.2185 0.418-0.6262 4.244-2.2711 5.845-3.3398 1.878-1.2525 3.548-2.0874 2.296 0-1.253 2.0874-3.966 2.8847-4.801 3.5485-1.044 0.835-2.922 3.5486-3.757 4.1748s-7.724 2.2961-5.636 0.835z" fill="#E2D0A8"/>
<path d="m22.312 130.37c0.6262 3.131-3.7155 6.68-7.3058 8.559-4.3836 2.296-1.0437-0.627 1.2524-2.714s-2.5237 1.223-5.0097 2.714c-4.1748 2.505-8.312 1.626-7.0972 1.252 2.7136-0.835 5.5128-2.547 7.0972-3.34 3.3398-1.67-2.9224 1.054-5.636 1.461-3.3586 0.506-7.0971-0.208-5.0097-0.835 3.0058-0.901 4.801-0.417 7.7233-1.461 2.9224-1.043 6.4709-3.757 7.9321-4.801 1.4612-1.043 5.5963-3.122 6.0534-0.835z" fill="#DBC9A5"/>
<path d="m31.496 122.64c-1.7409 1.624-5.4272 4.801-6.2622 7.515-0.8349 2.713-3.131 8.976-5.4272 9.811-2.2961 0.835-0.2087-1.253 0.6262-3.34 0.835-2.088 1.67-2.714 1.4612-3.966-0.2087-1.253-2.5049-1.253-3.966-0.626-3.4174 1.446-6.9892 2.497-10.646 3.131-5.1475 0.858-9.1845-0.835-5.4272-1.253 3.7573-0.417 5.4272-1.252 7.9321-1.878 2.5048-0.627 6.4709-2.297 8.3495-3.758 1.8787-1.461 5.8447-2.296 7.9321-6.471 2.0874-4.174 8.5583-2.087 5.4272 0.835z" fill="#E2D0A8"/>
<path d="m90.361 211.15c-1.791 4.476-6.0534 12.316-4.3835 16.908s3.7573 8.141 5.4272 10.02c1.6699 1.878-2.0874 2.505-4.5923 1.043-2.5048-1.461-10.228-4.801-10.854-7.932s1.9705-3.438 2.9224-7.723c0.8349-3.757 3.5485-15.655 3.5485-16.282 0-0.626 9.1845 0.835 7.9321 3.966z" fill="#E2D0A8"/>
<path d="m160.71 181.51c0.661 3.09 1.878 10.437 6.679 12.942s7.515 3.757 9.394 3.757c1.878 0-0.835 2.505-3.131 2.714-2.297 0.209-12.107-0.209-14.195 0-2.087 0.209-0.417-3.34-2.087-8.767s-3.966-9.393-2.087-10.646c1.878-1.252 4.801-2.922 5.427 0z" fill="#E2D0A8"/>
<path d="m76.792 57.519c0.2087 0.8349 2.1917 3.8616 3.0267 4.6966 0.5323 0.5323-4.2792-0.9393-4.2792-1.983s1.2525-2.7136 1.2525-2.7136z" fill="#8BC5CD"/>
<path d="m78.879 56.892c-0.2088 1.0437-0.1044 3.653 0.3131 4.9054 0.2379 0.7139 2.818-3.2355 1.983-4.2792s-2.2961-0.6262-2.2961-0.6262z" fill="#8BC5CD"/>
<path d="m84.724 48.752c2.2962-0.2087 3.9661-0.6262 4.801-1.4612 0.835-0.8349 2.2962 10.02 5.2185 14.82 2.628 4.3167 7.0971 10.646 1.2524 15.447 0.2088 2.2961 2.2962 6.0534 1.6699 14.612-0.3694 5.0369 2.0874 4.5923 3.9658 7.7233 1.879 3.1314-8.2303 9.6024-20.039 9.6024-2.2962 0-0.6263-5.428-1.67-7.515-1.0437-2.0874-12.205-12.29-15.029-23.588-0.6262-2.5048 2.2962-9.8107-6.8883-17.117 2.9223-3.131 7.5146-5.0097 9.1845-7.0971 1.4611 2.2962 7.7233 6.0535 11.689 6.8884 5.4273-5.0097 5.8447-12.316 5.8447-12.316z" fill="#D8ECEE"/>
<path d="m59.154 60.128c0.2886 0.2568 0.532 0.5602 0.7202 0.8976 0.2087 0.3256 0.3924 0.6638 0.5761 1.0019 0.359 0.6826 0.6867 1.3798 1.0019 2.0874 0.6262 1.4069 1.171 2.8493 1.6699 4.3063 0.497 1.4599 0.9151 2.9455 1.2525 4.4503 0.3131 1.5029 0.5636 3.0497 0.4174 4.5923 0.025-0.7682-0.0226-1.537-0.1419-2.2962-0.1085-0.7598-0.2567-1.5112-0.4363-2.2585-0.3548-1.4925-0.789-2.9662-1.2858-4.4169-0.4968-1.4508-1.0291-2.8932-1.6219-4.3105-0.2943-0.7076-0.6053-1.4111-0.9435-2.0999-0.1691-0.3444-0.3402-0.6889-0.5323-1.0208-0.0939-0.1669-0.1962-0.3298-0.3027-0.4884-0.1023-0.1655-0.2282-0.3153-0.3736-0.4446z" fill="#B2D9DE"/>
<path d="m89.629 47.395c-0.0251 0.1681-0.0251 0.339 0 0.5072 0.0167 0.1691 0.0396 0.3381 0.0709 0.5051 0.0543 0.334 0.1274 0.6659 0.2088 0.9957 0.1503 0.6638 0.3235 1.3193 0.5093 1.9747 0.3702 1.3067 0.78 2.6016 1.2295 3.8846 0.4404 1.2838 0.9309 2.5529 1.4758 3.7949 0.2713 0.6262 0.5615 1.2378 0.8829 1.8348 0.3105 0.6047 0.6693 1.1834 1.0729 1.7305-0.8788-1.0437-1.5217-2.269-2.102-3.4985s-1.0687-2.5049-1.5279-3.7928c-0.4593-1.2879-0.8475-2.5925-1.1857-3.9138-0.167-0.6597-0.3235-1.3235-0.455-1.9935-0.0606-0.334-0.119-0.6701-0.1587-1.0103-0.0622-0.3362-0.0692-0.6802-0.0208-1.0186z" fill="#B2D9DE"/>
<path d="m78.775 61.044c1.2524 3.6759 4.9054 9.8337 6.784 13.8 1.7555 3.7072 2.3483 10.577 2.818 13.672 0.5218 3.4442 2.2961 12.107 3.7573 13.777" stroke="#8BC5CD" stroke-miterlimit="10" stroke-width=".20874"/>
<path d="m81.384 67.33c0.3459 0 0.6262-0.2804 0.6262-0.6263 0-0.3458-0.2803-0.6262-0.6262-0.6262-0.3458 0-0.6262 0.2804-0.6262 0.6262 0 0.3459 0.2804 0.6263 0.6262 0.6263z" fill="#33858C"/>
<path d="m78.775 61.798c0.3459 0 0.6263-0.2803 0.6263-0.6262 0-0.3458-0.2804-0.6262-0.6263-0.6262-0.3458 0-0.6262 0.2804-0.6262 0.6262 0 0.3459 0.2804 0.6262 0.6262 0.6262z" fill="#33858C"/>
<path d="m85.037 74.113c0.3459 0 0.6263-0.2804 0.6263-0.6262 0-0.3459-0.2804-0.6262-0.6263-0.6262-0.3458 0-0.6262 0.2803-0.6262 0.6262 0 0.3458 0.2804 0.6262 0.6262 0.6262z" fill="#33858C"/>
<path d="m87.396 82.046c0.3459 0 0.6263-0.2803 0.6263-0.6262 0-0.3458-0.2804-0.6262-0.6263-0.6262-0.3458 0-0.6262 0.2804-0.6262 0.6262 0 0.3459 0.2804 0.6262 0.6262 0.6262z" fill="#33858C"/>
<path d="m88.503 89.769c0.3458 0 0.6262-0.2804 0.6262-0.6262 0-0.3459-0.2804-0.6262-0.6262-0.6262-0.3459 0-0.6262 0.2803-0.6262 0.6262 0 0.3458 0.2803 0.6262 0.6262 0.6262z" fill="#33858C"/>
<path d="m90.256 97.701c0.3459 0 0.6262-0.2804 0.6262-0.6262 0-0.3459-0.2803-0.6262-0.6262-0.6262-0.3458 0-0.6262 0.2803-0.6262 0.6262 0 0.3458 0.2804 0.6262 0.6262 0.6262z" fill="#33858C"/>
<path d="m89.734 47.29c2.6092-0.7452 7.0971-0.2088 12.316 0 5.218 0.2087 20.665-1.0437 23.379-1.6699 2.713-0.6262 26.092-7.0971 29.014-8.9758 2.923-1.8786 5.01 4.5923 5.219 5.2185 0.208 0.6262-12.316 6.6796-16.073 8.9757-3.758 2.2962-13.986 6.2622-22.753 7.0972-8.767 0.8349-25.675 2.5048-26.51 5.0097-0.4237 1.2691-6.0534-15.238-4.5922-15.655z" fill="#D8ECEE"/>
<path d="m151.73 36.018c1.067 1.6031 3.549 6.6797 4.384 9.3933 2.087-1.2525 3.757-2.9224 4.801-3.9661 0-0.8349-2.922-5.8447-3.549-7.3058-1.252 0.8349-3.548 1.2524-5.636 1.8786z" fill="#B2D9DE"/>
<path d="m58.632 60.65c-1.9183 1.624-5.4272 4.3835-6.2622 7.3059-0.8349 2.9223-8.5583 23.17-9.1845 25.884s-5.2185 7.3056-7.5146 11.064c-2.2961 3.757-8.3496 14.194-9.8107 15.237-1.4612 1.044 4.5922 3.758 4.5922 4.384s10.122-10.967 12.316-12.942c4.1748-3.757 6.8884-9.811 7.9321-12.524 1.0437-2.7136 7.9321-16.073 10.02-18.16s4.4419-3.1603 4.801-4.5923c0.6262-2.5048-0.4175-11.898-6.8884-15.655z" fill="#D8ECEE"/>
<path d="m26.278 117.22c1.5697 1.376 5.4272 4.801 7.0971 5.845-1.6699 1.252-2.7136 2.296-3.9661 3.131-1.2524-0.626-5.066-4.384-5.4272-4.592 0.6263-0.835 1.2629-2.411 2.2962-4.384z" fill="#B2D9DE"/>
<path d="m76.792 57.519c0 2.7136 0.8349 4.3835 1.4611 6.0534-3.966-0.835-11.272-4.5923-13.777-7.9321 0.8349-0.6262 1.8786-1.8786 2.9223-3.966 2.2961 1.4611 5.636 4.801 9.3933 5.8447z" fill="#B2D9DE"/>
<path d="m78.879 56.684c2.1124-2.4653 4.3835-7.0972 4.5922-8.1409 1.2525 0 3.5486-0.4174 4.5923-0.8349-0.1044 4.6966-4.2791 10.959-6.3665 15.342-1.4612-1.8787-2.4005-5.1141-2.818-6.3665z" fill="#B2D9DE"/>
<path d="m99.962 97.179c2.9223 2.2961 10.854 10.228 16.908 14.194 5.464 3.582 17.325 12.107 22.335 16.908 5.009 4.801 10.228 19.108 13.359 24.631 3.548 6.262 9.811 13.986 8.141 18.787-1.132 3.252-0.418 7.514 1.043 9.184 1.462 1.67 0.418 5.636-1.461 7.097-1.878 1.461-3.34 5.219-4.383 2.505-1.044-2.713-1.253-6.471-3.549-7.097s-6.262-4.383-5.845-6.888c0.418-2.505-3.966-9.811-5.427-11.69-1.461-1.878-8.038-15.555-8.767-17.743-1.67-5.009-20.874-6.888-30.476-20.873-8.9483-13.034-8.1405-10.646-8.1405-12.942 0-1.317-3.3398-8.35-2.7136-10.437 5.0098-0.418 7.5-6.7946 8.9758-5.6361z" fill="#33858C"/>
<path d="m101.84 119.3c0.417 7.515 3.072 35.576 4.175 38.408 2.922 7.515-1.119 10.02-0.418 15.864 0.626 5.219-3.131 8.141-4.801 12.107-1.6697 3.966 0 5.219 0 6.68s-1.0435 2.505-2.5047 3.757c-1.4612 1.253 1.2524 3.757 0 5.845-1.2524 2.087 0.8642 3.029-0.4175 5.01-2.2961 3.548-5.6359 3.851-7.5146 7.932-1.2524 2.713-2.2961 4.801-3.1311 6.888-2.5048-0.417-7.0971-2.505-8.3495-2.922 0.8349-4.175 2.2961-6.471 1.4612-8.559-1.505-3.757 1.5843-6.604-0.6263-9.184-2.5048-2.923 3.1311-4.384 3.1311-7.724 0-3.339 0.1587-13.359 2.2962-15.237 3.3398-2.923 6.0534-13.151 5.2184-15.865-0.8349-2.713-17.534-30.267-11.898-50.932 0.8684-3.183 0.4175-7.097 3.3398-7.097 1.8265 0 8.5583-1.461 11.689-1.879 1.0437 3.131 4.3042 6.237 5.0097 8.35 1.879 5.636 3.34 8.558 3.34 8.558z" fill="#33858C"/>
<path d="m102.36 127.13c-1.044-2.713-1.253-4.592-1.044-6.053l1.044 6.053z" fill="#2D6D72"/>
<path d="m97.948 164.28c2.8158-1.488 4.8868-1.143 6.8738 0.451l-6.8738-0.451z" fill="#2D6D72"/>
<path d="m138.45 138.51c-0.234-3.257 0.998-4.958 3.409-5.987l-3.409 5.987z" fill="#2D6D72"/>
<path d="m79.715 104.28c2.7136-0.209 11.898-0.943 14.82-3.131 2.5049-1.8785 3.5486-2.9222 5.2185-4.1747 0.6262 0.6263 1.4612 1.0437 2.0872 1.8787-0.835 1.67-5.8445 5.427-9.6018 6.471s-11.689 1.879-12.942 1.252c0 0 0-2.087 0.4174-2.296z" fill="#49351D"/>
<path d="m167.6 201.76c0.835 1.044 1.252 3.34 1.878 3.757 0.627 0.418-7.306 2.297-7.932 2.923-0.069 0.071-2.296-3.758-2.505-4.801-0.208-1.044 8.559-1.879 8.559-1.879z" fill="#3F2A14"/>
<path d="m157.37 196.96c2.745 0 11.48-1.461 11.898-2.296 0.417-0.835 4.801 2.505 6.471 2.296s6.471-0.626 8.141-1.252c1.67-0.627 3.339 0.417 4.592 0.835 1.01 0.338-2.714 1.878-5.845 3.548-3.321 1.772-6.262 2.922-7.932 2.714-1.67-0.209-3.548-0.418-6.262 0-2.714 0.417-7.515 2.713-8.558 2.713-1.044 0-4.175-4.592-2.505-8.558z" fill="#49351D"/>
<path d="m83.89 235.99c-0.2088 1.461-1.0437 3.34-1.4612 5.01-0.2087 0.81-8.767-3.131-9.1845-3.757-0.4175-0.627 0.6033-5.071 1.0333-5.772s9.6124 4.519 9.6124 4.519z" fill="#3F2A14"/>
<path d="m77.21 225.55c2.2523 1.931 6.1745 4.637 9.602 2.923 0.8349-0.418 3.1311 6.262 4.1748 7.723s7.3058 7.306 8.3495 8.35c1.044 1.043 0.835 1.67 1.044 2.713 0.208 1.044-7.0974-2.505-8.5586-2.713-1.4612-0.209-3.966-1.044-4.801-2.088-1.6699-2.087-1.8786-2.713-5.2185-4.592-2.365-1.33-8.1408-3.549-8.1408-4.801 0-2.296 1.8787-5.845 3.5486-7.515z" fill="#49351D"/>
<path d="m81.906 202.9c-0.0859 0.543-0.2798 1.062-0.5702 1.528-0.2905 0.467-0.6715 0.87-1.1206 1.186 0.1789-0.61 0.2565-1.244 0.2296-1.879 0-1.217 1.4612-0.835 1.4612-0.835z" fill="url(#d)"/>
<path d="m85.242 192.32c-0.4175 1.344-1.5551 2.184-2.8973 2.774 0.3883-0.887 0.501-1.112 0.5657-2.025 0.096-1.327 2.3316-0.749 2.3316-0.749z" fill="url(#c)"/>
<path d="m81.698 214.8c-0.2088 1.252-1.0646 1.878-1.8996 2.504 0.1789-0.609 0.2565-1.244 0.2297-1.878 0-1.217 1.6699-0.626 1.6699-0.626z" fill="url(#b)"/>
<path d="m160.39 177.65c-0.626 1.461-5.427 5.845-6.262 7.306-2.713-3.131 5.427-7.723 5.845-8.558 0.975-1.948 0.417 1.252 0.417 1.252z" fill="url(#a)"/>
<path d="m158.2 203.01c-0.626 1.044-2.505 0.14-2.505 2.505 0 1.684-1.461-2.714-1.043-3.549 0.417-0.835 1.043-1.252 1.878-1.878 1.426-1.069 1.67 2.922 1.67 2.922z" fill="#B276A3"/>
<path d="m161.12 171.49c-1.043 0.835-8.349 9.811-11.063 10.646 0.418 1.67 2.087 2.922 2.296 3.34 0.209 0.417 7.932-7.932 8.559-8.559 0.626-0.626 0.208-5.427 0.208-5.427z" fill="#C985B5"/>
<path d="m162.38 182.97c-0.835 1.879-6.888 6.471-7.306 6.888-0.417 0.418 0.209 2.923 1.879 2.296 1.67-0.626 6.053-5.009 6.053-6.053s-0.626-3.131-0.626-3.131z" fill="#C985B5"/>
<path d="m164.04 190.9c0.561 0.818 1.269 1.526 2.087 2.087 0.835 0.626-4.801 7.932-8.349 10.855-1.253-1.67-1.253-3.758-1.253-3.758s7.097-8.349 7.515-9.184z" fill="#C985B5"/>
<path d="m156.63 200.19c1.134-1.294-3.131 1.044-2.922 2.922 0.115 1.044 1.983 10.124-3.653 15.134-2.597 2.309-16.816 14.332-18.014 16.386-0.626 11.272-10.366 11.241-12.566 18.786-1.461 5.01 3.131 8.141 4.801 13.777 0.626 2.1-0.059 11.379 2.087 7.515 3.131-5.636-1.705-13.685-3.34-17.326-3.442-7.667 10.855-11.063 11.481-20.038 0.173-2.505 0.626-3.967 2.818-5.95 1.889-1.709 9.811-9.393 10.854-10.436 1.044-1.044 2.142-1.992 5.01-4.384 2.505-2.087 3.757-5.636 3.34-10.646-0.313-3.742-1.357-4.07 0.104-5.74z" fill="#C985B5"/>
<path d="m155.7 213.24c-4.175 4.384-7.481 7.379-11.168 9.08-2.713 1.253-6.988 4.087-8.976 6.471-2.087 2.505-3.131 3.757-3.548 6.054 1.461-2.505 2.922-1.253 5.218-3.34 4.697-4.269 9.811-5.845 13.673-10.124 1.384-1.534 4.592-6.262 4.801-8.141z" fill="#B276A3"/>
<path d="m101.84 184.64c-4.8011 3.131-12.942 4.383-19.413 5.636 0 1.669 0.1628 2.127 0 3.757 1.0437-0.209 17.534-3.34 17.952-3.966-0.4177-1.461 0-3.34 1.461-5.427z" fill="#C985B5"/>
<path d="m98.292 196.12c-0.1774 0.781-0.2087 2.296 0.4175 3.34-0.2087 1.044-17.743 5.427-18.578 5.219 0-1.253 0.4175-1.879 0-2.505-0.5782-0.869 10.228-2.923 18.16-6.054z" fill="#C985B5"/>
<path d="m94.535 210.94c-0.6617 0.361-2.5049 1.67-3.5486 3.548-1.4612 0.418-11.689 2.296-11.898 1.67 0.8349-1.252 0.6262-2.505 1.0437-3.131s16.699-3.34 14.403-2.087z" fill="#C985B5"/>
<path d="m80.132 213.03c-2.5049 1.252-1.4612 5.427-4.1748 7.306s-12.733 7.515-25.675 10.854c-12.942 3.34-26.719 9.394-31.102 17.743-4.3835 8.35 3.9661-1.878 6.2622-3.34 2.2961-1.461 11.712-7.176 18.995-8.558 12.107-2.296 21.625-6.36 25.884-8.767 4.801-2.714 9.8107-5.636 9.8107-12.733v-2.505z" fill="#C985B5"/>
<path d="m29.826 243.09c-5.6359 2.505-6.8779 1.475-8.9757 3.339-5.636 5.01-9.1845 12.316-9.8108 20.874-0.6262 8.559-0.4174 11.898-4.801 15.656-4.3835 3.757 4.1414 1.517 6.4708-6.054 1.67-5.427 0.9978-11.351 2.9224-17.534 2.9223-9.393 6.4709-8.975 14.194-16.281z" fill="#B276A3"/>
<path d="m78.462 109.08c-3.5486 3.549-6.4709 11.272-7.3059 16.908-0.8245 5.561-0.2087 14.631-0.2087 11.063 0-3.34 0.9268-6.594 1.6699-9.81 0.6262-2.714 2.0874-6.263 5.4272-11.064 2.198-3.158 0.4175-7.097 0.4175-7.097z" fill="#B276A3"/>
<path d="m76.166 112c-1.8787 4.592-5.8447 15.238-4.801 25.048 0.8224 7.724 2.5049 24.005-6.8884 34.442-9.3932 10.437-27.023 23.767-31.102 28.806-3.5486 4.384-7.5146 12.733-7.7233 18.787-0.2088 6.053-3.3399-6.889 2.0874-16.491 5.4272-9.602 17.116-18.995 21.709-22.752 4.5923-3.758 18.882-16.138 17.534-29.85-1.2525-12.733-0.6095-20.874 2.2961-27.345 2.7136-6.053 6.8884-10.645 6.8884-10.645z" fill="#C985B5"/>
<path d="m32.122 201.76c-2.2962 7.932-4.3835 14.403-2.2962 26.301 2.0874 11.899 11.898 25.675 6.6797 39.452s-18.995 15.029-22.961 23.379c-3.966 8.349-2.0874-3.757-0.8349-6.054 1.2524-2.296 17.743-9.81 19.413-16.281s2.5048-17.326-2.2962-27.971c-4.801-10.646-7.932-25.258-4.3835-32.146 1.6278-2.754 3.9256-5.052 6.6797-6.68z" fill="#B276A3"/>
<path d="m98.084 92.169c-0.2588 1.0332 0.4175 3.131 1.4612 4.3835 1.0437 1.2524-12.942 15.238-22.544 20.874 0.2087-4.384 1.2524-7.306 1.4611-8.35 0.2088-1.043 9.8546-6.878 12.942-9.6018 3.5486-3.1311 7.0972-8.9758 6.6797-7.3058z" fill="#C985B5"/>
<path d="m78.661 22.649c0.1629 0.7577 0.3361 1.4967 0.5323 2.2272 0.1962 0.7306 0.4175 1.4612 0.6555 2.1709 0.2379 0.7097 0.4926 1.4236 0.7744 2.1229 0.284 0.7064 0.6116 1.3945 0.9811 2.0603-0.5758-0.5302-1.0566-1.155-1.4215-1.8474-0.3772-0.6819-0.6883-1.3984-0.9289-2.1396-0.245-0.7391-0.4246-1.4983-0.5365-2.2689-0.122-0.7692-0.1409-1.5512-0.0564-2.3254z" fill="#CCB793"/>
<defs>
<linearGradient id="d" x1="80.447" x2="81.436" y1="203.2" y2="204.92" gradientUnits="userSpaceOnUse">
<stop stop-color="#2D6D72" offset="0"/>
<stop stop-color="#1D4649" stop-opacity=".64" offset=".39"/>
<stop stop-opacity="0" offset="1"/>
</linearGradient>
<linearGradient id="c" x1="1235.8" x2="1249.1" y1="2866.3" y2="2889.3" gradientUnits="userSpaceOnUse">
<stop stop-color="#2D6D72" offset="0"/>
<stop stop-color="#1D4649" stop-opacity=".64" offset=".39"/>
<stop stop-opacity="0" offset="1"/>
</linearGradient>
<linearGradient id="b" x1="808.66" x2="822.37" y1="2941.4" y2="2958.4" gradientUnits="userSpaceOnUse">
<stop stop-color="#2D6D72" offset="0"/>
<stop stop-color="#1D4649" stop-opacity=".64" offset=".39"/>
<stop stop-opacity="0" offset="1"/>
</linearGradient>
<linearGradient id="a" x1="156.31" x2="158.01" y1="179.37" y2="181.08" gradientUnits="userSpaceOnUse">
<stop stop-color="#2D6D72" offset="0"/>
<stop stop-color="#296367" stop-opacity=".91" offset=".16"/>
<stop stop-color="#1D474A" stop-opacity=".65" offset=".44"/>
<stop stop-color="#0B1B1C" stop-opacity=".24" offset=".81"/>
<stop stop-opacity="0" offset="1"/>
</linearGradient>
</defs>
</svg>
