<?xml version="1.0" encoding="UTF-8"?>
<svg fill="none" viewBox="0 0 405 635" xmlns="http://www.w3.org/2000/svg">
<path d="M0 476L315 515H0V476Z" fill="#2F2E4B"/>
<rect x="-4" y="515" width="319" height="120" fill="#282646"/>
<path d="m182.68 137.67c4.509-0.755 3.304-5.559 7.789-4.92 5.739 0.82 6.559-0.819 10.658-0.41 2.05 0.205 2.46 4.1 6.559 5.33 4.1 1.23 5.74 3.689 4.92 6.969-0.857 3.423 5.329 3.689 6.149 7.379 0.82 3.689 5.329 2.869 7.379 4.509s1.861 4.321 1.23 7.789c-0.82 4.51 2.935 3.198 4.509 4.51 2.46 2.049 2.87 3.398 2.87 6.149 0 4.099 4.509 1.463 5.739 4.509 1.64 4.1 3.28 4.51 5.739 6.969 2.46 2.46 3.69 18.038-3.689 22.547-7.379 4.51-20.498 11.889-20.498 16.398 0 4.51-38.944 6.149-48.783 0.82s-10.659-9.839-13.938-9.429c-3.28 0.41-6.559-3.279-5.33-7.789 1.23-4.509-5.739-5.226-5.739-8.609 0-5.739 4.51-6.149 2.05-11.068-1.173-2.349-2.46-7.379 1.23-11.479 3.993-4.435 1.061-6.223 2.049-8.198 2.05-4.1 4.1-2.87 4.92-6.56 0.82-3.689-3.69-4.919-1.64-8.199 2.05-3.279 6.149-2.459 6.149-4.099s-2.05-4.919 2.46-6.149c4.509-1.23 3.279-4.1 6.559-5.329 3.28-1.23 3.28-2.46 5.329-1.64 2.05 0.82 2.87 0.41 5.33 0z" fill="#0C0602"/>
<path d="m203.59 186.04c-0.41 8.609 0.82 16.398 9.839 25.007 7.978 7.617-13.528 21.317-17.628 23.367-4.099 2.05-19.677-20.907-15.168-24.187 4.51-3.279 8.199-7.379 8.199-14.758s-2.459-11.478-3.689-13.938 19.071-8.609 18.447 4.509z" fill="#443724"/>
<path d="m197.03 142.18c5.03 1.259 9.429 7.789 11.478 14.348 2.05 6.559 3.403 8.564 4.51 11.889 1.23 3.689 0.311 13.548-3.69 19.267-2.869 4.1-18.037 0.41-22.547-2.869-2.832-2.05-7.379-12.709-9.428-19.678-2.05-6.969-2.46-18.447 4.509-21.317s10.249-2.87 15.168-1.64z" fill="#443724"/>
<path d="m181.04 170.88c-1.64-3.689-6.149-4.509-4.919 0 1.23 4.51 6.149 6.149 6.559 4.51 0.41-1.64-0.574-2.112-1.64-4.51z" fill="#33291B"/>
<path d="m197.42 161.09c0.389 1.066 0.701 2.144 1.041 3.201 0.34 1.058 0.693 2.103 1.128 3.108 0.418 1.009 0.926 1.979 1.516 2.898 0.611 0.927 1.309 1.791 2.087 2.583-1.004-0.558-1.888-1.307-2.603-2.206-0.722-0.897-1.313-1.892-1.755-2.955-0.435-1.059-0.766-2.157-0.988-3.28-0.227-1.104-0.37-2.224-0.426-3.349z" fill="#33291B"/>
<path d="m185.96 145.05c3.349 1.488 1.64 6.969 4.51 7.789 2.869 0.82 4.099-1.23 6.969 0.82 2.869 2.049 4.919-0.82 6.149 0.82 1.23 1.639 4.509 4.919 6.969 4.509s6.559 6.969 8.199 4.919c1.64-2.049-9.839-9.428-10.659-13.118-0.82-3.689-2.869-13.118-8.199-13.118-5.329 0-13.528 0-15.168 1.64-1.639 1.639-2.459 4.099 1.23 5.739z" fill="#0C0602"/>
<path d="m190.06 149.15c0.82 6.149 0 7.379-2.05 7.789s-3.69-0.82-4.509 2.46c-0.82 3.279-3.28 1.64-4.1 3.689-0.82 2.05 1.64 7.789 0 7.789s-2.46-6.559-5.329-7.379c-2.87-0.82-5.33-8.609-2.87-12.708s4.51-10.659 13.528-11.478c4.76-0.435 5.33 9.838 5.33 9.838z" fill="#0C0602"/>
<path d="m276.15 137.26c3.477-4.637 7.584-14.922 7.584-17.013 0-2.46-2.254-7.584-2.254-10.863 0-3.28 0-6.56 1.229-7.789 1.23-1.23 1.042 4.181 2.87 8.198 1.025 2.255 2.255 3.895 3.895 1.025 1.639-2.869 5.329-9.428 6.764-17.832 0.873-5.112 3.279-2.4597 2.459 3.2796-0.873 6.0997-3.279 9.0187-2.869 11.889 0.291 2.029 5.55-6.937 5.739-9.0191 0.41-4.5094 2.87-5.3293 2.87 1.6401 0 4.53-5.33 9.018-4.1 10.248s1.64 0.41 2.87 2.05 0.82 4.509-0.82 5.329 1.23 0.41 1.23 2.05 0.41 3.28-1.23 4.1c-1.64 0.819-0.41 3.279-4.1 4.919-3.689 1.64-4.099-0.41-7.789 4.919-3.689 5.33-5.329 11.479-5.739 13.119-0.41 1.639-11.068-6.97-8.609-10.249z" fill="#443724"/>
<path d="m100.28 334.45c-2.8699 3.689-9.0191 8.199-12.709 10.248-3.6895 2.05-4.0994 1.23 1.2299-3.689 5.3293-4.92 9.4287-6.149 5.3293-6.559-4.0995-0.41-9.0188 1.639-13.938 0-3.587-1.197 6.1492-1.23 10.249-2.46 4.0995-1.23 8.6089-3.28 11.479-3.28 2.869 0-1.64 5.74-1.64 5.74z" fill="#33291B"/>
<path d="m118.32 320.92c-4.05 5.063-7.379 9.019-8.609 12.299-1.23 3.279-4.509 6.149-5.739 9.019-1.23 2.869-8.1989 5.739-5.7392 3.279 2.4592-2.459 5.7392-8.199 3.2792-8.199-2.4593 0-13.938 3.28-20.907 3.28s-2.4597-1.23 2.0497-2.46 9.4288-2.46 11.478-4.509c2.0497-2.05 4.5094-5.33 8.6087-7.379 4.1-2.05 9.429-12.299 10.659-14.758 1.23-2.46 6.559 7.379 4.919 9.428z" fill="#443724"/>
<path d="m214.25 439.8c-9.429 3.689-18.858 3.689-32.796 0-4.821-1.275-1.64-70.921-1.64-70.921l36.896-2.459-2.46 73.38z" fill="#2D2A5E"/>
<path d="m227.36 410.7c-1.751 15.168-4.1 50.423-4.1 54.522 0 4.1 0 23.367 2.05 26.647 2.05 3.279 6.559 7.789 9.019 8.609s-24.109 3.849-22.137-2.46c2.05-6.559 2.46-10.249 2.05-16.398s-8.232-54.559-9.429-70.92c-1.23-16.808-6.969-43.045 3.689-40.995 10.659 2.05 20.088 30.336 18.858 40.995z" fill="#443724"/>
<path d="m195.36 408.96c-2.32 15.501-5.952 51.629-6.091 55.835-0.14 4.206-0.82 23.99 1.18 27.43 2.001 3.439 6.465 8.223 8.962 9.15 2.496 0.926-24.884 3.119-22.642-3.28 2.333-6.662 2.87-10.437 2.673-16.763-0.196-6.325-6.559-56.302-7.227-73.138-0.685-17.3-5.67-44.434 5.206-41.958s19.571 31.824 17.939 42.724z" fill="#443724"/>
<path d="m211.1 503.61c-0.139 4.653 0.271 5.883 1.091 7.522 0.82 1.64 5.739 1.23 8.609 1.23 0-2.869 0.41-5.739 0-6.969s-9.7-1.783-9.7-1.783z" fill="#9B8DCB"/>
<path d="m211.79 496.37c3.107 2.153 20.497 1.23 22.137 2.87s7.379 5.329 11.479 7.379c4.099 2.05 9.838 1.23 9.838 4.099 0 2.87-15.168 1.23-18.857 1.64-3.69 0.41-6.559-3.279-10.659-4.919-3.808-1.521-12.708 0.41-13.938-1.64s-0.82-6.149 0-9.429z" fill="#A196D6"/>
<path d="m175.44 503.61c-0.139 4.653 0.27 5.883 1.09 7.522 0.82 1.64 5.74 1.23 8.609 1.23 0-2.869 0.41-5.739 0-6.969s-9.699-1.783-9.699-1.783z" fill="#9B8DCB"/>
<path d="m176.12 496.37c3.108 2.152 20.498 1.23 22.138 2.87 1.639 1.64 7.379 5.329 11.478 7.379s9.839 1.23 9.839 4.099c0 2.87-15.168 1.23-18.858 1.64-3.689 0.41-6.559-3.279-10.658-4.919-3.809-1.521-12.709 0.41-13.939-1.64-1.229-2.05-0.819-6.149 0-9.429z" fill="#A196D6"/>
<path d="m183.5 216.38c7.051 5.641 9.838 6.559 12.708 9.019s9.429-8.199 15.578-11.478c6.149-3.28 19.267 4.509 19.677 9.018 0.41 4.51-9.428 56.163-12.708 64.772-3.279 8.609 24.187 80.349 23.367 89.368s-14.348 22.957-20.497 22.547-7.379-2.87-24.187 2.05c-8.449 2.46-19.268-11.069-25.417-11.479s9.429-85.268 10.659-93.057-7.789-54.523-8.609-62.722 1.23-24.597 9.429-18.038z" fill="#7A67BA"/>
<path d="m194.36 278.9c0.906 0 1.64-0.734 1.64-1.64 0-0.905-0.734-1.639-1.64-1.639s-1.64 0.734-1.64 1.639c0 0.906 0.734 1.64 1.64 1.64z" fill="#DED9EE"/>
<path d="m196 242c0.905 0 1.639-0.734 1.639-1.64 0-0.905-0.734-1.64-1.639-1.64-0.906 0-1.64 0.735-1.64 1.64 0 0.906 0.734 1.64 1.64 1.64z" fill="#DED9EE"/>
<path d="m190.26 227.66c0.905 0 1.64-0.734 1.64-1.64s-0.735-1.64-1.64-1.64c-0.906 0-1.64 0.734-1.64 1.64s0.734 1.64 1.64 1.64z" fill="#DED9EE"/>
<path d="m206.25 227.66c0.905 0 1.639-0.734 1.639-1.64s-0.734-1.64-1.639-1.64c-0.906 0-1.64 0.734-1.64 1.64s0.734 1.64 1.64 1.64z" fill="#DED9EE"/>
<path d="m206.25 264.14c0.905 0 1.639-0.734 1.639-1.64 0-0.905-0.734-1.64-1.639-1.64-0.906 0-1.64 0.735-1.64 1.64 0 0.906 0.734 1.64 1.64 1.64z" fill="#DED9EE"/>
<path d="m203.79 299.4c0.906 0 1.64-0.734 1.64-1.639 0-0.906-0.734-1.64-1.64-1.64s-1.64 0.734-1.64 1.64c0 0.905 0.734 1.639 1.64 1.639z" fill="#DED9EE"/>
<path d="m197.64 323.17c0.905 0 1.639-0.734 1.639-1.64 0-0.905-0.734-1.639-1.639-1.639-0.906 0-1.64 0.734-1.64 1.639 0 0.906 0.734 1.64 1.64 1.64z" fill="#DED9EE"/>
<path d="m192.31 352.69c0.906 0 1.64-0.734 1.64-1.639 0-0.906-0.734-1.64-1.64-1.64s-1.64 0.734-1.64 1.64c0 0.905 0.734 1.639 1.64 1.639z" fill="#DED9EE"/>
<path d="m191.9 387.53c0.906 0 1.64-0.734 1.64-1.64s-0.734-1.64-1.64-1.64c-0.905 0-1.639 0.734-1.639 1.64s0.734 1.64 1.639 1.64z" fill="#DED9EE"/>
<path d="m205.02 395.32c0.906 0 1.64-0.734 1.64-1.64s-0.734-1.64-1.64-1.64c-0.905 0-1.64 0.734-1.64 1.64s0.735 1.64 1.64 1.64z" fill="#DED9EE"/>
<path d="m204.61 367.04c0.906 0 1.64-0.735 1.64-1.64 0-0.906-0.734-1.64-1.64-1.64-0.905 0-1.639 0.734-1.639 1.64 0 0.905 0.734 1.64 1.639 1.64z" fill="#DED9EE"/>
<path d="m206.25 338.75c0.905 0 1.639-0.734 1.639-1.64 0-0.905-0.734-1.639-1.639-1.639-0.906 0-1.64 0.734-1.64 1.639 0 0.906 0.734 1.64 1.64 1.64z" fill="#DED9EE"/>
<path d="m207.69 211.46c1.557-4.153 0.41-6.969 3.689-7.379 3.28-0.41 9.019 4.099 13.528 0 4.51-4.1 13.119-11.888 17.218-14.758s28.286-62.312 31.156-64.772c2.87-2.459 8.609-0.819 8.609 6.56s11.068 23.366 9.429 27.466c-1.64 4.099-9.429 13.118-13.939 19.267-4.509 6.15-12.298 26.237-22.137 38.945-9.838 12.709-15.168 17.218-17.217 21.727-2.05 4.51 12.298 91.828 10.248 100.03s4.51 45.504 6.149 51.653c1.64 6.15-0.819 9.429-4.919 13.529-4.099 4.099-3.28 17.627-9.839 21.317-6.559 3.689-18.037 10.658-21.317 16.398-3.279 5.739-8.199 4.099-10.658 4.099-2.46 0 2.869-13.528 0-22.957-2.87-9.429-4.1-65.181-0.82-76.66 3.279-11.478 0-56.162 0-65.591s-0.41-38.535-0.41-47.554 0-18.037 1.23-21.317z" fill="#2D2A5E"/>
<path d="m188.01 221.3c-2.89-6.74-3.28-15.168-5.329-15.168-2.05 0-6.15 5.739-12.299 6.969s-11.888 4.919-14.348 8.199c-2.46 3.279-18.447 36.075-24.597 45.504-6.149 9.428-23.367 45.094-27.466 46.733-4.0995 1.64 14.348 21.728 14.758 27.057s15.168-21.727 18.038-26.647c2.869-4.919 26.236-51.653 27.876-58.622s-0.41 17.628-1.23 23.367-5.329 50.833-6.559 62.722c-1.23 11.888-7.379 93.058-7.379 98.387s10.659-2.46 19.267 0c5.794 1.594 11.681 2.826 17.628 3.689 0 0 2.87-77.069 4.919-87.728 2.05-10.659 0.41-65.591 0-74.61s0.41-51.243-3.279-59.852z" fill="#2D2A5E"/>
<path d="m384.62 20.087c1.23 9.4288 5.739 16.808 15.578 14.348" stroke="#2D2A5E" stroke-miterlimit="10" stroke-width=".40995"/>
<path d="m398 28.491c-0.68 1.361 0 4.7595 1.701 5.7802 1.57 0.9388 4.76-1.7012 5.092-4.7553-1.021 1.6972-1.361 1.9841-2.382 2.0497 0.34-1.0167 0.652-2.2219 0.34-3.0582-0.34 1.0208-1.701 3.0582-2.377 3.0582 0.34-0.6805 0-2.0497 0-3.0582-0.681 1.361-0.341 2.3777-1.021 3.0582-0.332-0.3566-1.013-1.0331-1.353-3.0746z" fill="#4B3C96"/>
<path d="m356.74 0c5.739 3.9724 26.647 17.218 29.516 18.448 0 6.1491 0.41 28.696 0.82 35.255-6.969-2.8696-27.056-19.677-29.516-21.317 0.41-11.068-0.82-23.367-0.82-32.386z" fill="#2D2A5E"/>
<path d="m345.26 24.597c3.644-2.1276 13.528-6.9691 15.168-7.789 1.639-0.8199 11.068 6.5592 13.938 11.888 2.869 5.3293 2.459 13.118 2.869 15.168 0.41 2.0497-13.528 7.379-15.168 8.1989-0.41-6.5592-2.869-11.478-5.329-16.808-1.828-3.956-6.149-8.6089-11.478-10.659z" fill="#272754"/>
</svg>
