<?xml version="1.0" encoding="UTF-8"?>
<svg fill="none" viewBox="0 0 368 575" xmlns="http://www.w3.org/2000/svg">
<path d="m118.58 154.47c5.059-0.847 3.707-6.238 8.739-5.52 6.44 0.92 7.36-0.92 11.959-0.46 2.3 0.23 2.76 4.6 7.36 5.98 4.599 1.38 6.439 4.139 5.519 7.819-0.961 3.841 5.98 4.14 6.9 8.28 0.92 4.139 5.98 3.219 8.279 5.059 2.3 1.84 2.089 4.848 1.38 8.74-0.92 5.059 3.294 3.588 5.06 5.059 2.76 2.3 3.22 3.814 3.22 6.9 0 4.6 5.06 1.642 6.439 5.06 1.84 4.599 3.68 5.059 6.44 7.819s4.14 20.239-4.14 25.299c-8.279 5.059-22.998 13.339-22.998 18.398 0 5.06-43.697 6.9-54.737 0.92-11.039-5.979-11.959-11.039-15.639-10.579s-7.3595-3.68-5.9796-8.739c1.3799-5.06-6.4396-5.865-6.4396-9.66 0-6.439 5.0597-6.899 2.2998-12.419-1.3155-2.636-2.7598-8.28 1.38-12.879 4.4801-4.977 1.1913-6.983 2.2998-9.2 2.2999-4.599 4.5997-3.219 5.5197-7.359 0.9199-4.14-4.1398-5.52-1.8399-9.2 2.2998-3.679 6.8995-2.759 6.8995-4.599s-2.2998-5.52 2.7599-6.9c5.0592-1.38 3.6802-4.6 7.3592-5.979 3.68-1.38 3.68-2.76 5.98-1.84s3.22 0.46 5.98 0z" fill="#0C0602"/>
<path d="m142.03 208.75c-0.46 9.66 0.92 18.399 11.039 28.058 8.951 8.547-15.179 23.919-19.779 26.219-4.599 2.3-22.078-23.459-17.019-27.139 5.06-3.679 9.2-8.279 9.2-16.558 0-8.28-2.76-12.88-4.14-15.64-1.38-2.759 21.398-9.659 20.699 5.06z" fill="#443724"/>
<path d="m134.68 159.53c5.644 1.412 10.579 8.74 12.879 16.099 2.3 7.36 3.818 9.609 5.06 13.339 1.379 4.14 0.349 15.202-4.14 21.619-3.22 4.6-20.239 0.46-25.299-3.22-3.178-2.3-8.279-14.259-10.579-22.078-2.3-7.82-2.76-20.699 5.06-23.919 7.819-3.22 11.499-3.22 17.019-1.84z" fill="#443724"/>
<path d="m116.74 191.73c-1.84-4.139-6.9-5.059-5.52 0 1.38 5.06 6.9 6.9 7.36 5.06s-0.644-2.369-1.84-5.06z" fill="#33291B"/>
<path d="m135.12 180.74c0.437 1.196 0.786 2.406 1.168 3.593 0.382 1.186 0.777 2.359 1.265 3.486 0.47 1.133 1.039 2.221 1.702 3.252 0.685 1.04 1.469 2.01 2.341 2.898-1.126-0.626-2.118-1.467-2.921-2.475-0.809-1.007-1.472-2.123-1.968-3.316-0.489-1.188-0.86-2.42-1.109-3.68-0.255-1.239-0.415-2.495-0.478-3.758z" fill="#33291B"/>
<path d="m122.26 162.75c3.758 1.67 1.84 7.82 5.06 8.74 3.22 0.919 4.6-1.38 7.82 0.919 3.219 2.3 5.519-0.919 6.899 0.92 1.38 1.84 5.06 5.52 7.82 5.06s7.359 7.82 9.199 5.52-11.039-10.58-11.959-14.719c-0.92-4.14-3.22-14.719-9.2-14.719-5.979 0-15.179 0-17.018 1.84-1.84 1.839-2.76 4.599 1.379 6.439z" fill="#0C0602"/>
<path d="m126.86 167.35c0.92 6.899 0 8.279-2.3 8.739s-4.14-0.92-5.06 2.76c-0.919 3.68-3.679 1.84-4.599 4.14s1.84 8.739 0 8.739-2.76-7.359-5.98-8.279-5.979-9.66-3.22-14.259c2.76-4.6 5.06-11.96 15.179-12.88 5.341-0.487 5.98 11.04 5.98 11.04z" fill="#0C0602"/>
<path d="m223.45 154.01c3.901-5.203 8.51-16.743 8.51-19.089 0-2.76-2.53-8.51-2.53-12.189 0-3.68 0-7.36 1.38-8.74s1.168 4.692 3.219 9.2c1.15 2.529 2.53 4.369 4.37 1.15 1.84-3.22 5.98-10.58 7.59-20.009 0.979-5.736 3.679-2.76 2.759 3.68-0.979 6.844-3.679 10.119-3.219 13.339 0.326 2.277 6.228-7.783 6.439-10.12 0.46-5.059 3.22-5.979 3.22 1.84 0 5.083-5.98 10.12-4.6 11.5 1.38 1.379 1.84 0.459 3.22 2.299s0.92 5.06-0.92 5.98 1.38 0.46 1.38 2.3 0.46 3.68-1.38 4.6c-1.84 0.919-0.46 3.679-4.599 5.519-4.14 1.84-4.6-0.46-8.74 5.52-4.14 5.979-5.98 12.879-6.44 14.719-0.459 1.84-12.419-7.82-9.659-11.499z" fill="#443724"/>
<path d="m26.122 375.26c-3.2198 4.139-10.119 9.199-14.259 11.499-4.1398 2.3-4.5998 1.38 1.3799-4.14 5.9796-5.519 10.579-6.899 5.9796-7.359s-10.119 1.84-15.639 0c-4.0247-1.343 6.8995-1.38 11.499-2.76 4.5997-1.38 9.6593-3.68 12.879-3.68s-1.8398 6.44-1.8398 6.44z" fill="#33291B"/>
<path d="m46.36 360.08c-4.5445 5.68-8.2795 10.119-9.6594 13.799-1.3799 3.679-5.0597 6.899-6.4396 10.119s-9.1994 6.44-6.4396 3.68c2.7599-2.76 6.4396-9.2 3.6798-9.2s-15.639 3.68-23.459 3.68-2.7598-1.38 2.2998-2.76c5.0597-1.38 10.579-2.759 12.879-5.059 2.2999-2.3 5.0597-5.98 9.6594-8.28s10.579-13.799 11.959-16.559c1.3799-2.76 7.3595 8.28 5.5196 10.58z" fill="#443724"/>
<path d="m153.99 493.47c-10.58 4.14-21.159 4.14-36.798 0-5.409-1.43-1.84-79.575-1.84-79.575l41.397-2.76-2.759 82.335z" fill="#2D2A5E"/>
<path d="m168.71 460.81c-1.964 17.019-4.599 56.577-4.599 61.176 0 4.6 0 26.219 2.3 29.898 2.299 3.68 7.359 8.74 10.119 9.66s-27.051 4.319-24.838-2.76c2.299-7.36 2.759-11.499 2.299-18.399-0.46-6.899-9.236-61.217-10.579-79.575-1.38-18.859-7.819-48.297 4.14-45.997s22.538 34.038 21.158 45.997z" fill="#443724"/>
<path d="m132.8 458.87c-2.603 17.391-6.679 57.928-6.835 62.648-0.156 4.719-0.92 26.917 1.325 30.776 2.244 3.859 7.253 9.227 10.055 10.267 2.801 1.039-27.921 3.5-25.405-3.68 2.618-7.475 3.22-11.711 2.999-18.808-0.22-7.098-7.359-63.173-8.109-82.064-0.768-19.41-6.361-49.856 5.842-47.078 12.203 2.779 21.959 35.708 20.128 47.939z" fill="#443724"/>
<path d="m150.47 565.06c-0.156 5.22 0.304 6.6 1.224 8.44 0.919 1.84 6.439 1.38 9.659 1.38 0-3.22 0.46-6.44 0-7.819-0.46-1.38-10.883-2.001-10.883-2.001z" fill="#9B8DCB"/>
<path d="m151.23 556.95c3.486 2.415 22.998 1.38 24.838 3.22s8.28 5.98 12.879 8.279c4.6 2.3 11.04 1.38 11.04 4.6s-17.019 1.38-21.159 1.84-7.36-3.68-11.959-5.52c-4.273-1.706-14.259 0.46-15.639-1.84-1.38-2.299-0.92-6.899 0-10.579z" fill="#A196D6"/>
<path d="m110.45 565.06c-0.156 5.22 0.304 6.6 1.224 8.44s6.44 1.38 9.659 1.38c0-3.22 0.46-6.44 0-7.819-0.46-1.38-10.883-2.001-10.883-2.001z" fill="#9B8DCB"/>
<path d="m111.22 556.95c3.487 2.415 22.999 1.38 24.839 3.22 1.839 1.84 8.279 5.98 12.879 8.279 4.599 2.3 11.039 1.38 11.039 4.6s-17.019 1.38-21.159 1.84c-4.139 0.46-7.359-3.68-11.959-5.52-4.273-1.706-14.259 0.46-15.639-1.84-1.38-2.299-0.92-6.899 0-10.579z" fill="#A196D6"/>
<path d="m119.5 242.79c7.911 6.329 11.039 7.36 14.259 10.119 3.219 2.76 10.579-9.199 17.479-12.879 6.899-3.68 21.618 5.06 22.078 10.12 0.46 5.059-10.579 63.016-14.259 72.675s27.138 90.154 26.218 100.27c-0.92 10.119-16.099 25.758-22.998 25.298-6.9-0.46-8.28-3.22-27.138 2.3-9.48 2.76-21.619-12.419-28.519-12.879-6.8992-0.46 10.58-95.674 11.96-104.41 1.379-8.739-8.74-61.176-9.66-70.375-0.92-9.2 1.38-27.599 10.58-20.239z" fill="#7A67BA"/>
<path d="m131.68 312.93c1.016 0 1.839-0.824 1.839-1.84s-0.823-1.84-1.839-1.84c-1.017 0-1.84 0.824-1.84 1.84s0.823 1.84 1.84 1.84z" fill="#DED9EE"/>
<path d="m133.52 271.53c1.017 0 1.84-0.824 1.84-1.84s-0.823-1.84-1.84-1.84c-1.016 0-1.839 0.824-1.839 1.84s0.823 1.84 1.839 1.84z" fill="#DED9EE"/>
<path d="m127.08 255.44c1.016 0 1.84-0.824 1.84-1.84s-0.824-1.84-1.84-1.84-1.84 0.824-1.84 1.84 0.824 1.84 1.84 1.84z" fill="#DED9EE"/>
<path d="m145.02 255.44c1.016 0 1.84-0.824 1.84-1.84s-0.824-1.84-1.84-1.84-1.84 0.824-1.84 1.84 0.824 1.84 1.84 1.84z" fill="#DED9EE"/>
<path d="m145.02 296.37c1.016 0 1.84-0.824 1.84-1.84s-0.824-1.84-1.84-1.84-1.84 0.824-1.84 1.84 0.824 1.84 1.84 1.84z" fill="#DED9EE"/>
<path d="m142.26 335.93c1.016 0 1.84-0.824 1.84-1.84s-0.824-1.84-1.84-1.84-1.84 0.824-1.84 1.84 0.824 1.84 1.84 1.84z" fill="#DED9EE"/>
<path d="m135.36 362.61c1.016 0 1.84-0.823 1.84-1.839 0-1.017-0.824-1.84-1.84-1.84s-1.84 0.823-1.84 1.84c0 1.016 0.824 1.839 1.84 1.839z" fill="#DED9EE"/>
<path d="m129.38 395.73c1.016 0 1.84-0.823 1.84-1.84 0-1.016-0.824-1.839-1.84-1.839s-1.84 0.823-1.84 1.839c0 1.017 0.824 1.84 1.84 1.84z" fill="#DED9EE"/>
<path d="m128.92 434.82c1.016 0 1.84-0.824 1.84-1.84s-0.824-1.84-1.84-1.84-1.84 0.824-1.84 1.84 0.824 1.84 1.84 1.84z" fill="#DED9EE"/>
<path d="m143.64 443.56c1.016 0 1.839-0.823 1.839-1.84 0-1.016-0.823-1.839-1.839-1.839-1.017 0-1.84 0.823-1.84 1.839 0 1.017 0.823 1.84 1.84 1.84z" fill="#DED9EE"/>
<path d="m143.18 411.82c1.016 0 1.84-0.823 1.84-1.84 0-1.016-0.824-1.839-1.84-1.839-1.017 0-1.84 0.823-1.84 1.839 0 1.017 0.823 1.84 1.84 1.84z" fill="#DED9EE"/>
<path d="m145.02 380.09c1.016 0 1.84-0.823 1.84-1.84 0-1.016-0.824-1.839-1.84-1.839s-1.84 0.823-1.84 1.839c0 1.017 0.824 1.84 1.84 1.84z" fill="#DED9EE"/>
<path d="m146.63 237.27c1.748-4.659 0.46-7.819 4.14-8.279s10.119 4.6 15.179 0c5.059-4.6 14.719-13.339 19.319-16.559 4.599-3.22 31.738-69.916 34.957-72.675 3.22-2.76 9.66-0.92 9.66 7.359 0 8.28 12.419 26.218 10.579 30.818s-10.579 14.719-15.639 21.619c-5.06 6.899-13.799 29.438-24.838 43.697-11.04 14.259-17.019 19.319-19.319 24.378-2.3 5.06 13.799 103.03 11.499 112.23-2.3 9.2 5.06 51.057 6.9 57.957 1.84 6.899-0.92 10.579-5.52 15.179-4.6 4.599-3.68 19.778-11.039 23.918-7.36 4.14-20.239 11.959-23.919 18.399s-9.199 4.6-11.959 4.6 3.22-15.179 0-25.759c-3.22-10.579-4.6-73.135-0.92-86.014s0-63.016 0-73.596c0-10.579-0.46-43.237-0.46-53.356s0-20.239 1.38-23.919z" fill="#2D2A5E"/>
<path d="m124.56 248.31c-3.243-7.562-3.68-17.019-5.979-17.019-2.3 0-6.9 6.439-13.799 7.819-6.9001 1.38-13.34 5.52-16.1 9.2-2.7598 3.679-20.699 40.477-27.598 51.056-6.8996 10.58-26.218 50.597-30.818 52.437s16.099 24.379 16.559 30.358c0.4599 5.98 17.019-24.378 20.239-29.898s29.438-57.956 31.278-65.776c1.8401-7.819-0.46 19.779-1.3799 26.219-0.9199 6.439-5.9796 57.036-7.3595 70.375s-8.2795 104.41-8.2795 110.39c0 5.98 11.959-2.76 21.619 0 6.5 1.789 13.106 3.172 19.778 4.14 0 0 3.22-86.475 5.52-98.434s0.46-73.595 0-83.715c-0.46-10.119 0.46-57.496-3.68-67.155z" fill="#2D2A5E"/>
<path d="m345.16 22.539c1.38 10.579 6.44 18.859 17.479 16.099" stroke="#2D2A5E" stroke-miterlimit="10" stroke-width=".45997"/>
<path d="m360.17 31.968c-0.764 1.5271 0 5.3402 1.908 6.4856 1.762 1.0533 5.341-1.9089 5.713-5.3357-1.145 1.9043-1.527 2.2263-2.672 2.2999 0.382-1.1408 0.731-2.4931 0.382-3.4314-0.382 1.1453-1.909 3.4314-2.668 3.4314 0.382-0.7636 0-2.2999 0-3.4314-0.764 1.5271-0.382 2.6678-1.146 3.4314-0.372-0.4002-1.136-1.1592-1.517-3.4498z" fill="#4B3C96"/>
<path d="m313.88 0c6.44 4.4571 29.899 19.319 33.118 20.699 0 6.8996 0.46 32.198 0.92 39.558-7.819-3.2198-30.358-22.079-33.118-23.918 0.46-12.419-0.92-26.218-0.92-36.338z" fill="#2D2A5E"/>
<path d="m301 27.598c4.089-2.3873 15.179-7.8196 17.019-8.7395s12.419 7.3595 15.639 13.339c3.22 5.9796 2.76 14.719 3.22 17.019 0.46 2.2998-15.179 8.2795-17.019 9.1994-0.46-7.3595-3.22-12.879-5.98-18.859-2.051-4.4387-6.899-9.6594-12.879-11.959z" fill="#272754"/>
</svg>
