<?xml version="1.0" encoding="UTF-8"?>
<svg fill="none" viewBox="0 0 427 660" xmlns="http://www.w3.org/2000/svg">
<g opacity=".4">
<path d="m-39.729 487.64 85.648-32.437c0.0013-1e-3 0.0025-1e-3 0.0038-2e-3 2.7337-1.854 3.9884-4.479 3.9884-7.581v-33.739c-24.68-16.377-42.102-46.439-42.808-75.716-10.707 1.682-20.819-0.949-28.666-6.342-0.9032 13.955-5.7647 33.928-14.406 44.031-4.767 5.573-11.213 9.847-18.486 13.598-22.312 11.503-28.8 78.344 14.726 98.188z" fill="#FFE181"/>
<path d="m-6.0486 389.45c7.2714-3.749 13.719-8.024 18.486-13.598 0.9448-1.103 1.8355-2.344 2.6896-3.664-4.8741-10.877-7.7463-22.51-8.0248-34.024-10.707 1.681-20.819-0.949-28.666-6.342-0.9033 13.954-5.7648 33.928-14.406 44.03-4.767 5.574-11.213 9.848-18.486 13.598-22.311 11.503-28.798 78.346 14.726 98.189l31.821-12.05c-24.576-26.961-17.036-76.396 1.8607-86.139z" fill="#FEC458"/>
<path d="m252.72 388.86c-7.272-3.749-13.719-8.025-18.486-13.598-8.516-9.956-13.353-29.567-14.357-43.415-7.842 5.379-17.943 7.999-28.636 6.319-1.013 30.116-19.393 59.493-42.889 75.533l0.027 33.98c0.011 3.87 2.396 7.324 5.986 8.713 3.575 1.384 47.516 17.396 82.845 31.078l0.618-0.342c43.709-19.755 37.231-86.75 14.892-98.268z" fill="#FFE181"/>
<path d="m201.73 456.39c-3.59-1.389-5.976-4.843-5.986-8.713l-0.019-25.493c-4e-3 -5.171 2.394-10.006 6.392-13.287 12.049-9.883 22.294-23.274 28.842-38.224-6.486-10.625-10.217-26.87-11.084-38.829-7.842 5.38-17.943 8-28.636 6.319-1.013 30.117-19.393 59.493-42.889 75.534l0.027 33.98c0.011 3.87 2.396 7.324 5.986 8.713 3.575 1.384 47.516 17.396 82.845 31.078l0.618-0.342c6.382-2.885 11.686-6.782 16.035-11.36-26.111-9.818-49.561-18.381-52.131-19.376z" fill="#FEC458"/>
<path d="m125.46 533.97c-0.937-1.405-1.825-2.806-2.678-4.179-5.524-8.889-5.044-20.255 1.039-28.771l30.79-48.556c-2.243-1.736-3.633-4.435-3.641-7.38l-0.01-36.587c-14.55 9.938-32.057 15.755-50.845 15.692-20.425-0.068-38.304-5.877-52.801-15.496v36.334c0 3.653-1.6679 5.877-3.6584 7.335l30.863 48.658c6.0834 8.516 6.5634 19.882 1.0393 28.771-0.8491 1.366-1.731 2.759-2.6632 4.156h0.8806c14.306 12.823 36.495 12.831 50.809 0.024h0.876v-1e-3z" fill="#FFB1A0"/>
<path d="m99.135 424.17c-20.014-0.249-37.556-6.01-51.82-15.476v36.334c0 3.653-1.6679 5.877-3.6584 7.335l30.863 48.658c6.0834 8.516 6.5634 19.882 1.0393 28.771-0.8491 1.366-1.7309 2.759-2.6632 4.156h0.8806c7.1417 6.402 16.247 9.608 25.358 9.622v-119.4z" fill="#FFA68E"/>
<path d="m338.52 673.47v-90.398c0-38.494-24.805-65.409-45.668-76.285-3.971-2.02-5.442-2.474-22.716-9.22v0.058c-16.143-6.252-40.629-15.735-62.726-24.292l-98.487 155.03c-4.287 7.595-15.225 7.597-19.513 1e-3l-98.64-155.24-80.294 31.36c-21.661 8.914-50.665 36.963-50.665 78.585v90.398c0 10.231 8.295 18.526 18.527 18.526h441.66c10.232 0 18.526-8.295 18.526-18.526z" fill="#6E60B8"/>
<path d="m121.73 533.97c-12.709 11.371-32.408 11.363-45.109-0.021-7.2248 9.718-19.251 19.68-38.84 22.445l51.631 91.444c4.2883 7.595 15.227 7.594 19.514-2e-3l51.61-91.444c-19.565-2.766-31.582-12.711-38.806-22.422z" fill="#B1DBFC"/>
<path d="m156.96 453.8c-0.857-0.331-1.641-0.787-2.345-1.332l-34.683 48.556c-6.084 8.516-7.861 21.18-2.337 30.069 6.747 10.858 20.552 22.134 42.948 25.301l46.875-83.055c-25.532-9.886-47.872-18.538-50.458-19.539z" fill="#DFEBFA"/>
<path d="m43.657 452.36c-0.1121 0.081-0.2205 0.171-0.3338 0.248l-52.548 20.523 47.01 83.26c22.406-3.164 36.216-14.444 42.965-25.304 5.5242-8.889 3.7454-21.553-2.3368-30.069l-34.756-48.658z" fill="#DFEBFA"/>
<path d="m99.163 612.51c-5.3755 0-9.7331-4.358-9.7331-9.733v-32.77c0-5.375 4.3576-9.733 9.7331-9.733 5.3752 0 9.7332 4.358 9.7332 9.733v32.77c1e-3 5.375-4.358 9.733-9.7332 9.733z" fill="#8BCAFF"/>
<path d="m266.35 692v-95.278c0-5.376-4.358-9.733-9.733-9.733-5.376 0-9.733 4.357-9.733 9.733v95.278h19.466z" fill="#6353B2"/>
<path d="m9.6455 293.81c-6.5408-2.795-15.525-5.878-21.746-9.231-3.9456-2.128-7.1429-2.65-9.4231-6.338-2.2613 1.326-4.3689 2.794-6.2901 4.355-0.0037 2e-3 -0.0075 6e-3 -0.0113 9e-3 -5.7534 6.218-9.2543 14.328-9.2543 23.212 0 21.603 20.678 38.643 44.182 34.949-0.01763-0.729 2.5422-1.458 2.5422-2.189v-44.767h0.00125z" fill="#FFB1A0"/>
<path d="m-9.2234 305.81c0-6.404 1.8279-12.403 5-17.586-2.8307-1.179-5.5468-2.396-7.8761-3.652-3.9456-2.128-7.1429-2.65-9.4231-6.338-2.2613 1.326-4.3689 2.794-6.2913 4.355-0.0038 2e-3 -0.0076 6e-3 -0.0114 9e-3 -5.7534 6.218-9.2543 14.328-9.2543 23.212 0 21.603 20.678 38.643 44.182 34.949-0.01764-0.729 2.5422-1.458 2.5422-2.189v-2.092c-11.243-6.135-18.868-17.556-18.868-30.668z" fill="#FFA68E"/>
<path d="m226.15 282.58c-1.825-1.655-3.89-3.185-6.148-4.55-2.287 3.782-5.534 4.381-9.555 6.549-6.221 3.355-15.205 6.436-21.746 9.231v43.873c0 1.032 2.551 2.055 2.517 3.079 23.515 3.709 44.208-13.334 44.208-34.945 0-8.895-3.51-17.017-9.276-23.237z" fill="#FFB1A0"/>
<path d="m215.63 282.04c-1.541 0.831-3.273 1.508-5.184 2.539-6.221 3.355-15.205 6.436-21.746 9.231v43.873c0 1.032 2.551 2.055 2.517 3.079 8.856 1.397 17.312-0.152 24.412-3.778v-54.944h1e-3z" fill="#FFA68E"/>
<path d="m99.171 311.3c-11.072 0-21.959-0.786-32.621-2.272v30.244c0 37.537 22.937 72.522 60.083 86.153 37.319-11.507 64.66-46.816 64.66-87.748v-45.17c-28.286 12.087-59.415 18.793-92.123 18.793z" fill="#FFCEBE"/>
<path d="m67.497 338.57v-29.408c-21.174-2.862-41.454-8.539-60.447-16.655v46.063c0 47.343 37.007 90.62 93.067 90.809 10.297 0.034 20.199-1.722 29.451-4.931-38.291-12.634-62.072-47.94-62.072-85.878z" fill="#FFB1A0"/>
<path d="m111.89 224.76c-8.002 4.01-17.428 4.01-25.43 0l-111.9-56.066v75.497c1.4185 1.207 2.9264 2.322 4.6032 3.226 35.723 19.263 76.579 30.227 120.01 30.227 43.432 0 84.287-10.964 120.01-30.227 1.678-0.904 3.186-2.019 4.603-3.226v-75.498l-111.9 56.067z" fill="#6E60B8"/>
<path d="m23.021 192.98-48.464-24.282v75.497c1.4185 1.207 2.9265 2.322 4.6032 3.226 13.892 7.491 28.567 13.708 43.86 18.532v-72.973z" fill="#6353B2"/>
<path d="m219.18 244.82c-35.723 19.263-76.578 30.226-120.01 30.226-43.433 0-84.288-10.963-120.01-30.227-1.678-0.905-3.1859-2.02-4.6044-3.226v22.827c0 9.438 5.0353 18.265 13.344 22.745 33.123 17.86 71.001 28.025 111.27 28.025 40.271 0 78.149-10.165 111.27-28.025 8.308-4.48 13.344-13.307 13.344-22.745v-22.827c-1.419 1.208-2.927 2.323-4.605 3.227z" fill="#9790CC"/>
<path d="m23.021 263.36c-15.292-4.823-29.969-11.04-43.86-18.531-1.6767-0.904-3.1859-2.019-4.6032-3.226v22.827c0 9.438 5.0353 18.265 13.344 22.745 11.191 6.035 22.935 11.166 35.121 15.348v-39.163h-0.0013z" fill="#8479C2"/>
<path d="m272.95 130.7-161.06-80.698c-8.002-4.0099-17.428-4.0099-25.43 0l-161.06 80.698c-9.2404 4.63-9.2404 17.819 0 22.448l161.06 80.699c8.0021 4.01 17.428 4.01 25.43 0l161.06-80.699c9.24-4.629 9.24-17.817 0-22.448z" fill="#9790CC"/>
<path d="m143.82 206.94-167.12-83.734c-5.897-2.955-8.152-9.267-6.7953-14.807l-44.513 22.303c-9.2404 4.629-9.2404 17.818 0 22.448l161.06 80.698c8.0021 4.01 17.428 4.01 25.43 0l47.731-23.915c-5.373 0.476-10.846-0.513-15.795-2.993z" fill="#8479C2"/>
<path d="m279.88 264.38c-5.376 0-9.733-4.358-9.733-9.733v-102.99h-154.31c-5.376 0-9.733-4.357-9.733-9.733 0-5.375 4.357-9.733 9.733-9.733h164.04c5.375 0 9.733 4.358 9.733 9.733v112.72c1e-3 5.375-4.358 9.734-9.733 9.734z" fill="#6353B2"/>
<path d="m308.25 320.76-12.416-49.967c-3.774 4.674-9.481 7.724-15.956 7.724s-12.182-3.05-15.957-7.722l-12.416 49.966c-2.514 9.589 4.72 18.963 14.632 18.963h27.481c9.912-1e-3 17.146-9.375 14.632-18.964z" fill="#FEC458"/>
<path d="m274.91 322.06 11.061-44.511c-1.923 0.611-3.961 0.97-6.092 0.97-6.475 0-12.182-3.05-15.956-7.722l-12.417 49.966c-2.513 9.59 4.721 18.964 14.633 18.964h17.31c-6.529-2.883-10.496-10.199-8.539-17.667z" fill="#F9AB49"/>
<path d="m99.172 163.14c11.717 0 21.216-9.499 21.216-21.216s-9.499-21.216-21.216-21.216c-11.717 0-21.216 9.499-21.216 21.216s9.4986 21.216 21.216 21.216z" fill="#8479C2"/>
<path d="m279.88 281.11c11.373 0 20.593-9.22 20.593-20.593 0-11.374-9.22-20.594-20.593-20.594-11.374 0-20.594 9.22-20.594 20.594 0 11.373 9.22 20.593 20.594 20.593z" fill="#FFE181"/>
<path d="m277.67 260.52c0-8.065 4.648-15.028 11.4-18.408-2.77-1.386-5.884-2.186-9.192-2.186-11.374 0-20.594 9.219-20.594 20.592 0 11.374 9.22 20.593 20.594 20.593 3.308 0 6.422-0.799 9.192-2.185-6.752-3.377-11.4-10.341-11.4-18.406z" fill="#FEC458"/>
</g>
</svg>
