<?xml version="1.0" encoding="UTF-8"?>
<svg viewBox="0 0 562 598" xmlns="http://www.w3.org/2000/svg">
<path d="m749.95 673.15c-78.617-35.784-246.29-122.06-281.44-150.72 66.876 9.812 206.61 43.494 325.81 68.712 44.096 9.331 42.03-17.551 12.053-22.569-29.978-5.017-415.74-137.88-459.65-172.11s96.611 15.542 145.4 27.223c48.788 11.682-104.96-67.883-192.85-90.072-59.8-15.115-94.466-21.896-108.22-27.777-28.709-12.269-74.287-13.261-90.195 14.092-18.645 32.042 27.021 98.757 32.828 107.03 5.807 8.272 9.804 37.848 70.473 90.88 64.658 56.521 159.96 111.76 192.27 121.65 38.719 11.834-96.357-90.19-137.66-124.75-41.061-34.346 89.309 48.448 198.63 79.074 109.32 30.626 280.88 108.84 299.92 102.5s17.304-11.932-7.36-23.154z" fill="#3F1818"/>
<path d="m200.22 217.12c6.671 8.46 16.558 26.521 20.557 48.17 3.668 19.844 3.361 45.2 2.275 59.726-1.087 14.527-4.392 36.192-24.366 40.316-23.077 4.764-35.643 10.819-47.783 0.359-12.14-10.459-21.503-28.014-29.105-46.562s-3.748-25.002-8.135-26.453c3.201 9.79 0.271 26.427-2.716 36.316-2.987 9.89-6.434 25.926-3.009 40.228 3.426 14.303-2.72 13.843-9.5086 14.459-6.7882 0.616-17.278-1.854-31.497 0.453-14.219 2.308-22.908-1.713-19.388-3.697 3.5194-1.984 4.5533-0.783 6.2295-0.658 1.6761 0.125 10.992-4.234 18.981-5.884 7.9892-1.65 20.266-8.036 19.174-15.983-1.0912-7.948-6.7233-90.399-7.1721-99.422s6.8408-16.343 16.031-19.027c9.19-2.684 14.052-0.073 20.297 6.575 6.245 6.647 49.176 48.625 55.061 67.606-6.402-19.581-16.5-19.775-15.471-41.048s-21.408-44.301-10.39-56.4c11.018-12.098 33.519-19.967 49.935 0.926z" fill="#C9AD85"/>
<path d="m126.53 139.39c-16.557 3.155-21.451 16.374-19.535 28.316s4.193 11.551 7.295 15.154c3.101 3.603 2.642 9.749 1.874 12.501s1.467 2.919 2.585 3.002c1.117 0.084 2.318-0.95 3.435-0.866 1.118 0.083 1.384 4.036 1.859 5.195s2.235 0.167 3.394-0.308c1.16-0.475 0.434 1.718-1.284 2.152-1.718 0.433-0.167 2.234 1.509 2.36 1.676 0.125 2.501 4.12 6.37 4.971s11.165-4.89 15.921-10.046c7.032-7.621 4.322-8.947 4.865-16.211 0.543-7.263 3.423-26.993 0.447-32.272-2.976-5.28-13.915-16.773-28.735-13.948z" fill="#C9AD85"/>
<path d="m102.18 147.69c-3.9095 6.147-2.6299 9.546-0.192 17.594 1.798 6.001 2.591 11.257-2.1369 15.572-6.161 5.602-4.8672 11.665-0.4765 15.837-3.5056-12.55 5.3964-14.991 6.7634-19.294 3.764-11.86-4.053-14.911 0.404-18.696 3.336-2.835 1.965-4.78 2.257-6.433 0.292-1.652-6.619-4.58-6.619-4.58z" fill="#47320A"/>
<path d="m100.28 141.1c-3.896 7.013 0.814 19.164 2.714 23.801 1.901 4.636 13.117 4.914 18.313 3.055 5.195-1.859 27.267 11.029 23.303 26.464-3.963 15.435-5.426 34.99 1.127 45.032 6.553 10.041 12.129 25.628 10.693 37.32 4.789-11.441 8.684-18.454 2.45-40.27-5.922-20.726 4.727-40.661 7.155-50.593 2.429-9.932 7.171-43.288-12.358-52.614-19.529-9.327-32.547-8.053-38.594-2.325s-12.373 5.733-14.803 10.13z" fill="#513C13"/>
<path d="m163.81 189.37c-14.029 4.811-16.522 37.616-5.087 52.995 6.637 8.924 3.931 30.072 6.599 31.957-0.218-6.163 3.635-24.477 13.066-39.475 11.478-18.245-2.468-49.628-14.578-45.477z" fill="#513C13"/>
<path d="m200.22 217.12c9.025 1.326 10.813 13.169 6.751 22.417-4.063 9.247-34.673 42.916-38.485 48.811s-45.059 8.991-54.291 12.233c-9.232 3.243-16.746 6.052-23.492 6.109s-8.4644 0.49-8.8142-2.345 3.0861-3.702 4.2036-3.618c1.1174 0.083-7.3887 1.132-6.5375-2.737s0.1671-2.235 5.1956-1.859c5.0285 0.377-6.1041-1.018-5.8952-3.812 0.209-2.793 0.8513-3.869 6.3549-2.334 5.5036 1.536-4.9867-0.934-3.6603-3.644s1.6761 0.125 6.7464-0.058c5.0703-0.182-2.0677-2.402-3.5767-4.762s2.5274-3.744 5.1956-1.859 8.2972 1.745 11.399 5.348c3.101 3.603 8.772 2.903 16.203 1.211 7.43-1.691 32.249-10.51 35.769-12.494 3.519-1.984 24.198-38.081 28.61-44.493 4.413-6.413 10.543-13.258 18.324-12.114z" fill="#D6BD98"/>
<path d="m184.51 186.72c15.858 20.851 35.919 38.083 35.266 54.328-0.653 16.244-12.663 26.583-5.071 60.3-7.462-12.919-13.597-28.548-10.458-47.978 4.402-27.24-42.05-31.237-46.023-60.75s15.567-35.356 16.491-25.173c0.924 10.182 9.795 19.273 9.795 19.273z" fill="#513C13"/>
<path d="m153.68 133.29c11.373 7.351 22.631 12.929 30.024 34.271 7.393 21.341 23.669 36.604 32.666 44.019s17.283 24.329 15.57 47.236c-1.714 22.908-8.972 44.839 5.836 57.183-11.441-4.788-20.745-24.621-20.625-39.748 0.205-25.268-2.077-47.35-18.911-62.656-16.834-15.305-33.235-28.892-35.934-45.387-2.7-16.496-20.416-42.542-8.626-34.918z" fill="#513C13"/>
<path d="m182.16 210.71c3.336 15.493 25.565 18.768 26.588 35.138s-22.005 38.807-10.644 67.187c-5.211-5.446-18.426-16.548-11.993-42.473 8.855-35.763-23.59-60.197-20.128-68.927 3.463-8.731 14.094-0.632 16.177 9.075z" fill="#513C13"/>
<path d="m176.88 315.08c8.009 4.779 41.001 22.731 44.995 21.906 0.616 6.788-2.861 16.467-12.454 23.79-5.363 4.094-12.794 5.785-18.464 6.485-0.198-12.376-2.396-35.576-14.077-52.181z" fill="#892F2F"/>
</svg>
