<?xml version="1.0" encoding="UTF-8"?>
<svg fill="none" viewBox="0 0 443 419" xmlns="http://www.w3.org/2000/svg">
<g clip-path="url(#a)" opacity=".6">
<path d="m314.39 121.47v-25.957c0-50.016-38.436-93.052-88.397-95.404-53.342-2.5118-97.378 39.992-97.378 92.781v28.58c0 48.085-7.99 76.195-12.021 87.317-1.202 3.315 0.238 6.984 3.352 8.64 14.238 7.575 53.031 26.951 87.266 32.656h28.581c34.236-5.706 73.028-25.082 87.267-32.656 3.113-1.656 4.553-5.325 3.352-8.64-4.032-11.122-12.022-39.232-12.022-87.317z" fill="#5C414B"/>
<path d="m128.61 92.887v28.58c0 48.084-7.989 76.193-12.021 87.315-1.205 3.325 0.267 7 3.39 8.66 13.283 7.058 47.783 24.298 80.082 31.247v-141.51l-14.29-14.29c-23.769-23.769-25.378-53.788-23.807-71.27-20.375 17.038-33.354 42.63-33.354 71.27z" fill="#503441"/>
<path d="m257.22 200.07h-71.451v92.891h71.451v-92.891z" fill="#E6AF78"/>
<path d="m324.66 267-38.04-16.916-50.832 21.435-8.345 12.518c-2.829 4.242-9.062 4.242-11.89 0l-8.345-12.518-50.054-21.435-38.04 16.916c-15.871 7.058-25.916 22.996-25.435 40.358l3.7543 135.64h248.91l3.754-135.64c0.481-17.363-9.563-33.3-25.434-40.358z" fill="#BA6799"/>
<path d="m141.47 321.53-35.895-44.868c-7.7287 8.114-12.22 19.046-11.898 30.691l3.7542 135.64h44.039v-121.47z" fill="#CB8DB2"/>
<path d="m302.3 321.53 35.895-44.868c7.729 8.114 12.221 19.046 11.898 30.691l-3.754 135.64h-44.039v-121.47z" fill="#CB8DB2"/>
<path d="m185.77 220.82c10.932 5.02 23.041 7.826 35.726 7.826s24.794-2.805 35.725-7.826v-20.755h-71.451v20.755z" fill="#D29B6E"/>
<path d="m289.18 165.44c1.842-5.78 2.881-11.818 3.037-17.882 1.054-41.123-56.539-31.494-103.86-62.626-3.296-2.1691-7.69-1.4778-9.943 1.7625-7.476 10.757-15.938 19.261-20.928 23.851-2.65 2.437-6.087 3.78-9.687 3.78h-5.142c-4e-3 0-7e-3 3e-3 -0.011 3e-3 -0.784 0.014-1.586 0.097-2.402 0.255-6.954 1.346-11.635 8-11.635 15.083v5.169c0 6.835 4.377 13.284 11.033 14.836 1.499 0.349 2.956 0.448 4.353 0.337 3.553-0.284 6.654 2.302 7.294 5.808 6.075 33.291 35.16 58.542 70.208 58.542 29.785 0 55.206-18.266 65.915-44.178 0.517-1.261 1.661-4.434 1.763-4.741z" fill="#F0C087"/>
<path d="m178.63 142.9v-56.476c-7.531 10.88-16.108 19.487-21.139 24.116-2.65 2.437-6.087 3.78-9.688 3.78h-5.141c-4e-3 0-7e-3 3e-3 -0.011 3e-3 -0.783 0.014-1.583 0.096-2.398 0.254-6.954 1.344-11.64 7.991-11.64 15.074v5.178c0 6.834 4.376 13.282 11.032 14.836 1.499 0.349 2.957 0.449 4.354 0.337 3.553-0.284 6.654 2.302 7.294 5.808 6.075 33.291 35.16 58.542 70.208 58.542 4.858 0 9.585-0.53 14.168-1.454-32.552-6.668-57.039-35.473-57.039-69.998z" fill="#E6AF78"/>
<path d="m170.97 277.64-13.778-27.556 15.53-13.264c3.179-2.716 8-2.133 10.441 1.262l24.046 33.438-14.882 11.162c-7.133 5.349-17.369 2.933-21.357-5.042z" fill="#DDB3CC"/>
<path d="m272.03 277.64 13.778-27.556-15.529-13.264c-3.179-2.716-8.001-2.133-10.442 1.262l-24.045 33.438 14.882 11.162c7.133 5.349 17.368 2.933 21.356-5.042z" fill="#DDB3CC"/>
<path d="m300.91 428.71h-158.83c-7.566 0-13.821-5.898-14.266-13.451l-5.464-92.888c-0.483-8.208 6.044-15.129 14.266-15.129h169.75c8.222 0 14.748 6.921 14.266 15.129l-5.464 92.888c-0.444 7.553-6.699 13.451-14.266 13.451z" fill="#DBD9DC"/>
<path d="m221.5 389.41c9.865 0 17.862-7.998 17.862-17.863 0-9.866-7.997-17.863-17.862-17.863-9.866 0-17.863 7.997-17.863 17.863 0 9.865 7.997 17.863 17.863 17.863z" fill="#fff"/>
</g>
<defs>
<clipPath id="a">
<rect width="443" height="443" fill="#fff"/>
</clipPath>
</defs>
</svg>
