<?xml version="1.0" encoding="UTF-8"?>
<svg fill="none" viewBox="0 0 1083 492" xmlns="http://www.w3.org/2000/svg">
<path d="m528.44 491.87c43.871 0 79.436-35.565 79.436-79.436s-35.565-79.436-79.436-79.436-79.436 35.565-79.436 79.436 35.565 79.436 79.436 79.436z" fill="#9B3A78"/>
<path d="m1082.6 431.26-1076.7-209.26-5.9944 23.597 1076.7 209.26 5.99-23.597z" fill="#BA6799"/>
<path d="m1082.7 431.26-1076.7-209.26-4.747 18.687 1076.7 209.26 4.75-18.687z" fill="#C176A7"/>
<path d="m194.82 34.67c-1.64 2.9566-1.554 9.5146 1.286 13.116s-7.712 11.83-11.057 7.1992c-3.345-4.6311-0.777-5.6568 0.256-12.6 0.948-6.3793-4.456-14.841-2.354-16.294 2.101-1.453 13.155 6.2628 11.869 8.5783z" fill="#F4D8B3"/>
<path d="m187.69 5.9127c3.244-0.36132 10.459 0.46233 11.624 7.203 1.166 6.7407 0.23 7.9023 1.395 10.692 1.166 2.7895 0.929 8.1355-0.699 10.925s-3.023 6.2744-5.346 6.2744-8.136-3.4966-9.993-4.6621-2.789-8.6016-4.662-13.948c-1.872-5.3459-0.703-15.556 7.681-16.484z" fill="#F4D8B3"/>
<path d="m195.11 20.785c0.159 0.6488 0.268 1.2899 0.388 1.9193 0.121 0.6293 0.234 1.251 0.389 1.8687s0.284 1.2238 0.47 1.826c0.187 0.6022 0.389 1.2005 0.637 1.826-0.496-0.4529-0.903-0.9944-1.2-1.5968-0.302-0.5996-0.525-1.2355-0.665-1.892-0.14-0.6499-0.212-1.3127-0.213-1.9776-0.015-0.6632 0.05-1.3259 0.194-1.9736z" fill="#EDCEA9"/>
<path d="m186.52 7.3075c-0.944-3.9512-5.361-8.6016-11.403-6.9738-6.041 1.6279-8.135 9.2971-7.207 14.876 0.929 5.579 5.346 8.8308 5.828 12.087 0.482 3.2557-3.951 4.6621-2.789 8.3646 1.161 3.7025 5.75 5.0973 4.879 8.1354 0 0 2.094-3.4966-0.695-7.6692-2.79-4.1726 6.993-2.9294 5.827-10.645-1.165-7.7158 0.23-13.761 2.332-13.986 2.101-0.2253 3.228-4.1881 3.228-4.1881z" fill="#D3AE50"/>
<path d="m181.2 24.212c-1.204-1.7988-2.832-2.3078-2.832 0.0621 0 1.8571 3.388 5.886 3.45 3.0071 0.039-1.0574-0.173-2.109-0.618-3.0692z" fill="#EDCEA9"/>
<path d="m185.36 5.2134c-3.054 0.67601 7.195 9.5496 10.68 9.7633 3.485 0.2136 4.417 5.1128 4.417 3.0226 0-1.2549 0.463-8.8348-4.417-11.624s-8.602-1.624-10.68-1.1616z" fill="#D3AE50"/>
<path d="m192.55 11.488c-0.602 3.2091-3.722 5.3459-6.74 6.9932-3.019 1.6473-4.662 4.4174-4.662 6.0452 0 1.6279-2.739-4.6621-3.023-7.2068-0.462-4.1843 1.165-9.5302 5.346-11.387 4.856-2.1718 9.775 1.8377 9.079 5.5557z" fill="#D3AE50"/>
<path d="m203.72 50.506c4.114 1.0257 7.424 1.1656 9.483 3.7181s6.943 22.887 6.426 28.8-4.883 4.6311-9.258 4.3746c-4.375-0.2564-7.712-21.862-7.199-27.262s-3.023-10.529 0.548-9.6312z" fill="#DDB3CC"/>
<path d="m178.62 49.803c-4.076 1.1656-7.126 1.9076-9.096 4.5495-1.969 2.6419-6.169 23.109-5.439 29.002 0.731 5.8938 5.024 4.4485 9.383 4.06s6.993-22.106 6.282-27.487 2.409-11.135-1.13-10.125z" fill="#DDB3CC"/>
<path d="m184.4 43.416c2.207 0.6488 7.98 2.0552 10.292 0.777 1.554 2.3311 4.367 5.1439 10.28 6.6863 0 5.4003-0.87 11.212 3.345 17.747 5.144 7.9722-1.029 13.629-3.601 18.26-1.364 2.4593-2.829 5.1439-3.085 10.031-0.249 4.6854-21.485 3.5194-20.832 0 1.286-6.9427-9.258-19.29-5.4-27.518 2.696-5.7499 2.059-16.974 1.029-19.037 3.1-1.0218 7.199-2.5758 7.972-6.9466z" fill="#DDB3CC"/>
<path d="m187.6 77.616c-2.013-0.6682-5.144-1.7988-6.943-2.8284-1.799-1.0295-6.177 1.0296-7.972 2.8284s-2.331 4.3746 1.554 3.6015 11.83-0.2564 13.373 0.2564c1.542 0.5128 3.073-2.8284-0.012-3.8579z" fill="#F4D8B3"/>
<path d="m194.98 76.649c3.496 0 6.993-0.878 9.04-2.331 1.714-1.2238 3.108-3.4655 4.962-4.0833 1.488-0.5703 3.068-0.8664 4.662-0.8741 2.028 0 0.233 0.7498-2.918 1.4569-1.049 0.237-2.288 1.7017-2.413 1.9192-0.209 0.3614 1.321-0.5905 2.122-0.7537 1.46-0.2914 2.626-0.5827 4.378-0.2914 1.818 0.3031-1.165 1.1656-2.331 1.1656-1.21 0.106-2.375 0.5061-3.395 1.1655-0.847 0.8508 2.288-0.272 4.273 0.2953 2.044 0.5827 1.461 1.4569-1.165 1.1655-2.331-0.2564-3.497 0.338-2.588 0.338s2.984 0.1865 3.858 0.777c0.478 0.3186-0.517 1.0257-2.828 0.7771-1.469-0.1632-2.86 1.1461-4.375 1.0295-2.758-0.2137-5.155 1.4686-7.487 2.0514-2.331 0.5827-4.965-3.8075-3.795-3.8075z" fill="#F4D8B3"/>
<path d="m183.89 76.33c1.026 2.3311 0.777 4.3747 0 4.8875s22.631 6.4299 28.544 6.1734c5.295-0.2331 1.799-10.544-9.258-10.288-11.057 0.2564-15.688 0.5128-19.286-0.7732z" fill="#DDB3CC"/>
<path d="m199.06 75.728c-0.948 2.3311-0.622 4.394 0.163 4.8797 0.785 0.4856-22.41 7.1952-28.319 7.1292-5.303-0.0505-2.156-10.49 8.905-10.591 11.061-0.1011 15.696-0.0156 19.251-1.4181z" fill="#DDB3CC"/>
<path d="m204.41 201.22c0 15.117-5.439 43.354-3.994 49.916 1.632 7.502 1.997 9.713-2.284 9.713-3.99 0-3.99-1.714-3.135-10.269 1.453-14.518-4.274-43.925-3.423-53.906 0.851-9.98 12.836-8.084 12.836 4.546z" fill="#F4D8B3"/>
<path d="m174.09 201.22c0 15.117 5.44 43.354 3.994 49.916-1.631 7.502-1.997 9.713 2.281 9.713 3.994 0 3.994-1.714 3.139-10.269-1.453-14.518 4.274-43.925 3.423-53.906-0.851-9.98-12.837-8.084-12.837 4.546z" fill="#F4D8B3"/>
<path d="m200.51 251.54c-0.078 4.312 0.862 8.804-2.285 8.722s-3.166-1.166-3.108-8.369c0.024-4.005-1.884 6.127-2.001 8.707-0.116 2.58 2.331 6.546 3.92 7.459 1.78 1.026 6.928-3.314 6.399-6.993-0.528-3.679-2.883-12.96-2.925-9.526z" fill="#773064"/>
<path d="m178.06 251.54c0.074 4.313-0.862 8.804 2.285 8.722 3.147-0.081 3.166-1.165 3.108-8.368-0.024-4.006 1.884 6.127 2.001 8.706 0.116 2.58-2.332 6.547-3.921 7.46-1.779 1.025-6.927-3.314-6.398-6.993 0.528-3.68 2.863-12.961 2.925-9.527z" fill="#773064"/>
<path d="m179.98 96.929c3.846 0.4157 20.537 1.8493 22.576 0 1.757 9.2468 9.671 19.134 11.559 34.966 1.709 14.375-5.42 61.265-7.133 68.324-7.984 1.511-23.672 0.753-35.355 0-1.418-13.12-8.283-53.203-4.86-68.833s13.155-25.968 13.213-34.457z" fill="#9B3A78"/>
<path d="m976.77 179.56c-0.536 3.065-3.454 10.746 2.607 17.429 4.965 5.478-0.894 11.403-13.481 8.935-10.824-2.121-9.134-9.502-5.805-12.273 1.749-1.453 7.25-1.243 5.44-13.046-1.811-11.803 12.704-9.491 11.239-1.045z" fill="#9B7B50"/>
<path d="m972.99 153.29c-5.809 0-7.899 3.605-9.154 7.537-1.254 3.932-1.049 5.284-2.945 5.703-1.895 0.42-3.209 0.389-2.719 1.465 0.489 1.076 1.74 2.479 1.713 3.011s-0.66 2.63-1.227 3.399c-0.568 0.77 0 4.068 0.959 7.502 0.68 2.429 5.999 1.893 10.544 2.114 5.579 0.272 7.382-4.165 9.927-6.966 2.331-2.572 5.26-9.592 4.444-14.69-0.94-5.827-6.484-9.102-11.542-9.075z" fill="#9B7B50"/>
<path d="m977.09 172.65c-2.044-1.698-0.323-4.273-1.014-6.437-0.692-2.164-2.856-1.473-3.019-3.61-0.163-2.136-1.942-3.555-3.772-4.444-1.83-0.89-3.52 1.165-4.997-1.31-1.476-2.474 0.704-3.426 0.261-5.31-0.443-1.885 1.395-1.263 3.345-3.031s3.236-0.905 6.399-0.217c3.162 0.687 4.087-1.943 8.259-0.129 4.173 1.815 1.784 6.994 3.579 8.427 1.794 1.434 4.32 4.204 3.683 6.302-0.638 2.098-0.502 4.767-3.497 6.484s-0.26 5.311-2.195 6.815c-1.935 1.503-3.839 2.206-4.713 3.76s-3.795 1.411-2.642-0.388c1.154-1.799 0.436-3.438 1.298-4.728 0.863-1.29 0.128-1.271-0.975-2.184z" fill="#3F280D"/>
<path d="m976.54 173.16c1.411-2.506 3.683-0.971 3.136 1.22-0.665 2.627-2.332 3.885-5.23 3.47-1.581-0.222 1.22-3.136 2.094-4.69z" fill="#8E6D49"/>
<path d="m941.93 401.18c-0.093 1.857 0.245 5.867 0.722 6.959 0.478 1.091-7.486 0.695-7.964-0.389s1.309-4.992 1.399-6.853c0.089-1.861 5.932-1.574 5.843 0.283z" fill="#9B7B50"/>
<path d="m963.48 402.14c-0.16 1.853-1.026 5.781-1.648 6.795-0.621 1.014 7.328 1.694 7.949 0.68 0.622-1.014-0.633-5.124-0.474-6.993 0.16-1.869-5.668-2.335-5.827-0.482z" fill="#9B7B50"/>
<path d="m937.44 259.36c1.119 4.313 4.848 4.231 6.216 8.823 1.367 4.593-4.34 12.545-4.46 9.624-0.121-2.922-3.221-4.686-3.462-10.816-0.163-4.274-4.534-5.28-2.809-7.86s3.508-3.656 4.515 0.229z" fill="#9B7B50"/>
<path d="m975.92 261.77c3.197-0.109 8.512 16.387 6.115 49.011-2.397 32.623-9.472 90.041-9.868 92.683-0.397 2.642-10.409 0.555-11.419-0.56s-0.645-111.77-0.524-114.22c0.066-1.325-2.028-1.771-2.378-0.388-0.66 2.638-12.661 111.7-13.563 113.8-0.901 2.098-10.408 0.556-11.127-1.076-0.718-1.632-1.942-101.51 3.575-121.74 5.516-20.226 8.127-23.917 9.654-23.217 3.905 1.787 22.759 5.936 29.535 5.707z" fill="#54244B"/>
<path d="m1013.6 428.22c17.75-1.42 28.97-42.056 25.08-90.763-3.9-48.707-21.45-87.041-39.193-85.621-17.747 1.419-28.974 42.055-25.078 90.762 3.897 48.707 21.442 87.041 39.191 85.622z" fill="#CEAA46"/>
<path d="m1017.8 427.87c17.75-1.42 28.98-42.056 25.08-90.763s-21.44-87.041-39.19-85.621c-17.746 1.419-28.974 42.055-25.077 90.762 3.897 48.708 21.447 87.041 39.187 85.622z" fill="#DDB947"/>
<path d="m946.67 195.92c-3.497 0.975-5.44 2.393-6.873 4.453-1.434 2.059-15.377 25.867-16.889 29.519-1.511 3.652 9.212 34.791 10.222 35.906s5.828-5.303 5.633-6.38c-0.194-1.076-4.215-22.568-4.343-25.501-0.163-3.983 12.533-16.687 13.233-20.114 0.699-3.426-0.175-18.108-0.983-17.883z" fill="#EED9E5"/>
<path d="m930.93 261.69c0.777-1.068 6.993-6.577 7.269-7.098 0.276-0.52 1.356 5.129 1.317 5.933s-5.676 7.176-6.473 7.137c-0.377-0.028-2.673-5.195-2.113-5.972z" fill="#EED9E5"/>
<path d="m978.68 194.56c2.669 2.214 12.926 7.82 14.733 8.974 1.806 1.154-7.911 14.787-5.828 20.747-1.694 7.381-9.142 34.422-11.104 36.454s-30.739-2.836-30.358-5.214 0.342-34.057-0.249-38.346c-0.59-4.289 3.042-13.159-0.031-21.03 4.868-1.624 12.848-1.5 14.228-2.495 1.223 2.188 5.505 7.188 7.591 8.089 4.079-1.395 8.971-8.877 11.018-7.179z" fill="#EED9E5"/>
<path d="m975.99 189.9c0.342 2.611-1.64 6.31-6.539 8.466-0.077 1.593 0.618 3.757 1.069 5.377 0.509 1.861 10.909-5.855 8.966-9.655-1.942-3.799-3.885-7.133-3.496-4.188z" fill="#DDB3CC"/>
<path d="m964.82 189.62c-2.005 4.111-1.597 6.046 3.065 8.668-1.197 2.071-1.554 3.916-2.389 4.662-0.983 0.894-10.082-6.084-5.878-10.4 1.585-1.616 6.088-4.748 5.202-2.93z" fill="#DDB3CC"/>
<path d="m958.65 261.19c-0.077 1.593-1.196 13.516-0.691 14.076 0.505 0.559 2.882 0.94 2.921 0.144l0.688-14.076c0.027-0.532-2.84-1.737-2.918-0.144z" stroke="#682B5B" stroke-miterlimit="10" stroke-width=".38851"/>
<path d="m967.56 201.6c-1.348 5.789-7.079 52.092-7.382 58.463" stroke="#DDB3CC" stroke-miterlimit="10" stroke-width=".38851"/>
<path d="m945.67 254.43c4.903 3.166 22.048 6.403 32.204 5.571 1.324-0.109 1.46 2.72 0.388 3.213-1.072 0.494-10.925 0.261-18.058-0.886-6.127-0.986-14.309-3.725-15.47-4.751-1.29-1.127 0.132-3.66 0.936-3.147z" fill="#21150A"/>
<path d="m957.73 257.95c-1.061-0.055-1.508 3.652-1.003 4.207 0.505 0.556 6.069 1.096 6.865 1.135 0.797 0.039 1.434-3.477 0.567-4.142-0.866-0.664-5.33-1.15-6.429-1.2z" fill="#826117"/>
<path d="m983.48 254.04c-3.108 0.52-4.662 2.377-7.172 2.56-1.387 0.101-2.832 1.262-4.363 2.179-1.647 0.983-3.357 4.962-3.209 5.7 0.214 1.076 1.577-2.444 2.836-3.586 0.56-0.505 1.131-1.278 2.471-1.476-0.544 0.237-1.682 1.437-2.23 2.02-1.686 1.779-1.97 4.507-1.232 3.399 0.921-1.383 3.058-4.409 4.472-4.308-1.942 1.503-3.108 3.31-2.89 4.662 0.175 1.165 2.039-3.625 4.192-4.052-0.455 0.61-1.966 2.032-2.257 2.552-1.403 2.494 0.213 1.072 1.049 0.315 1.818-1.644 3.822-1.943 4.926-2.685 1.41-0.956 2.444-1.888 2.758-1.993 1.686-0.583 3.796-1.414 3.353-3.318-0.353-1.519 0.117-2.44-2.704-1.969z" fill="#9B7B50"/>
<path d="m980.95 254.83c-3.162-0.155-3.706 0.354-4.945 0.292-1.24-0.063-3.474 2.358-4.111 4.456-0.439 1.461 2.914-2.475 4.021-2.634 1.554-0.23 1.166 1.045 2.436 0.194 1.271-0.851 5.7-2.156 2.599-2.308z" fill="#9B7B50"/>
<path d="m992.64 202.96c2.587 1.461 4.662 2.891 5.886 4.814s13.799 28.097 13.419 35.797-9.27 9.927-15.486 11.753c-6.212 1.826-11.224 6.363-11.924 4.471-0.699-1.892-2.331-6.503-0.975-7.234 1.356-0.73 12.141-8.722 14.305-9.413 2.16-0.692-10.136-15.929-10.948-21.034s5.723-19.154 5.723-19.154z" fill="#EED9E5"/>
<path d="m986.92 249.26c-1.912 0.971-5.218 3.205-4.977 3.749s1.216 7.77 1.985 8.349 6.189-1.294 5.696-2.117c-0.494-0.824-2.704-9.981-2.704-9.981z" fill="#EED9E5"/>
<path d="m942.52 405.47c0.253-1.166 2.145 5.159 0.991 6.969-1.154 1.811-2.269 2.817-3.108 3.307-0.839 0.489-7.848-2.778-7.732-5.171 0.117-2.394 1.112-6.333 2.133-5.486 1.022 0.847 7.39 1.958 7.716 0.381z" fill="#140B01"/>
<path d="m962.19 406.44c-0.136-1.165-2.638 4.926-1.666 6.838 0.971 1.911 1.981 3.026 2.754 3.598 0.773 0.571 8.081-2.001 8.198-4.391 0.116-2.389-0.482-6.414-1.585-5.668-1.104 0.746-7.499 1.228-7.701-0.377z" fill="#140B01"/>
<path d="m967.21 203.98c0.44 0 0.797-0.357 0.797-0.796 0-0.44-0.357-0.797-0.797-0.797-0.439 0-0.796 0.357-0.796 0.797 0 0.439 0.357 0.796 0.796 0.796z" fill="#A9417F"/>
<path d="m965.97 212.96c0.44 0 0.797-0.356 0.797-0.796s-0.357-0.797-0.797-0.797-0.796 0.357-0.796 0.797 0.356 0.796 0.796 0.796z" fill="#A9417F"/>
<path d="m964.75 221.69c0.44 0 0.797-0.357 0.797-0.796 0-0.44-0.357-0.797-0.797-0.797s-0.796 0.357-0.796 0.797c0 0.439 0.356 0.796 0.796 0.796z" fill="#A9417F"/>
<path d="m963.48 231.21c0.44 0 0.797-0.357 0.797-0.797s-0.357-0.796-0.797-0.796-0.796 0.356-0.796 0.796 0.356 0.797 0.796 0.797z" fill="#A9417F"/>
<path d="m962.22 240.73c0.44 0 0.796-0.357 0.796-0.796 0-0.44-0.356-0.797-0.796-0.797s-0.797 0.357-0.797 0.797c0 0.439 0.357 0.796 0.797 0.796z" fill="#A9417F"/>
<path d="m961.56 248.68c0.44 0 0.797-0.357 0.797-0.797 0-0.439-0.357-0.796-0.797-0.796s-0.796 0.357-0.796 0.796c0 0.44 0.356 0.797 0.796 0.797z" fill="#A9417F"/>
<path d="m960.64 256.63c0.44 0 0.797-0.357 0.797-0.796 0-0.44-0.357-0.797-0.797-0.797s-0.796 0.357-0.796 0.797c0 0.439 0.356 0.796 0.796 0.796z" fill="#A9417F"/>
</svg>
